M48
; DRILL file {KiCad (6.0.7)} date Sun Aug 27 18:35:58 2023
; FORMAT={-:-/ absolute / inch / decimal}
; #@! TF.CreationDate,2023-08-27T18:35:58+02:00
; #@! TF.GenerationSoftware,Kicad,Pcbnew,(6.0.7)
; #@! TF.FileFunction,Plated,1,2,PTH
FMAT,2
INCH
; #@! TA.AperFunction,Plated,PTH,ViaDrill
T1C0.0118
; #@! TA.AperFunction,Plated,PTH,ComponentDrill
T2C0.0157
; #@! TA.AperFunction,Plated,PTH,ComponentDrill
T3C0.0394
; #@! TA.AperFunction,Plated,PTH,ComponentDrill
T4C0.0866
%
G90
G05
T1
X5.3543Y-2.6575
X6.2008Y-3.4252
X6.2402Y-3.1988
X6.3583Y-3.9567
X6.437Y-3.0512
X6.4469Y-3.9567
X6.5354Y-3.9567
X6.5945Y-3.0118
X6.624Y-3.9567
X6.7126Y-3.9567
T2
X4.7776Y-2.4803
X4.7776Y-3.8976
X4.7966Y-2.4344
X4.7966Y-2.5262
X4.7966Y-3.8517
X4.7966Y-3.9436
X4.8425Y-2.4154
X4.8425Y-2.5453
X4.8425Y-3.8327
X4.8425Y-3.9626
X4.8885Y-2.4344
X4.8885Y-2.5262
X4.8885Y-3.8517
X4.8885Y-3.9436
X4.9075Y-2.4803
X4.9075Y-3.8976
X7.2972Y-2.4803
X7.2972Y-3.8976
X7.3163Y-2.4344
X7.3163Y-2.5262
X7.3163Y-3.8517
X7.3163Y-3.9436
X7.3622Y-2.4154
X7.3622Y-2.5453
X7.3622Y-3.8327
X7.3622Y-3.9626
X7.4081Y-2.4344
X7.4081Y-2.5262
X7.4081Y-3.8517
X7.4081Y-3.9436
X7.4272Y-2.4803
X7.4272Y-3.8976
T3
X5.148Y-2.4803
X5.1722Y-2.8384
X5.1722Y-2.9384
X5.1722Y-3.0384
X5.1722Y-3.1384
X5.1722Y-3.2384
X5.1722Y-3.3384
X5.1722Y-3.4384
X5.1722Y-3.5384
X5.248Y-2.4803
X5.348Y-2.4803
X5.3492Y-2.889
X5.3492Y-3.489
X5.448Y-2.4803
X5.4492Y-2.889
X5.4492Y-3.489
X5.4993Y-3.0391
X5.4993Y-3.1391
X5.4993Y-3.2391
X5.4993Y-3.3391
X5.548Y-2.4803
X5.5492Y-2.889
X5.5492Y-3.489
X5.648Y-2.4803
X5.6492Y-2.889
X5.6492Y-3.489
X5.748Y-2.4803
X5.7492Y-2.889
X5.7492Y-3.489
X5.848Y-2.4803
X5.8492Y-2.889
X5.8492Y-3.489
X5.948Y-2.4803
X5.9492Y-2.889
X5.9492Y-3.489
X6.0492Y-2.889
X6.0492Y-3.489
X6.1492Y-2.889
X6.1492Y-3.489
X6.2492Y-2.889
X6.2492Y-3.489
X6.3492Y-2.889
X6.3492Y-3.489
X6.4492Y-2.889
X6.4492Y-3.489
X6.5492Y-2.889
X6.5492Y-3.489
X6.5701Y-2.4793
X6.6492Y-2.889
X6.6492Y-3.489
X6.6701Y-2.4793
X6.7492Y-2.889
X6.7492Y-3.489
X6.7701Y-2.4793
X6.8492Y-2.889
X6.8492Y-3.489
X6.8679Y-3.7343
X6.8679Y-3.8343
X6.8701Y-2.4793
X6.9492Y-2.889
X6.9492Y-3.489
X6.9679Y-3.7343
X6.9679Y-3.8343
X6.9701Y-2.4793
X7.0492Y-2.889
X7.0492Y-3.489
X7.0679Y-3.7343
X7.0679Y-3.8343
X7.0701Y-2.4793
X7.1492Y-2.889
X7.1492Y-3.489
X7.2492Y-2.889
X7.2492Y-3.489
T4
X4.8425Y-2.4803
X4.8425Y-3.8976
X7.3622Y-2.4803
X7.3622Y-3.8976
T0
M30
