%TF.GenerationSoftware,KiCad,Pcbnew,(6.0.7)*%
%TF.CreationDate,2023-08-27T18:36:20+02:00*%
%TF.ProjectId,libcsp-zephyr-hw,6c696263-7370-42d7-9a65-706879722d68,rev?*%
%TF.SameCoordinates,Original*%
%TF.FileFunction,Legend,Top*%
%TF.FilePolarity,Positive*%
%FSLAX46Y46*%
G04 Gerber Fmt 4.6, Leading zero omitted, Abs format (unit mm)*
G04 Created by KiCad (PCBNEW (6.0.7)) date 2023-08-27 18:36:20*
%MOMM*%
%LPD*%
G01*
G04 APERTURE LIST*
%ADD10C,0.150000*%
%ADD11C,0.200000*%
%ADD12C,0.120000*%
G04 APERTURE END LIST*
D10*
X136452380Y-85619047D02*
X137166666Y-85619047D01*
X137309523Y-85666666D01*
X137404761Y-85761904D01*
X137452380Y-85904761D01*
X137452380Y-86000000D01*
X137452380Y-84666666D02*
X137452380Y-85142857D01*
X136452380Y-85142857D01*
X137357142Y-83761904D02*
X137404761Y-83809523D01*
X137452380Y-83952380D01*
X137452380Y-84047619D01*
X137404761Y-84190476D01*
X137309523Y-84285714D01*
X137214285Y-84333333D01*
X137023809Y-84380952D01*
X136880952Y-84380952D01*
X136690476Y-84333333D01*
X136595238Y-84285714D01*
X136500000Y-84190476D01*
X136452380Y-84047619D01*
X136452380Y-83952380D01*
X136500000Y-83809523D01*
X136547619Y-83761904D01*
X136452380Y-83047619D02*
X137166666Y-83047619D01*
X137309523Y-83095238D01*
X137404761Y-83190476D01*
X137452380Y-83333333D01*
X137452380Y-83428571D01*
X137452380Y-82095238D02*
X137452380Y-82571428D01*
X136452380Y-82571428D01*
X137357142Y-81190476D02*
X137404761Y-81238095D01*
X137452380Y-81380952D01*
X137452380Y-81476190D01*
X137404761Y-81619047D01*
X137309523Y-81714285D01*
X137214285Y-81761904D01*
X137023809Y-81809523D01*
X136880952Y-81809523D01*
X136690476Y-81761904D01*
X136595238Y-81714285D01*
X136500000Y-81619047D01*
X136452380Y-81476190D01*
X136452380Y-81380952D01*
X136500000Y-81238095D01*
X136547619Y-81190476D01*
X136452380Y-80476190D02*
X137166666Y-80476190D01*
X137309523Y-80523809D01*
X137404761Y-80619047D01*
X137452380Y-80761904D01*
X137452380Y-80857142D01*
X137452380Y-79523809D02*
X137452380Y-80000000D01*
X136452380Y-80000000D01*
X137357142Y-78619047D02*
X137404761Y-78666666D01*
X137452380Y-78809523D01*
X137452380Y-78904761D01*
X137404761Y-79047619D01*
X137309523Y-79142857D01*
X137214285Y-79190476D01*
X137023809Y-79238095D01*
X136880952Y-79238095D01*
X136690476Y-79190476D01*
X136595238Y-79142857D01*
X136500000Y-79047619D01*
X136452380Y-78904761D01*
X136452380Y-78809523D01*
X136500000Y-78666666D01*
X136547619Y-78619047D01*
X136452380Y-77904761D02*
X137166666Y-77904761D01*
X137309523Y-77952380D01*
X137404761Y-78047619D01*
X137452380Y-78190476D01*
X137452380Y-78285714D01*
X137452380Y-76952380D02*
X137452380Y-77428571D01*
X136452380Y-77428571D01*
X137357142Y-76047619D02*
X137404761Y-76095238D01*
X137452380Y-76238095D01*
X137452380Y-76333333D01*
X137404761Y-76476190D01*
X137309523Y-76571428D01*
X137214285Y-76619047D01*
X137023809Y-76666666D01*
X136880952Y-76666666D01*
X136690476Y-76619047D01*
X136595238Y-76571428D01*
X136500000Y-76476190D01*
X136452380Y-76333333D01*
X136452380Y-76238095D01*
X136500000Y-76095238D01*
X136547619Y-76047619D01*
X133662000Y-101346000D02*
X148209000Y-101346000D01*
X148209000Y-101346000D02*
X148209000Y-92964000D01*
X148209000Y-92964000D02*
X133662000Y-92964000D01*
X133662000Y-92964000D02*
X133662000Y-101346000D01*
G36*
X133662000Y-101346000D02*
G01*
X148209000Y-101346000D01*
X148209000Y-92964000D01*
X133662000Y-92964000D01*
X133662000Y-101346000D01*
G37*
D11*
X148666000Y-78193214D02*
X148594571Y-78264642D01*
X148380285Y-78336071D01*
X148237428Y-78336071D01*
X148023142Y-78264642D01*
X147880285Y-78121785D01*
X147808857Y-77978928D01*
X147737428Y-77693214D01*
X147737428Y-77478928D01*
X147808857Y-77193214D01*
X147880285Y-77050357D01*
X148023142Y-76907500D01*
X148237428Y-76836071D01*
X148380285Y-76836071D01*
X148594571Y-76907500D01*
X148666000Y-76978928D01*
X149523142Y-78336071D02*
X149380285Y-78264642D01*
X149308857Y-78193214D01*
X149237428Y-78050357D01*
X149237428Y-77621785D01*
X149308857Y-77478928D01*
X149380285Y-77407500D01*
X149523142Y-77336071D01*
X149737428Y-77336071D01*
X149880285Y-77407500D01*
X149951714Y-77478928D01*
X150023142Y-77621785D01*
X150023142Y-78050357D01*
X149951714Y-78193214D01*
X149880285Y-78264642D01*
X149737428Y-78336071D01*
X149523142Y-78336071D01*
X151308857Y-78336071D02*
X151308857Y-76836071D01*
X151308857Y-78264642D02*
X151166000Y-78336071D01*
X150880285Y-78336071D01*
X150737428Y-78264642D01*
X150666000Y-78193214D01*
X150594571Y-78050357D01*
X150594571Y-77621785D01*
X150666000Y-77478928D01*
X150737428Y-77407500D01*
X150880285Y-77336071D01*
X151166000Y-77336071D01*
X151308857Y-77407500D01*
X152594571Y-78264642D02*
X152451714Y-78336071D01*
X152166000Y-78336071D01*
X152023142Y-78264642D01*
X151951714Y-78121785D01*
X151951714Y-77550357D01*
X152023142Y-77407500D01*
X152166000Y-77336071D01*
X152451714Y-77336071D01*
X152594571Y-77407500D01*
X152666000Y-77550357D01*
X152666000Y-77693214D01*
X151951714Y-77836071D01*
X153237428Y-77907500D02*
X153951714Y-77907500D01*
X153094571Y-78336071D02*
X153594571Y-76836071D01*
X154094571Y-78336071D01*
X154594571Y-78336071D02*
X154594571Y-76836071D01*
X154594571Y-77407500D02*
X154737428Y-77336071D01*
X155023142Y-77336071D01*
X155166000Y-77407500D01*
X155237428Y-77478928D01*
X155308857Y-77621785D01*
X155308857Y-78050357D01*
X155237428Y-78193214D01*
X155166000Y-78264642D01*
X155023142Y-78336071D01*
X154737428Y-78336071D01*
X154594571Y-78264642D01*
X156166000Y-78336071D02*
X156023142Y-78264642D01*
X155951714Y-78193214D01*
X155880285Y-78050357D01*
X155880285Y-77621785D01*
X155951714Y-77478928D01*
X156023142Y-77407500D01*
X156166000Y-77336071D01*
X156380285Y-77336071D01*
X156523142Y-77407500D01*
X156594571Y-77478928D01*
X156666000Y-77621785D01*
X156666000Y-78050357D01*
X156594571Y-78193214D01*
X156523142Y-78264642D01*
X156380285Y-78336071D01*
X156166000Y-78336071D01*
X157166000Y-77336071D02*
X157523142Y-78336071D01*
X157880285Y-77336071D01*
X159023142Y-78264642D02*
X158880285Y-78336071D01*
X158594571Y-78336071D01*
X158451714Y-78264642D01*
X158380285Y-78121785D01*
X158380285Y-77550357D01*
X158451714Y-77407500D01*
X158594571Y-77336071D01*
X158880285Y-77336071D01*
X159023142Y-77407500D01*
X159094571Y-77550357D01*
X159094571Y-77693214D01*
X158380285Y-77836071D01*
X143237428Y-80608214D02*
X143166000Y-80679642D01*
X142951714Y-80751071D01*
X142808857Y-80751071D01*
X142594571Y-80679642D01*
X142451714Y-80536785D01*
X142380285Y-80393928D01*
X142308857Y-80108214D01*
X142308857Y-79893928D01*
X142380285Y-79608214D01*
X142451714Y-79465357D01*
X142594571Y-79322500D01*
X142808857Y-79251071D01*
X142951714Y-79251071D01*
X143166000Y-79322500D01*
X143237428Y-79393928D01*
X143808857Y-80679642D02*
X144023142Y-80751071D01*
X144380285Y-80751071D01*
X144523142Y-80679642D01*
X144594571Y-80608214D01*
X144666000Y-80465357D01*
X144666000Y-80322500D01*
X144594571Y-80179642D01*
X144523142Y-80108214D01*
X144380285Y-80036785D01*
X144094571Y-79965357D01*
X143951714Y-79893928D01*
X143880285Y-79822500D01*
X143808857Y-79679642D01*
X143808857Y-79536785D01*
X143880285Y-79393928D01*
X143951714Y-79322500D01*
X144094571Y-79251071D01*
X144451714Y-79251071D01*
X144666000Y-79322500D01*
X145308857Y-80751071D02*
X145308857Y-79251071D01*
X145880285Y-79251071D01*
X146023142Y-79322500D01*
X146094571Y-79393928D01*
X146166000Y-79536785D01*
X146166000Y-79751071D01*
X146094571Y-79893928D01*
X146023142Y-79965357D01*
X145880285Y-80036785D01*
X145308857Y-80036785D01*
X148523142Y-80679642D02*
X148380285Y-80751071D01*
X148094571Y-80751071D01*
X147951714Y-80679642D01*
X147880285Y-80536785D01*
X147880285Y-79965357D01*
X147951714Y-79822500D01*
X148094571Y-79751071D01*
X148380285Y-79751071D01*
X148523142Y-79822500D01*
X148594571Y-79965357D01*
X148594571Y-80108214D01*
X147880285Y-80251071D01*
X149094571Y-80751071D02*
X149880285Y-79751071D01*
X149094571Y-79751071D02*
X149880285Y-80751071D01*
X150237428Y-79751071D02*
X150808857Y-79751071D01*
X150451714Y-79251071D02*
X150451714Y-80536785D01*
X150523142Y-80679642D01*
X150666000Y-80751071D01*
X150808857Y-80751071D01*
X151880285Y-80679642D02*
X151737428Y-80751071D01*
X151451714Y-80751071D01*
X151308857Y-80679642D01*
X151237428Y-80536785D01*
X151237428Y-79965357D01*
X151308857Y-79822500D01*
X151451714Y-79751071D01*
X151737428Y-79751071D01*
X151880285Y-79822500D01*
X151951714Y-79965357D01*
X151951714Y-80108214D01*
X151237428Y-80251071D01*
X152594571Y-79751071D02*
X152594571Y-80751071D01*
X152594571Y-79893928D02*
X152666000Y-79822500D01*
X152808857Y-79751071D01*
X153023142Y-79751071D01*
X153166000Y-79822500D01*
X153237428Y-79965357D01*
X153237428Y-80751071D01*
X154594571Y-80751071D02*
X154594571Y-79251071D01*
X154594571Y-80679642D02*
X154451714Y-80751071D01*
X154166000Y-80751071D01*
X154023142Y-80679642D01*
X153951714Y-80608214D01*
X153880285Y-80465357D01*
X153880285Y-80036785D01*
X153951714Y-79893928D01*
X154023142Y-79822500D01*
X154166000Y-79751071D01*
X154451714Y-79751071D01*
X154594571Y-79822500D01*
X155880285Y-80679642D02*
X155737428Y-80751071D01*
X155451714Y-80751071D01*
X155308857Y-80679642D01*
X155237428Y-80536785D01*
X155237428Y-79965357D01*
X155308857Y-79822500D01*
X155451714Y-79751071D01*
X155737428Y-79751071D01*
X155880285Y-79822500D01*
X155951714Y-79965357D01*
X155951714Y-80108214D01*
X155237428Y-80251071D01*
X157237428Y-80751071D02*
X157237428Y-79251071D01*
X157237428Y-80679642D02*
X157094571Y-80751071D01*
X156808857Y-80751071D01*
X156666000Y-80679642D01*
X156594571Y-80608214D01*
X156523142Y-80465357D01*
X156523142Y-80036785D01*
X156594571Y-79893928D01*
X156666000Y-79822500D01*
X156808857Y-79751071D01*
X157094571Y-79751071D01*
X157237428Y-79822500D01*
X159023142Y-80679642D02*
X159166000Y-80751071D01*
X159451714Y-80751071D01*
X159594571Y-80679642D01*
X159666000Y-80536785D01*
X159666000Y-80465357D01*
X159594571Y-80322500D01*
X159451714Y-80251071D01*
X159237428Y-80251071D01*
X159094571Y-80179642D01*
X159023142Y-80036785D01*
X159023142Y-79965357D01*
X159094571Y-79822500D01*
X159237428Y-79751071D01*
X159451714Y-79751071D01*
X159594571Y-79822500D01*
X160880285Y-80679642D02*
X160737428Y-80751071D01*
X160451714Y-80751071D01*
X160308857Y-80679642D01*
X160237428Y-80536785D01*
X160237428Y-79965357D01*
X160308857Y-79822500D01*
X160451714Y-79751071D01*
X160737428Y-79751071D01*
X160880285Y-79822500D01*
X160951714Y-79965357D01*
X160951714Y-80108214D01*
X160237428Y-80251071D01*
X161380285Y-79751071D02*
X161951714Y-79751071D01*
X161594571Y-79251071D02*
X161594571Y-80536785D01*
X161666000Y-80679642D01*
X161808857Y-80751071D01*
X161951714Y-80751071D01*
X163094571Y-79751071D02*
X163094571Y-80751071D01*
X162451714Y-79751071D02*
X162451714Y-80536785D01*
X162523142Y-80679642D01*
X162666000Y-80751071D01*
X162880285Y-80751071D01*
X163023142Y-80679642D01*
X163094571Y-80608214D01*
X163808857Y-79751071D02*
X163808857Y-81251071D01*
X163808857Y-79822500D02*
X163951714Y-79751071D01*
X164237428Y-79751071D01*
X164380285Y-79822500D01*
X164451714Y-79893928D01*
X164523142Y-80036785D01*
X164523142Y-80465357D01*
X164451714Y-80608214D01*
X164380285Y-80679642D01*
X164237428Y-80751071D01*
X163951714Y-80751071D01*
X163808857Y-80679642D01*
X150844571Y-83166071D02*
X150130285Y-83166071D01*
X150130285Y-81666071D01*
X151844571Y-82380357D02*
X152058857Y-82451785D01*
X152130285Y-82523214D01*
X152201714Y-82666071D01*
X152201714Y-82880357D01*
X152130285Y-83023214D01*
X152058857Y-83094642D01*
X151916000Y-83166071D01*
X151344571Y-83166071D01*
X151344571Y-81666071D01*
X151844571Y-81666071D01*
X151987428Y-81737500D01*
X152058857Y-81808928D01*
X152130285Y-81951785D01*
X152130285Y-82094642D01*
X152058857Y-82237500D01*
X151987428Y-82308928D01*
X151844571Y-82380357D01*
X151344571Y-82380357D01*
X153916000Y-82737500D02*
X154630285Y-82737500D01*
X153773142Y-83166071D02*
X154273142Y-81666071D01*
X154773142Y-83166071D01*
X155273142Y-83023214D02*
X155344571Y-83094642D01*
X155273142Y-83166071D01*
X155201714Y-83094642D01*
X155273142Y-83023214D01*
X155273142Y-83166071D01*
X156773142Y-83166071D02*
X155916000Y-83166071D01*
X156344571Y-83166071D02*
X156344571Y-81666071D01*
X156201714Y-81880357D01*
X156058857Y-82023214D01*
X155916000Y-82094642D01*
X148987428Y-84081071D02*
X149130285Y-84081071D01*
X149273142Y-84152500D01*
X149344571Y-84223928D01*
X149416000Y-84366785D01*
X149487428Y-84652500D01*
X149487428Y-85009642D01*
X149416000Y-85295357D01*
X149344571Y-85438214D01*
X149273142Y-85509642D01*
X149130285Y-85581071D01*
X148987428Y-85581071D01*
X148844571Y-85509642D01*
X148773142Y-85438214D01*
X148701714Y-85295357D01*
X148630285Y-85009642D01*
X148630285Y-84652500D01*
X148701714Y-84366785D01*
X148773142Y-84223928D01*
X148844571Y-84152500D01*
X148987428Y-84081071D01*
X150344571Y-84723928D02*
X150201714Y-84652500D01*
X150130285Y-84581071D01*
X150058857Y-84438214D01*
X150058857Y-84366785D01*
X150130285Y-84223928D01*
X150201714Y-84152500D01*
X150344571Y-84081071D01*
X150630285Y-84081071D01*
X150773142Y-84152500D01*
X150844571Y-84223928D01*
X150916000Y-84366785D01*
X150916000Y-84438214D01*
X150844571Y-84581071D01*
X150773142Y-84652500D01*
X150630285Y-84723928D01*
X150344571Y-84723928D01*
X150201714Y-84795357D01*
X150130285Y-84866785D01*
X150058857Y-85009642D01*
X150058857Y-85295357D01*
X150130285Y-85438214D01*
X150201714Y-85509642D01*
X150344571Y-85581071D01*
X150630285Y-85581071D01*
X150773142Y-85509642D01*
X150844571Y-85438214D01*
X150916000Y-85295357D01*
X150916000Y-85009642D01*
X150844571Y-84866785D01*
X150773142Y-84795357D01*
X150630285Y-84723928D01*
X152630285Y-84009642D02*
X151344571Y-85938214D01*
X153058857Y-84223928D02*
X153130285Y-84152500D01*
X153273142Y-84081071D01*
X153630285Y-84081071D01*
X153773142Y-84152500D01*
X153844571Y-84223928D01*
X153916000Y-84366785D01*
X153916000Y-84509642D01*
X153844571Y-84723928D01*
X152987428Y-85581071D01*
X153916000Y-85581071D01*
X154844571Y-84081071D02*
X154987428Y-84081071D01*
X155130285Y-84152500D01*
X155201714Y-84223928D01*
X155273142Y-84366785D01*
X155344571Y-84652500D01*
X155344571Y-85009642D01*
X155273142Y-85295357D01*
X155201714Y-85438214D01*
X155130285Y-85509642D01*
X154987428Y-85581071D01*
X154844571Y-85581071D01*
X154701714Y-85509642D01*
X154630285Y-85438214D01*
X154558857Y-85295357D01*
X154487428Y-85009642D01*
X154487428Y-84652500D01*
X154558857Y-84366785D01*
X154630285Y-84223928D01*
X154701714Y-84152500D01*
X154844571Y-84081071D01*
X155916000Y-84223928D02*
X155987428Y-84152500D01*
X156130285Y-84081071D01*
X156487428Y-84081071D01*
X156630285Y-84152500D01*
X156701714Y-84223928D01*
X156773142Y-84366785D01*
X156773142Y-84509642D01*
X156701714Y-84723928D01*
X155844571Y-85581071D01*
X156773142Y-85581071D01*
X157273142Y-84081071D02*
X158201714Y-84081071D01*
X157701714Y-84652500D01*
X157916000Y-84652500D01*
X158058857Y-84723928D01*
X158130285Y-84795357D01*
X158201714Y-84938214D01*
X158201714Y-85295357D01*
X158130285Y-85438214D01*
X158058857Y-85509642D01*
X157916000Y-85581071D01*
X157487428Y-85581071D01*
X157344571Y-85509642D01*
X157273142Y-85438214D01*
D10*
%TO.C,R10*%
X156452380Y-98892857D02*
X155976190Y-99226190D01*
X156452380Y-99464285D02*
X155452380Y-99464285D01*
X155452380Y-99083333D01*
X155500000Y-98988095D01*
X155547619Y-98940476D01*
X155642857Y-98892857D01*
X155785714Y-98892857D01*
X155880952Y-98940476D01*
X155928571Y-98988095D01*
X155976190Y-99083333D01*
X155976190Y-99464285D01*
X156452380Y-97940476D02*
X156452380Y-98511904D01*
X156452380Y-98226190D02*
X155452380Y-98226190D01*
X155595238Y-98321428D01*
X155690476Y-98416666D01*
X155738095Y-98511904D01*
X155452380Y-97321428D02*
X155452380Y-97226190D01*
X155500000Y-97130952D01*
X155547619Y-97083333D01*
X155642857Y-97035714D01*
X155833333Y-96988095D01*
X156071428Y-96988095D01*
X156261904Y-97035714D01*
X156357142Y-97083333D01*
X156404761Y-97130952D01*
X156452380Y-97226190D01*
X156452380Y-97321428D01*
X156404761Y-97416666D01*
X156357142Y-97464285D01*
X156261904Y-97511904D01*
X156071428Y-97559523D01*
X155833333Y-97559523D01*
X155642857Y-97511904D01*
X155547619Y-97464285D01*
X155500000Y-97416666D01*
X155452380Y-97321428D01*
%TO.C,R13*%
X170952380Y-92392857D02*
X170476190Y-92726190D01*
X170952380Y-92964285D02*
X169952380Y-92964285D01*
X169952380Y-92583333D01*
X170000000Y-92488095D01*
X170047619Y-92440476D01*
X170142857Y-92392857D01*
X170285714Y-92392857D01*
X170380952Y-92440476D01*
X170428571Y-92488095D01*
X170476190Y-92583333D01*
X170476190Y-92964285D01*
X170952380Y-91440476D02*
X170952380Y-92011904D01*
X170952380Y-91726190D02*
X169952380Y-91726190D01*
X170095238Y-91821428D01*
X170190476Y-91916666D01*
X170238095Y-92011904D01*
X169952380Y-91107142D02*
X169952380Y-90488095D01*
X170333333Y-90821428D01*
X170333333Y-90678571D01*
X170380952Y-90583333D01*
X170428571Y-90535714D01*
X170523809Y-90488095D01*
X170761904Y-90488095D01*
X170857142Y-90535714D01*
X170904761Y-90583333D01*
X170952380Y-90678571D01*
X170952380Y-90964285D01*
X170904761Y-91059523D01*
X170857142Y-91107142D01*
%TO.C,R9*%
X158952380Y-98416666D02*
X158476190Y-98750000D01*
X158952380Y-98988095D02*
X157952380Y-98988095D01*
X157952380Y-98607142D01*
X158000000Y-98511904D01*
X158047619Y-98464285D01*
X158142857Y-98416666D01*
X158285714Y-98416666D01*
X158380952Y-98464285D01*
X158428571Y-98511904D01*
X158476190Y-98607142D01*
X158476190Y-98988095D01*
X158952380Y-97940476D02*
X158952380Y-97750000D01*
X158904761Y-97654761D01*
X158857142Y-97607142D01*
X158714285Y-97511904D01*
X158523809Y-97464285D01*
X158142857Y-97464285D01*
X158047619Y-97511904D01*
X158000000Y-97559523D01*
X157952380Y-97654761D01*
X157952380Y-97845238D01*
X158000000Y-97940476D01*
X158047619Y-97988095D01*
X158142857Y-98035714D01*
X158380952Y-98035714D01*
X158476190Y-97988095D01*
X158523809Y-97940476D01*
X158571428Y-97845238D01*
X158571428Y-97654761D01*
X158523809Y-97559523D01*
X158476190Y-97511904D01*
X158380952Y-97464285D01*
%TO.C,R16*%
X164202380Y-92392857D02*
X163726190Y-92726190D01*
X164202380Y-92964285D02*
X163202380Y-92964285D01*
X163202380Y-92583333D01*
X163250000Y-92488095D01*
X163297619Y-92440476D01*
X163392857Y-92392857D01*
X163535714Y-92392857D01*
X163630952Y-92440476D01*
X163678571Y-92488095D01*
X163726190Y-92583333D01*
X163726190Y-92964285D01*
X164202380Y-91440476D02*
X164202380Y-92011904D01*
X164202380Y-91726190D02*
X163202380Y-91726190D01*
X163345238Y-91821428D01*
X163440476Y-91916666D01*
X163488095Y-92011904D01*
X163202380Y-90583333D02*
X163202380Y-90773809D01*
X163250000Y-90869047D01*
X163297619Y-90916666D01*
X163440476Y-91011904D01*
X163630952Y-91059523D01*
X164011904Y-91059523D01*
X164107142Y-91011904D01*
X164154761Y-90964285D01*
X164202380Y-90869047D01*
X164202380Y-90678571D01*
X164154761Y-90583333D01*
X164107142Y-90535714D01*
X164011904Y-90488095D01*
X163773809Y-90488095D01*
X163678571Y-90535714D01*
X163630952Y-90583333D01*
X163583333Y-90678571D01*
X163583333Y-90869047D01*
X163630952Y-90964285D01*
X163678571Y-91011904D01*
X163773809Y-91059523D01*
%TO.C,R3*%
X168833333Y-67302380D02*
X168500000Y-66826190D01*
X168261904Y-67302380D02*
X168261904Y-66302380D01*
X168642857Y-66302380D01*
X168738095Y-66350000D01*
X168785714Y-66397619D01*
X168833333Y-66492857D01*
X168833333Y-66635714D01*
X168785714Y-66730952D01*
X168738095Y-66778571D01*
X168642857Y-66826190D01*
X168261904Y-66826190D01*
X169166666Y-66302380D02*
X169785714Y-66302380D01*
X169452380Y-66683333D01*
X169595238Y-66683333D01*
X169690476Y-66730952D01*
X169738095Y-66778571D01*
X169785714Y-66873809D01*
X169785714Y-67111904D01*
X169738095Y-67207142D01*
X169690476Y-67254761D01*
X169595238Y-67302380D01*
X169309523Y-67302380D01*
X169214285Y-67254761D01*
X169166666Y-67207142D01*
%TO.C,J4*%
X163562380Y-63308333D02*
X164276666Y-63308333D01*
X164419523Y-63355952D01*
X164514761Y-63451190D01*
X164562380Y-63594047D01*
X164562380Y-63689285D01*
X163895714Y-62403571D02*
X164562380Y-62403571D01*
X163514761Y-62641666D02*
X164229047Y-62879761D01*
X164229047Y-62260714D01*
%TO.C,D4*%
X163011904Y-101452380D02*
X163011904Y-100452380D01*
X163250000Y-100452380D01*
X163392857Y-100500000D01*
X163488095Y-100595238D01*
X163535714Y-100690476D01*
X163583333Y-100880952D01*
X163583333Y-101023809D01*
X163535714Y-101214285D01*
X163488095Y-101309523D01*
X163392857Y-101404761D01*
X163250000Y-101452380D01*
X163011904Y-101452380D01*
X164440476Y-100785714D02*
X164440476Y-101452380D01*
X164202380Y-100404761D02*
X163964285Y-101119047D01*
X164583333Y-101119047D01*
%TO.C,J2*%
X181452380Y-100583333D02*
X182166666Y-100583333D01*
X182309523Y-100630952D01*
X182404761Y-100726190D01*
X182452380Y-100869047D01*
X182452380Y-100964285D01*
X181547619Y-100154761D02*
X181500000Y-100107142D01*
X181452380Y-100011904D01*
X181452380Y-99773809D01*
X181500000Y-99678571D01*
X181547619Y-99630952D01*
X181642857Y-99583333D01*
X181738095Y-99583333D01*
X181880952Y-99630952D01*
X182452380Y-100202380D01*
X182452380Y-99583333D01*
%TO.C,R8*%
X185833333Y-95952380D02*
X185500000Y-95476190D01*
X185261904Y-95952380D02*
X185261904Y-94952380D01*
X185642857Y-94952380D01*
X185738095Y-95000000D01*
X185785714Y-95047619D01*
X185833333Y-95142857D01*
X185833333Y-95285714D01*
X185785714Y-95380952D01*
X185738095Y-95428571D01*
X185642857Y-95476190D01*
X185261904Y-95476190D01*
X186404761Y-95380952D02*
X186309523Y-95333333D01*
X186261904Y-95285714D01*
X186214285Y-95190476D01*
X186214285Y-95142857D01*
X186261904Y-95047619D01*
X186309523Y-95000000D01*
X186404761Y-94952380D01*
X186595238Y-94952380D01*
X186690476Y-95000000D01*
X186738095Y-95047619D01*
X186785714Y-95142857D01*
X186785714Y-95190476D01*
X186738095Y-95285714D01*
X186690476Y-95333333D01*
X186595238Y-95380952D01*
X186404761Y-95380952D01*
X186309523Y-95428571D01*
X186261904Y-95476190D01*
X186214285Y-95571428D01*
X186214285Y-95761904D01*
X186261904Y-95857142D01*
X186309523Y-95904761D01*
X186404761Y-95952380D01*
X186595238Y-95952380D01*
X186690476Y-95904761D01*
X186738095Y-95857142D01*
X186785714Y-95761904D01*
X186785714Y-95571428D01*
X186738095Y-95476190D01*
X186690476Y-95428571D01*
X186595238Y-95380952D01*
%TO.C,R11*%
X153952380Y-98892857D02*
X153476190Y-99226190D01*
X153952380Y-99464285D02*
X152952380Y-99464285D01*
X152952380Y-99083333D01*
X153000000Y-98988095D01*
X153047619Y-98940476D01*
X153142857Y-98892857D01*
X153285714Y-98892857D01*
X153380952Y-98940476D01*
X153428571Y-98988095D01*
X153476190Y-99083333D01*
X153476190Y-99464285D01*
X153952380Y-97940476D02*
X153952380Y-98511904D01*
X153952380Y-98226190D02*
X152952380Y-98226190D01*
X153095238Y-98321428D01*
X153190476Y-98416666D01*
X153238095Y-98511904D01*
X153952380Y-96988095D02*
X153952380Y-97559523D01*
X153952380Y-97273809D02*
X152952380Y-97273809D01*
X153095238Y-97369047D01*
X153190476Y-97464285D01*
X153238095Y-97559523D01*
%TO.C,J1*%
X127442380Y-63333333D02*
X128156666Y-63333333D01*
X128299523Y-63380952D01*
X128394761Y-63476190D01*
X128442380Y-63619047D01*
X128442380Y-63714285D01*
X128442380Y-62333333D02*
X128442380Y-62904761D01*
X128442380Y-62619047D02*
X127442380Y-62619047D01*
X127585238Y-62714285D01*
X127680476Y-62809523D01*
X127728095Y-62904761D01*
%TO.C,R1*%
X175833333Y-67302380D02*
X175500000Y-66826190D01*
X175261904Y-67302380D02*
X175261904Y-66302380D01*
X175642857Y-66302380D01*
X175738095Y-66350000D01*
X175785714Y-66397619D01*
X175833333Y-66492857D01*
X175833333Y-66635714D01*
X175785714Y-66730952D01*
X175738095Y-66778571D01*
X175642857Y-66826190D01*
X175261904Y-66826190D01*
X176785714Y-67302380D02*
X176214285Y-67302380D01*
X176500000Y-67302380D02*
X176500000Y-66302380D01*
X176404761Y-66445238D01*
X176309523Y-66540476D01*
X176214285Y-66588095D01*
%TO.C,R7*%
X185833333Y-93952380D02*
X185500000Y-93476190D01*
X185261904Y-93952380D02*
X185261904Y-92952380D01*
X185642857Y-92952380D01*
X185738095Y-93000000D01*
X185785714Y-93047619D01*
X185833333Y-93142857D01*
X185833333Y-93285714D01*
X185785714Y-93380952D01*
X185738095Y-93428571D01*
X185642857Y-93476190D01*
X185261904Y-93476190D01*
X186166666Y-92952380D02*
X186833333Y-92952380D01*
X186404761Y-93952380D01*
%TO.C,R14*%
X168702380Y-92392857D02*
X168226190Y-92726190D01*
X168702380Y-92964285D02*
X167702380Y-92964285D01*
X167702380Y-92583333D01*
X167750000Y-92488095D01*
X167797619Y-92440476D01*
X167892857Y-92392857D01*
X168035714Y-92392857D01*
X168130952Y-92440476D01*
X168178571Y-92488095D01*
X168226190Y-92583333D01*
X168226190Y-92964285D01*
X168702380Y-91440476D02*
X168702380Y-92011904D01*
X168702380Y-91726190D02*
X167702380Y-91726190D01*
X167845238Y-91821428D01*
X167940476Y-91916666D01*
X167988095Y-92011904D01*
X168035714Y-90583333D02*
X168702380Y-90583333D01*
X167654761Y-90821428D02*
X168369047Y-91059523D01*
X168369047Y-90440476D01*
%TO.C,U1*%
X187392380Y-81761904D02*
X188201904Y-81761904D01*
X188297142Y-81714285D01*
X188344761Y-81666666D01*
X188392380Y-81571428D01*
X188392380Y-81380952D01*
X188344761Y-81285714D01*
X188297142Y-81238095D01*
X188201904Y-81190476D01*
X187392380Y-81190476D01*
X188392380Y-80190476D02*
X188392380Y-80761904D01*
X188392380Y-80476190D02*
X187392380Y-80476190D01*
X187535238Y-80571428D01*
X187630476Y-80666666D01*
X187678095Y-80761904D01*
%TO.C,D2*%
X167511904Y-101452380D02*
X167511904Y-100452380D01*
X167750000Y-100452380D01*
X167892857Y-100500000D01*
X167988095Y-100595238D01*
X168035714Y-100690476D01*
X168083333Y-100880952D01*
X168083333Y-101023809D01*
X168035714Y-101214285D01*
X167988095Y-101309523D01*
X167892857Y-101404761D01*
X167750000Y-101452380D01*
X167511904Y-101452380D01*
X168464285Y-100547619D02*
X168511904Y-100500000D01*
X168607142Y-100452380D01*
X168845238Y-100452380D01*
X168940476Y-100500000D01*
X168988095Y-100547619D01*
X169035714Y-100642857D01*
X169035714Y-100738095D01*
X168988095Y-100880952D01*
X168416666Y-101452380D01*
X169035714Y-101452380D01*
%TO.C,D1*%
X169761904Y-101452380D02*
X169761904Y-100452380D01*
X170000000Y-100452380D01*
X170142857Y-100500000D01*
X170238095Y-100595238D01*
X170285714Y-100690476D01*
X170333333Y-100880952D01*
X170333333Y-101023809D01*
X170285714Y-101214285D01*
X170238095Y-101309523D01*
X170142857Y-101404761D01*
X170000000Y-101452380D01*
X169761904Y-101452380D01*
X171285714Y-101452380D02*
X170714285Y-101452380D01*
X171000000Y-101452380D02*
X171000000Y-100452380D01*
X170904761Y-100595238D01*
X170809523Y-100690476D01*
X170714285Y-100738095D01*
%TO.C,R17*%
X161952380Y-92392857D02*
X161476190Y-92726190D01*
X161952380Y-92964285D02*
X160952380Y-92964285D01*
X160952380Y-92583333D01*
X161000000Y-92488095D01*
X161047619Y-92440476D01*
X161142857Y-92392857D01*
X161285714Y-92392857D01*
X161380952Y-92440476D01*
X161428571Y-92488095D01*
X161476190Y-92583333D01*
X161476190Y-92964285D01*
X161952380Y-91440476D02*
X161952380Y-92011904D01*
X161952380Y-91726190D02*
X160952380Y-91726190D01*
X161095238Y-91821428D01*
X161190476Y-91916666D01*
X161238095Y-92011904D01*
X160952380Y-91107142D02*
X160952380Y-90440476D01*
X161952380Y-90869047D01*
%TO.C,R4*%
X165333333Y-67302380D02*
X165000000Y-66826190D01*
X164761904Y-67302380D02*
X164761904Y-66302380D01*
X165142857Y-66302380D01*
X165238095Y-66350000D01*
X165285714Y-66397619D01*
X165333333Y-66492857D01*
X165333333Y-66635714D01*
X165285714Y-66730952D01*
X165238095Y-66778571D01*
X165142857Y-66826190D01*
X164761904Y-66826190D01*
X166190476Y-66635714D02*
X166190476Y-67302380D01*
X165952380Y-66254761D02*
X165714285Y-66969047D01*
X166333333Y-66969047D01*
%TO.C,R5*%
X133333333Y-66202380D02*
X133000000Y-65726190D01*
X132761904Y-66202380D02*
X132761904Y-65202380D01*
X133142857Y-65202380D01*
X133238095Y-65250000D01*
X133285714Y-65297619D01*
X133333333Y-65392857D01*
X133333333Y-65535714D01*
X133285714Y-65630952D01*
X133238095Y-65678571D01*
X133142857Y-65726190D01*
X132761904Y-65726190D01*
X134238095Y-65202380D02*
X133761904Y-65202380D01*
X133714285Y-65678571D01*
X133761904Y-65630952D01*
X133857142Y-65583333D01*
X134095238Y-65583333D01*
X134190476Y-65630952D01*
X134238095Y-65678571D01*
X134285714Y-65773809D01*
X134285714Y-66011904D01*
X134238095Y-66107142D01*
X134190476Y-66154761D01*
X134095238Y-66202380D01*
X133857142Y-66202380D01*
X133761904Y-66154761D01*
X133714285Y-66107142D01*
%TO.C,R2*%
X172333333Y-67302380D02*
X172000000Y-66826190D01*
X171761904Y-67302380D02*
X171761904Y-66302380D01*
X172142857Y-66302380D01*
X172238095Y-66350000D01*
X172285714Y-66397619D01*
X172333333Y-66492857D01*
X172333333Y-66635714D01*
X172285714Y-66730952D01*
X172238095Y-66778571D01*
X172142857Y-66826190D01*
X171761904Y-66826190D01*
X172714285Y-66397619D02*
X172761904Y-66350000D01*
X172857142Y-66302380D01*
X173095238Y-66302380D01*
X173190476Y-66350000D01*
X173238095Y-66397619D01*
X173285714Y-66492857D01*
X173285714Y-66588095D01*
X173238095Y-66730952D01*
X172666666Y-67302380D01*
X173285714Y-67302380D01*
%TO.C,R15*%
X166452380Y-92392857D02*
X165976190Y-92726190D01*
X166452380Y-92964285D02*
X165452380Y-92964285D01*
X165452380Y-92583333D01*
X165500000Y-92488095D01*
X165547619Y-92440476D01*
X165642857Y-92392857D01*
X165785714Y-92392857D01*
X165880952Y-92440476D01*
X165928571Y-92488095D01*
X165976190Y-92583333D01*
X165976190Y-92964285D01*
X166452380Y-91440476D02*
X166452380Y-92011904D01*
X166452380Y-91726190D02*
X165452380Y-91726190D01*
X165595238Y-91821428D01*
X165690476Y-91916666D01*
X165738095Y-92011904D01*
X165452380Y-90535714D02*
X165452380Y-91011904D01*
X165928571Y-91059523D01*
X165880952Y-91011904D01*
X165833333Y-90916666D01*
X165833333Y-90678571D01*
X165880952Y-90583333D01*
X165928571Y-90535714D01*
X166023809Y-90488095D01*
X166261904Y-90488095D01*
X166357142Y-90535714D01*
X166404761Y-90583333D01*
X166452380Y-90678571D01*
X166452380Y-90916666D01*
X166404761Y-91011904D01*
X166357142Y-91059523D01*
%TO.C,R6*%
X138333333Y-66202380D02*
X138000000Y-65726190D01*
X137761904Y-66202380D02*
X137761904Y-65202380D01*
X138142857Y-65202380D01*
X138238095Y-65250000D01*
X138285714Y-65297619D01*
X138333333Y-65392857D01*
X138333333Y-65535714D01*
X138285714Y-65630952D01*
X138238095Y-65678571D01*
X138142857Y-65726190D01*
X137761904Y-65726190D01*
X139190476Y-65202380D02*
X139000000Y-65202380D01*
X138904761Y-65250000D01*
X138857142Y-65297619D01*
X138761904Y-65440476D01*
X138714285Y-65630952D01*
X138714285Y-66011904D01*
X138761904Y-66107142D01*
X138809523Y-66154761D01*
X138904761Y-66202380D01*
X139095238Y-66202380D01*
X139190476Y-66154761D01*
X139238095Y-66107142D01*
X139285714Y-66011904D01*
X139285714Y-65773809D01*
X139238095Y-65678571D01*
X139190476Y-65630952D01*
X139095238Y-65583333D01*
X138904761Y-65583333D01*
X138809523Y-65630952D01*
X138761904Y-65678571D01*
X138714285Y-65773809D01*
%TO.C,R12*%
X151452380Y-98892857D02*
X150976190Y-99226190D01*
X151452380Y-99464285D02*
X150452380Y-99464285D01*
X150452380Y-99083333D01*
X150500000Y-98988095D01*
X150547619Y-98940476D01*
X150642857Y-98892857D01*
X150785714Y-98892857D01*
X150880952Y-98940476D01*
X150928571Y-98988095D01*
X150976190Y-99083333D01*
X150976190Y-99464285D01*
X151452380Y-97940476D02*
X151452380Y-98511904D01*
X151452380Y-98226190D02*
X150452380Y-98226190D01*
X150595238Y-98321428D01*
X150690476Y-98416666D01*
X150738095Y-98511904D01*
X150547619Y-97559523D02*
X150500000Y-97511904D01*
X150452380Y-97416666D01*
X150452380Y-97178571D01*
X150500000Y-97083333D01*
X150547619Y-97035714D01*
X150642857Y-96988095D01*
X150738095Y-96988095D01*
X150880952Y-97035714D01*
X151452380Y-97607142D01*
X151452380Y-96988095D01*
%TO.C,D3*%
X165261904Y-101452380D02*
X165261904Y-100452380D01*
X165500000Y-100452380D01*
X165642857Y-100500000D01*
X165738095Y-100595238D01*
X165785714Y-100690476D01*
X165833333Y-100880952D01*
X165833333Y-101023809D01*
X165785714Y-101214285D01*
X165738095Y-101309523D01*
X165642857Y-101404761D01*
X165500000Y-101452380D01*
X165261904Y-101452380D01*
X166166666Y-100452380D02*
X166785714Y-100452380D01*
X166452380Y-100833333D01*
X166595238Y-100833333D01*
X166690476Y-100880952D01*
X166738095Y-100928571D01*
X166785714Y-101023809D01*
X166785714Y-101261904D01*
X166738095Y-101357142D01*
X166690476Y-101404761D01*
X166595238Y-101452380D01*
X166309523Y-101452380D01*
X166214285Y-101404761D01*
X166166666Y-101357142D01*
%TO.C,J3*%
X126656666Y-91597380D02*
X126656666Y-92311666D01*
X126609047Y-92454523D01*
X126513809Y-92549761D01*
X126370952Y-92597380D01*
X126275714Y-92597380D01*
X127037619Y-91597380D02*
X127656666Y-91597380D01*
X127323333Y-91978333D01*
X127466190Y-91978333D01*
X127561428Y-92025952D01*
X127609047Y-92073571D01*
X127656666Y-92168809D01*
X127656666Y-92406904D01*
X127609047Y-92502142D01*
X127561428Y-92549761D01*
X127466190Y-92597380D01*
X127180476Y-92597380D01*
X127085238Y-92549761D01*
X127037619Y-92502142D01*
%TO.C,D5*%
X160761904Y-101452380D02*
X160761904Y-100452380D01*
X161000000Y-100452380D01*
X161142857Y-100500000D01*
X161238095Y-100595238D01*
X161285714Y-100690476D01*
X161333333Y-100880952D01*
X161333333Y-101023809D01*
X161285714Y-101214285D01*
X161238095Y-101309523D01*
X161142857Y-101404761D01*
X161000000Y-101452380D01*
X160761904Y-101452380D01*
X162238095Y-100452380D02*
X161761904Y-100452380D01*
X161714285Y-100928571D01*
X161761904Y-100880952D01*
X161857142Y-100833333D01*
X162095238Y-100833333D01*
X162190476Y-100880952D01*
X162238095Y-100928571D01*
X162285714Y-101023809D01*
X162285714Y-101261904D01*
X162238095Y-101357142D01*
X162190476Y-101404761D01*
X162095238Y-101452380D01*
X161857142Y-101452380D01*
X161761904Y-101404761D01*
X161714285Y-101357142D01*
D12*
%TO.C,R10*%
X156735000Y-94772936D02*
X156735000Y-95227064D01*
X155265000Y-94772936D02*
X155265000Y-95227064D01*
%TO.C,R13*%
X171235000Y-95227064D02*
X171235000Y-94772936D01*
X169765000Y-95227064D02*
X169765000Y-94772936D01*
%TO.C,R9*%
X159235000Y-94772936D02*
X159235000Y-95227064D01*
X157765000Y-94772936D02*
X157765000Y-95227064D01*
%TO.C,R16*%
X163015000Y-95227064D02*
X163015000Y-94772936D01*
X164485000Y-95227064D02*
X164485000Y-94772936D01*
%TO.C,R3*%
X168772936Y-67765000D02*
X169227064Y-67765000D01*
X168772936Y-69235000D02*
X169227064Y-69235000D01*
%TO.C,J4*%
X168150000Y-64305000D02*
X168150000Y-61645000D01*
X180910000Y-64305000D02*
X180910000Y-61645000D01*
X165550000Y-62975000D02*
X165550000Y-61645000D01*
X168150000Y-64305000D02*
X180910000Y-64305000D01*
X168150000Y-61645000D02*
X180910000Y-61645000D01*
X165550000Y-61645000D02*
X166880000Y-61645000D01*
%TO.C,D4*%
X162790000Y-97500000D02*
X162790000Y-100185000D01*
X164710000Y-100185000D02*
X164710000Y-97500000D01*
X162790000Y-100185000D02*
X164710000Y-100185000D01*
%TO.C,J2*%
X176605000Y-98432929D02*
X176605000Y-98830000D01*
X177365000Y-95892929D02*
X177365000Y-96347071D01*
X179905000Y-98432929D02*
X179905000Y-98830000D01*
X176605000Y-95892929D02*
X176605000Y-96347071D01*
X174825000Y-98432929D02*
X174825000Y-98830000D01*
X179905000Y-95960000D02*
X179905000Y-96347071D01*
X174065000Y-95892929D02*
X174065000Y-96347071D01*
X175715000Y-98830000D02*
X175715000Y-101490000D01*
X179145000Y-95960000D02*
X179145000Y-96347071D01*
X173115000Y-101490000D02*
X180855000Y-101490000D01*
X180795000Y-93580000D02*
X180795000Y-94850000D01*
X173115000Y-98830000D02*
X173115000Y-101490000D01*
X174065000Y-98432929D02*
X174065000Y-98830000D01*
X174825000Y-95892929D02*
X174825000Y-96347071D01*
X179525000Y-93580000D02*
X180795000Y-93580000D01*
X180855000Y-101490000D02*
X180855000Y-98830000D01*
X179145000Y-98432929D02*
X179145000Y-98830000D01*
X178255000Y-98830000D02*
X178255000Y-101490000D01*
X180855000Y-98830000D02*
X173115000Y-98830000D01*
X177365000Y-98432929D02*
X177365000Y-98830000D01*
%TO.C,R8*%
X183022936Y-94765000D02*
X183477064Y-94765000D01*
X183022936Y-96235000D02*
X183477064Y-96235000D01*
%TO.C,R11*%
X152765000Y-94772936D02*
X152765000Y-95227064D01*
X154235000Y-94772936D02*
X154235000Y-95227064D01*
%TO.C,J1*%
X129430000Y-61670000D02*
X130760000Y-61670000D01*
X132030000Y-64330000D02*
X152410000Y-64330000D01*
X132030000Y-61670000D02*
X152410000Y-61670000D01*
X152410000Y-64330000D02*
X152410000Y-61670000D01*
X132030000Y-64330000D02*
X132030000Y-61670000D01*
X129430000Y-63000000D02*
X129430000Y-61670000D01*
%TO.C,R1*%
X175772936Y-67765000D02*
X176227064Y-67765000D01*
X175772936Y-69235000D02*
X176227064Y-69235000D01*
%TO.C,G\u002A\u002A\u002A*%
G36*
X127507045Y-96617161D02*
G01*
X127553502Y-96644904D01*
X127586341Y-96691466D01*
X127587202Y-96693335D01*
X127604136Y-96736862D01*
X127608248Y-96770120D01*
X127599868Y-96802115D01*
X127591809Y-96819082D01*
X127557160Y-96861762D01*
X127507059Y-96889297D01*
X127445400Y-96899590D01*
X127442243Y-96899615D01*
X127406302Y-96897588D01*
X127380207Y-96888430D01*
X127353776Y-96867628D01*
X127340153Y-96854361D01*
X127312473Y-96823549D01*
X127298906Y-96797333D01*
X127294910Y-96766294D01*
X127294855Y-96760442D01*
X127304226Y-96699032D01*
X127331361Y-96652233D01*
X127374795Y-96621520D01*
X127433062Y-96608367D01*
X127446532Y-96607973D01*
X127507045Y-96617161D01*
G37*
G36*
X131515256Y-97107641D02*
G01*
X131559099Y-97134152D01*
X131593597Y-97178335D01*
X131594537Y-97180128D01*
X131611324Y-97233622D01*
X131608716Y-97285367D01*
X131589959Y-97332172D01*
X131558299Y-97370847D01*
X131516982Y-97398202D01*
X131469252Y-97411045D01*
X131418357Y-97406189D01*
X131381267Y-97389754D01*
X131341451Y-97355868D01*
X131311767Y-97312266D01*
X131297414Y-97267105D01*
X131296828Y-97257278D01*
X131306413Y-97201162D01*
X131332461Y-97156030D01*
X131370671Y-97122997D01*
X131416740Y-97103178D01*
X131466369Y-97097688D01*
X131515256Y-97107641D01*
G37*
G36*
X127982495Y-99324186D02*
G01*
X128031303Y-99349448D01*
X128071584Y-99391542D01*
X128077087Y-99400040D01*
X128089384Y-99427770D01*
X128097435Y-99459856D01*
X128100336Y-99489109D01*
X128097185Y-99508343D01*
X128091158Y-99512035D01*
X128078278Y-99505907D01*
X128049699Y-99490063D01*
X128009659Y-99466911D01*
X127962823Y-99439114D01*
X127916427Y-99410594D01*
X127878421Y-99385965D01*
X127852718Y-99367852D01*
X127843232Y-99358882D01*
X127843232Y-99358869D01*
X127852537Y-99348452D01*
X127875406Y-99333844D01*
X127880033Y-99331384D01*
X127930343Y-99317563D01*
X127982495Y-99324186D01*
G37*
G36*
X126640676Y-95530456D02*
G01*
X126641238Y-95546236D01*
X126648379Y-95581684D01*
X126666376Y-95627602D01*
X126691427Y-95676306D01*
X126719732Y-95720112D01*
X126738444Y-95742708D01*
X126804110Y-95795930D01*
X126878284Y-95829888D01*
X126957142Y-95844922D01*
X127036865Y-95841372D01*
X127113631Y-95819580D01*
X127183619Y-95779886D01*
X127243009Y-95722630D01*
X127262214Y-95696015D01*
X127284061Y-95663668D01*
X127300303Y-95646933D01*
X127317740Y-95641656D01*
X127343170Y-95643686D01*
X127347015Y-95644214D01*
X127387130Y-95649533D01*
X127435509Y-95655630D01*
X127458200Y-95658383D01*
X127497438Y-95664305D01*
X127528815Y-95671231D01*
X127540493Y-95675323D01*
X127551311Y-95690810D01*
X127563503Y-95727359D01*
X127577310Y-95785804D01*
X127586833Y-95833627D01*
X127602404Y-95908744D01*
X127616778Y-95962563D01*
X127630534Y-95997051D01*
X127638715Y-96009264D01*
X127648716Y-96018465D01*
X127662762Y-96026196D01*
X127684030Y-96033137D01*
X127715693Y-96039971D01*
X127760927Y-96047380D01*
X127822908Y-96056045D01*
X127904810Y-96066650D01*
X127907396Y-96066979D01*
X127980160Y-96076316D01*
X128044658Y-96084786D01*
X128097456Y-96091923D01*
X128135122Y-96097261D01*
X128154221Y-96100331D01*
X128155871Y-96100772D01*
X128155288Y-96112445D01*
X128152008Y-96143592D01*
X128146504Y-96190572D01*
X128139252Y-96249741D01*
X128130725Y-96317457D01*
X128121400Y-96390076D01*
X128111750Y-96463956D01*
X128102250Y-96535453D01*
X128093374Y-96600925D01*
X128085598Y-96656729D01*
X128079395Y-96699222D01*
X128075241Y-96724760D01*
X128073822Y-96730588D01*
X128061756Y-96730153D01*
X128031081Y-96727233D01*
X127986332Y-96722304D01*
X127932047Y-96715839D01*
X127927814Y-96715317D01*
X127866820Y-96707307D01*
X127825550Y-96700456D01*
X127800484Y-96693845D01*
X127788104Y-96686557D01*
X127784888Y-96678017D01*
X127779885Y-96658051D01*
X127766785Y-96624766D01*
X127748845Y-96586241D01*
X127701498Y-96514478D01*
X127642141Y-96460348D01*
X127573968Y-96423782D01*
X127500170Y-96404709D01*
X127423941Y-96403060D01*
X127348473Y-96418765D01*
X127276959Y-96451753D01*
X127212591Y-96501956D01*
X127158562Y-96569303D01*
X127141318Y-96599546D01*
X127121165Y-96657565D01*
X127110838Y-96734910D01*
X127110675Y-96737564D01*
X127108906Y-96787500D01*
X127111896Y-96824586D01*
X127121370Y-96859110D01*
X127137598Y-96898129D01*
X127184999Y-96976264D01*
X127249485Y-97038829D01*
X127316762Y-97078649D01*
X127383251Y-97098490D01*
X127458335Y-97104031D01*
X127532539Y-97095355D01*
X127589201Y-97076216D01*
X127622288Y-97055740D01*
X127659218Y-97026141D01*
X127695186Y-96992216D01*
X127725383Y-96958760D01*
X127745003Y-96930570D01*
X127749885Y-96915898D01*
X127759503Y-96902338D01*
X127771189Y-96899658D01*
X127790200Y-96901148D01*
X127824742Y-96905107D01*
X127869277Y-96910770D01*
X127918267Y-96917374D01*
X127966172Y-96924153D01*
X128007455Y-96930342D01*
X128036576Y-96935177D01*
X128047984Y-96937873D01*
X128047398Y-96950230D01*
X128043879Y-96982012D01*
X128037942Y-97029564D01*
X128030101Y-97089233D01*
X128020871Y-97157363D01*
X128010765Y-97230301D01*
X128000298Y-97304393D01*
X127989986Y-97375984D01*
X127980341Y-97441420D01*
X127971878Y-97497047D01*
X127965113Y-97539211D01*
X127960559Y-97564257D01*
X127959054Y-97569605D01*
X127945982Y-97570109D01*
X127913362Y-97567748D01*
X127864757Y-97562886D01*
X127803729Y-97555886D01*
X127733841Y-97547112D01*
X127717483Y-97544960D01*
X127634041Y-97534202D01*
X127570516Y-97526846D01*
X127523771Y-97522688D01*
X127490668Y-97521525D01*
X127468071Y-97523153D01*
X127452841Y-97527371D01*
X127451982Y-97527752D01*
X127435834Y-97539712D01*
X127417477Y-97563288D01*
X127395071Y-97601423D01*
X127366776Y-97657059D01*
X127352208Y-97687376D01*
X127324391Y-97746348D01*
X127303479Y-97787504D01*
X127285308Y-97813571D01*
X127265713Y-97827274D01*
X127240529Y-97831340D01*
X127205590Y-97828493D01*
X127156733Y-97821460D01*
X127149013Y-97820363D01*
X127088679Y-97811637D01*
X127047746Y-97804716D01*
X127022472Y-97798412D01*
X127009117Y-97791537D01*
X127003939Y-97782904D01*
X127003170Y-97774060D01*
X126994826Y-97735642D01*
X126972363Y-97688950D01*
X126939634Y-97640593D01*
X126900492Y-97597182D01*
X126899538Y-97596286D01*
X126828876Y-97545158D01*
X126749955Y-97515433D01*
X126664906Y-97507889D01*
X126658600Y-97508223D01*
X126594778Y-97512199D01*
X126595795Y-96841321D01*
X126596421Y-96613801D01*
X126597573Y-96407402D01*
X126599245Y-96222362D01*
X126601432Y-96058916D01*
X126604128Y-95917302D01*
X126607327Y-95797755D01*
X126611025Y-95700512D01*
X126615214Y-95625809D01*
X126619889Y-95573882D01*
X126625046Y-95544968D01*
X126626919Y-95540403D01*
X126637153Y-95525096D01*
X126640676Y-95530456D01*
G37*
G36*
X128597848Y-98301332D02*
G01*
X128645801Y-98306268D01*
X128705716Y-98313019D01*
X128773874Y-98321115D01*
X128846559Y-98330087D01*
X128920055Y-98339464D01*
X128990645Y-98348777D01*
X129054612Y-98357557D01*
X129108239Y-98365333D01*
X129147809Y-98371635D01*
X129169607Y-98375994D01*
X129172566Y-98377131D01*
X129173146Y-98389668D01*
X129171229Y-98419831D01*
X129167412Y-98462116D01*
X129162292Y-98511019D01*
X129156467Y-98561036D01*
X129150532Y-98606665D01*
X129145085Y-98642402D01*
X129142167Y-98657385D01*
X129129027Y-98677548D01*
X129097909Y-98691937D01*
X129087155Y-98694886D01*
X129029411Y-98718301D01*
X128971159Y-98757003D01*
X128921215Y-98804888D01*
X128912226Y-98816038D01*
X128871998Y-98887309D01*
X128850597Y-98968163D01*
X128848768Y-99053431D01*
X128866177Y-99134810D01*
X128897024Y-99195370D01*
X128944634Y-99253300D01*
X129002685Y-99302570D01*
X129064854Y-99337149D01*
X129086073Y-99344565D01*
X129178746Y-99360713D01*
X129267204Y-99355339D01*
X129348794Y-99329606D01*
X129420861Y-99284678D01*
X129480753Y-99221717D01*
X129520447Y-99154150D01*
X129535915Y-99116505D01*
X129543917Y-99083184D01*
X129545965Y-99044483D01*
X129544233Y-99001465D01*
X129529192Y-98912077D01*
X129495917Y-98835967D01*
X129445163Y-98774386D01*
X129380902Y-98730209D01*
X129350547Y-98710945D01*
X129340467Y-98693469D01*
X129341280Y-98687143D01*
X129345066Y-98667560D01*
X129350566Y-98630778D01*
X129356922Y-98582794D01*
X129361095Y-98548534D01*
X129367770Y-98497312D01*
X129374588Y-98454237D01*
X129380588Y-98424955D01*
X129383664Y-98415877D01*
X129392243Y-98412243D01*
X129413205Y-98411303D01*
X129448520Y-98413229D01*
X129500158Y-98418192D01*
X129570087Y-98426364D01*
X129660278Y-98437915D01*
X129704337Y-98443771D01*
X129786793Y-98454922D01*
X129861310Y-98465198D01*
X129924865Y-98474166D01*
X129974437Y-98481394D01*
X130007004Y-98486448D01*
X130019543Y-98488895D01*
X130019577Y-98488922D01*
X130019058Y-98500949D01*
X130015792Y-98532631D01*
X130010189Y-98580500D01*
X130002659Y-98641091D01*
X129993613Y-98710938D01*
X129990895Y-98731445D01*
X129978833Y-98826784D01*
X129970961Y-98900548D01*
X129967172Y-98954096D01*
X129967360Y-98988791D01*
X129969711Y-99002323D01*
X129977855Y-99017239D01*
X129994146Y-99032697D01*
X130021870Y-99050835D01*
X130064316Y-99073793D01*
X130124772Y-99103708D01*
X130128023Y-99105279D01*
X130181335Y-99131114D01*
X130226522Y-99153210D01*
X130259722Y-99169665D01*
X130277074Y-99178574D01*
X130278682Y-99179550D01*
X130278384Y-99191593D01*
X130275223Y-99221797D01*
X130269763Y-99265245D01*
X130264419Y-99304110D01*
X130257268Y-99354986D01*
X130251517Y-99396981D01*
X130247867Y-99424909D01*
X130246930Y-99433481D01*
X130236684Y-99440964D01*
X130211980Y-99448775D01*
X130208797Y-99449489D01*
X130137046Y-99476203D01*
X130070016Y-99522543D01*
X130012314Y-99584800D01*
X129981986Y-99632057D01*
X129967780Y-99674316D01*
X129960410Y-99730957D01*
X129959746Y-99794094D01*
X129965657Y-99855840D01*
X129978014Y-99908307D01*
X129986903Y-99929228D01*
X130012774Y-99977769D01*
X129817143Y-100088485D01*
X129751431Y-100124787D01*
X129688083Y-100158172D01*
X129631611Y-100186382D01*
X129586527Y-100207160D01*
X129558638Y-100217873D01*
X129464912Y-100234528D01*
X129372513Y-100229329D01*
X129317528Y-100215058D01*
X129295574Y-100205084D01*
X129255766Y-100184485D01*
X129200338Y-100154508D01*
X129131523Y-100116402D01*
X129051556Y-100071415D01*
X128962671Y-100020794D01*
X128867101Y-99965790D01*
X128767080Y-99907648D01*
X128761423Y-99904342D01*
X128648775Y-99838474D01*
X128554660Y-99783302D01*
X128477459Y-99737758D01*
X128415555Y-99700771D01*
X128367327Y-99671273D01*
X128331158Y-99648194D01*
X128305430Y-99630464D01*
X128288524Y-99617014D01*
X128278821Y-99606774D01*
X128274704Y-99598674D01*
X128274553Y-99591646D01*
X128276750Y-99584620D01*
X128276922Y-99584175D01*
X128287460Y-99536185D01*
X128289467Y-99476139D01*
X128283440Y-99413499D01*
X128269874Y-99357729D01*
X128264288Y-99343476D01*
X128233969Y-99289986D01*
X128194186Y-99240804D01*
X128150957Y-99202580D01*
X128121588Y-99185790D01*
X128106030Y-99178590D01*
X128095874Y-99169536D01*
X128090642Y-99154561D01*
X128089856Y-99129596D01*
X128093040Y-99090576D01*
X128099716Y-99033432D01*
X128101754Y-99016816D01*
X128109602Y-98961449D01*
X128117446Y-98925987D01*
X128126235Y-98907023D01*
X128133839Y-98901625D01*
X128152259Y-98897499D01*
X128188272Y-98890239D01*
X128236517Y-98880905D01*
X128286587Y-98871489D01*
X128358682Y-98856861D01*
X128410686Y-98842996D01*
X128445755Y-98828598D01*
X128467040Y-98812372D01*
X128477697Y-98793024D01*
X128477701Y-98793010D01*
X128481056Y-98775459D01*
X128486787Y-98738629D01*
X128494335Y-98686394D01*
X128503145Y-98622626D01*
X128512658Y-98551195D01*
X128514258Y-98538933D01*
X128523862Y-98467721D01*
X128533025Y-98404600D01*
X128541173Y-98353158D01*
X128547731Y-98316983D01*
X128552125Y-98299666D01*
X128552691Y-98298784D01*
X128565572Y-98298681D01*
X128597848Y-98301332D01*
G37*
G36*
X130720721Y-98102460D02*
G01*
X130751579Y-98105006D01*
X130796565Y-98109535D01*
X130851176Y-98115514D01*
X130910910Y-98122408D01*
X130971264Y-98129683D01*
X131027734Y-98136804D01*
X131075818Y-98143238D01*
X131111012Y-98148450D01*
X131128815Y-98151905D01*
X131130037Y-98152448D01*
X131133037Y-98164164D01*
X131139535Y-98194567D01*
X131148658Y-98239424D01*
X131159532Y-98294500D01*
X131162919Y-98311937D01*
X131179883Y-98392028D01*
X131195324Y-98449172D01*
X131209204Y-98483232D01*
X131214583Y-98490647D01*
X131229487Y-98500506D01*
X131255736Y-98509562D01*
X131296527Y-98518556D01*
X131355052Y-98528230D01*
X131410577Y-98536115D01*
X131585291Y-98559865D01*
X131604504Y-98620816D01*
X131639615Y-98695069D01*
X131692584Y-98758178D01*
X131759444Y-98807253D01*
X131836225Y-98839401D01*
X131918959Y-98851730D01*
X131921409Y-98851763D01*
X131997274Y-98852476D01*
X131964967Y-98872442D01*
X131949226Y-98881637D01*
X131915017Y-98901240D01*
X131864199Y-98930199D01*
X131798629Y-98967459D01*
X131720166Y-99011966D01*
X131630666Y-99062667D01*
X131531988Y-99118508D01*
X131425991Y-99178435D01*
X131314530Y-99241395D01*
X131308452Y-99244826D01*
X131196574Y-99308018D01*
X131089918Y-99368310D01*
X130990363Y-99424638D01*
X130899785Y-99475937D01*
X130820062Y-99521144D01*
X130753070Y-99559194D01*
X130700687Y-99589022D01*
X130664790Y-99609565D01*
X130647255Y-99619756D01*
X130646925Y-99619956D01*
X130609606Y-99642667D01*
X130592613Y-99609805D01*
X130567964Y-99574443D01*
X130528252Y-99531794D01*
X130478227Y-99486895D01*
X130471750Y-99481591D01*
X130445935Y-99460660D01*
X130470106Y-99287248D01*
X130479705Y-99214422D01*
X130485294Y-99161045D01*
X130487064Y-99123612D01*
X130485208Y-99098619D01*
X130481190Y-99085113D01*
X130467681Y-99068501D01*
X130439462Y-99048094D01*
X130394228Y-99022464D01*
X130329677Y-98990184D01*
X130322407Y-98986697D01*
X130263232Y-98957887D01*
X130222263Y-98936388D01*
X130196347Y-98920109D01*
X130182333Y-98906956D01*
X130177072Y-98894839D01*
X130176711Y-98889966D01*
X130178237Y-98869107D01*
X130182433Y-98830026D01*
X130188727Y-98777612D01*
X130196548Y-98716751D01*
X130200046Y-98690609D01*
X130208237Y-98629528D01*
X130215170Y-98576683D01*
X130220294Y-98536376D01*
X130223056Y-98512911D01*
X130223381Y-98508960D01*
X130234137Y-98504840D01*
X130262786Y-98501991D01*
X130303901Y-98500863D01*
X130319860Y-98500953D01*
X130374654Y-98500302D01*
X130415657Y-98495469D01*
X130452278Y-98484800D01*
X130481296Y-98472536D01*
X130558534Y-98426491D01*
X130618075Y-98366571D01*
X130660902Y-98291409D01*
X130687992Y-98199644D01*
X130691462Y-98180091D01*
X130698330Y-98141598D01*
X130704618Y-98113376D01*
X130708495Y-98102433D01*
X130720721Y-98102460D01*
G37*
G36*
X128135098Y-97663506D02*
G01*
X128147205Y-97562967D01*
X128160837Y-97451238D01*
X128175743Y-97330310D01*
X128191670Y-97202173D01*
X128208368Y-97068818D01*
X128225585Y-96932238D01*
X128243069Y-96794422D01*
X128260570Y-96657363D01*
X128277835Y-96523050D01*
X128294612Y-96393475D01*
X128310652Y-96270630D01*
X128325701Y-96156504D01*
X128339509Y-96053090D01*
X128351823Y-95962377D01*
X128362393Y-95886359D01*
X128370967Y-95827024D01*
X128375238Y-95799059D01*
X128393374Y-95749551D01*
X128427813Y-95704559D01*
X128471931Y-95671659D01*
X128494766Y-95662339D01*
X128505409Y-95660524D01*
X128522178Y-95659906D01*
X128546456Y-95660643D01*
X128579622Y-95662893D01*
X128623057Y-95666816D01*
X128678144Y-95672569D01*
X128746262Y-95680311D01*
X128828793Y-95690200D01*
X128927117Y-95702396D01*
X129042616Y-95717055D01*
X129176670Y-95734338D01*
X129330661Y-95754403D01*
X129505970Y-95777407D01*
X129564171Y-95785069D01*
X129717165Y-95805244D01*
X129864138Y-95824665D01*
X130003360Y-95843101D01*
X130133104Y-95860321D01*
X130251639Y-95876095D01*
X130357237Y-95890192D01*
X130448170Y-95902380D01*
X130522709Y-95912430D01*
X130579124Y-95920110D01*
X130615687Y-95925190D01*
X130630189Y-95927348D01*
X130675973Y-95945586D01*
X130718734Y-95979604D01*
X130750707Y-96022334D01*
X130760625Y-96046101D01*
X130761347Y-96065308D01*
X130759003Y-96105591D01*
X130753860Y-96164933D01*
X130746183Y-96241314D01*
X130736237Y-96332714D01*
X130724287Y-96437115D01*
X130710599Y-96552498D01*
X130695437Y-96676844D01*
X130679066Y-96808133D01*
X130661753Y-96944347D01*
X130643762Y-97083466D01*
X130625358Y-97223472D01*
X130606807Y-97362346D01*
X130588373Y-97498067D01*
X130570323Y-97628618D01*
X130552920Y-97751980D01*
X130536431Y-97866132D01*
X130521120Y-97969057D01*
X130507253Y-98058735D01*
X130495094Y-98133146D01*
X130484910Y-98190273D01*
X130476965Y-98228096D01*
X130471949Y-98243962D01*
X130435375Y-98285799D01*
X130384648Y-98316096D01*
X130351723Y-98326173D01*
X130336066Y-98325535D01*
X130298974Y-98321998D01*
X130242137Y-98315770D01*
X130167248Y-98307061D01*
X130075996Y-98296077D01*
X129970075Y-98283028D01*
X129851174Y-98268122D01*
X129720986Y-98251568D01*
X129581202Y-98233573D01*
X129433513Y-98214346D01*
X129279610Y-98194095D01*
X129279478Y-98194077D01*
X129125414Y-98173596D01*
X128977482Y-98153730D01*
X128837385Y-98134720D01*
X128706825Y-98116804D01*
X128587503Y-98100224D01*
X128481122Y-98085219D01*
X128389383Y-98072030D01*
X128313988Y-98060896D01*
X128256639Y-98052057D01*
X128219037Y-98045754D01*
X128202921Y-98042241D01*
X128162103Y-98015458D01*
X128127478Y-97975496D01*
X128106945Y-97931633D01*
X128106239Y-97928656D01*
X128106949Y-97913935D01*
X128110441Y-97878069D01*
X128116465Y-97823048D01*
X128124602Y-97752299D01*
X128407112Y-97752299D01*
X128407362Y-97754695D01*
X128422151Y-97782731D01*
X128441503Y-97798667D01*
X128456788Y-97801924D01*
X128492969Y-97807869D01*
X128547799Y-97816201D01*
X128619032Y-97826616D01*
X128704420Y-97838813D01*
X128801718Y-97852488D01*
X128908679Y-97867340D01*
X129023056Y-97883065D01*
X129142603Y-97899362D01*
X129265072Y-97915928D01*
X129388218Y-97932461D01*
X129509793Y-97948658D01*
X129627551Y-97964216D01*
X129739246Y-97978833D01*
X129842631Y-97992207D01*
X129935460Y-98004036D01*
X130015484Y-98014016D01*
X130080459Y-98021846D01*
X130128138Y-98027222D01*
X130156273Y-98029843D01*
X130160093Y-98030035D01*
X130199499Y-98026289D01*
X130227163Y-98010022D01*
X130231979Y-98005148D01*
X130236874Y-97998231D01*
X130241784Y-97987157D01*
X130246952Y-97970351D01*
X130252625Y-97946239D01*
X130259046Y-97913246D01*
X130266461Y-97869800D01*
X130275115Y-97814325D01*
X130285252Y-97745247D01*
X130297119Y-97660993D01*
X130310960Y-97559987D01*
X130327019Y-97440657D01*
X130345542Y-97301427D01*
X130366775Y-97140725D01*
X130368188Y-97130001D01*
X130386407Y-96991456D01*
X130403705Y-96859335D01*
X130419840Y-96735510D01*
X130434572Y-96621854D01*
X130447662Y-96520238D01*
X130458869Y-96432535D01*
X130467952Y-96360617D01*
X130474671Y-96306355D01*
X130478785Y-96271624D01*
X130480064Y-96258511D01*
X130472673Y-96234407D01*
X130454787Y-96207115D01*
X130453813Y-96205989D01*
X130445814Y-96197787D01*
X130435866Y-96190745D01*
X130421511Y-96184382D01*
X130400292Y-96178219D01*
X130369751Y-96171775D01*
X130327431Y-96164571D01*
X130270874Y-96156127D01*
X130197622Y-96145964D01*
X130105220Y-96133601D01*
X130036702Y-96124551D01*
X129833188Y-96097737D01*
X129651530Y-96073826D01*
X129490451Y-96052667D01*
X129348672Y-96034104D01*
X129224918Y-96017986D01*
X129117910Y-96004159D01*
X129026370Y-95992469D01*
X128949022Y-95982764D01*
X128884587Y-95974890D01*
X128831788Y-95968693D01*
X128789348Y-95964022D01*
X128755989Y-95960721D01*
X128730433Y-95958639D01*
X128711404Y-95957622D01*
X128697623Y-95957516D01*
X128687813Y-95958169D01*
X128680697Y-95959427D01*
X128674997Y-95961137D01*
X128674864Y-95961183D01*
X128648703Y-95977949D01*
X128631533Y-96009984D01*
X128628664Y-96018973D01*
X128623886Y-96041609D01*
X128616725Y-96084474D01*
X128607468Y-96145320D01*
X128596401Y-96221899D01*
X128583811Y-96311962D01*
X128569984Y-96413262D01*
X128555208Y-96523550D01*
X128539769Y-96640577D01*
X128523953Y-96762097D01*
X128508047Y-96885861D01*
X128492339Y-97009620D01*
X128477113Y-97131126D01*
X128462658Y-97248132D01*
X128449260Y-97358388D01*
X128437204Y-97459647D01*
X128426779Y-97549661D01*
X128418271Y-97626181D01*
X128411966Y-97686960D01*
X128408151Y-97729748D01*
X128407112Y-97752299D01*
X128124602Y-97752299D01*
X128124767Y-97750863D01*
X128135098Y-97663506D01*
G37*
G36*
X130342985Y-99639433D02*
G01*
X130362925Y-99648920D01*
X130384186Y-99666049D01*
X130406168Y-99690334D01*
X130423962Y-99715258D01*
X130432656Y-99734306D01*
X130431615Y-99740077D01*
X130417970Y-99748944D01*
X130389236Y-99765750D01*
X130350202Y-99787859D01*
X130305657Y-99812635D01*
X130260389Y-99837442D01*
X130219187Y-99859643D01*
X130186840Y-99876602D01*
X130168138Y-99885684D01*
X130165585Y-99886521D01*
X130155291Y-99876871D01*
X130142479Y-99853262D01*
X130140870Y-99849492D01*
X130127899Y-99795417D01*
X130131496Y-99742278D01*
X130147030Y-99704820D01*
X130185528Y-99664869D01*
X130235436Y-99639510D01*
X130290130Y-99630460D01*
X130342985Y-99639433D01*
G37*
G36*
X128834431Y-96154425D02*
G01*
X128871781Y-96158660D01*
X128926940Y-96165333D01*
X128997516Y-96174127D01*
X129081118Y-96184728D01*
X129175354Y-96196819D01*
X129277833Y-96210085D01*
X129386164Y-96224210D01*
X129497956Y-96238879D01*
X129610817Y-96253775D01*
X129722356Y-96268582D01*
X129830183Y-96282986D01*
X129931905Y-96296670D01*
X130025132Y-96309319D01*
X130107472Y-96320617D01*
X130176534Y-96330248D01*
X130229927Y-96337897D01*
X130265260Y-96343247D01*
X130280141Y-96345983D01*
X130280446Y-96346127D01*
X130279823Y-96358239D01*
X130276370Y-96391510D01*
X130270330Y-96443970D01*
X130261947Y-96513648D01*
X130251465Y-96598572D01*
X130239127Y-96696771D01*
X130225178Y-96806274D01*
X130209861Y-96925108D01*
X130193420Y-97051304D01*
X130189993Y-97077443D01*
X130173258Y-97205228D01*
X130157463Y-97326309D01*
X130142867Y-97438678D01*
X130129728Y-97540329D01*
X130118303Y-97629255D01*
X130108850Y-97703450D01*
X130101627Y-97760906D01*
X130096891Y-97799617D01*
X130094900Y-97817576D01*
X130094853Y-97818469D01*
X130091722Y-97825792D01*
X130080287Y-97830022D01*
X130057822Y-97831046D01*
X130021600Y-97828754D01*
X129968896Y-97823035D01*
X129896983Y-97813779D01*
X129861691Y-97808987D01*
X129817171Y-97802947D01*
X129752698Y-97794290D01*
X129671455Y-97783439D01*
X129576623Y-97770818D01*
X129471387Y-97756849D01*
X129358928Y-97741956D01*
X129242429Y-97726561D01*
X129152894Y-97714754D01*
X128601608Y-97642116D01*
X128601655Y-97612160D01*
X128603161Y-97595473D01*
X128607486Y-97557751D01*
X128614364Y-97501091D01*
X128623529Y-97427587D01*
X128634715Y-97339335D01*
X128647657Y-97238430D01*
X128662090Y-97126969D01*
X128677746Y-97007047D01*
X128694362Y-96880759D01*
X128694947Y-96876324D01*
X128711538Y-96750600D01*
X128727185Y-96631758D01*
X128741627Y-96521814D01*
X128754601Y-96422783D01*
X128765843Y-96336679D01*
X128775090Y-96265518D01*
X128782080Y-96211315D01*
X128786548Y-96176085D01*
X128788233Y-96161843D01*
X128788240Y-96161693D01*
X128798274Y-96155096D01*
X128817279Y-96152943D01*
X128834431Y-96154425D01*
G37*
G36*
X130831141Y-94493784D02*
G01*
X130859400Y-94506520D01*
X130898009Y-94526143D01*
X130942197Y-94549998D01*
X130987191Y-94575428D01*
X131028221Y-94599779D01*
X131060515Y-94620393D01*
X131079302Y-94634615D01*
X131081668Y-94637360D01*
X131078151Y-94650485D01*
X131058142Y-94665790D01*
X131027892Y-94680234D01*
X130993653Y-94690780D01*
X130964263Y-94694426D01*
X130923375Y-94688669D01*
X130885291Y-94674599D01*
X130881657Y-94672513D01*
X130853714Y-94647443D01*
X130830226Y-94612162D01*
X130813281Y-94572645D01*
X130804972Y-94534867D01*
X130807389Y-94504804D01*
X130818002Y-94490592D01*
X130831141Y-94493784D01*
G37*
G36*
X127579143Y-97732118D02*
G01*
X127626026Y-97737274D01*
X127684496Y-97744393D01*
X127736077Y-97751096D01*
X127932971Y-97777346D01*
X127932425Y-97878121D01*
X127935346Y-97950550D01*
X127946720Y-98008229D01*
X127969118Y-98058991D01*
X128005112Y-98110669D01*
X128011317Y-98118343D01*
X128072290Y-98174512D01*
X128150238Y-98215573D01*
X128243767Y-98240810D01*
X128252358Y-98242198D01*
X128294453Y-98249040D01*
X128326427Y-98254941D01*
X128342298Y-98258783D01*
X128342963Y-98259148D01*
X128343454Y-98272034D01*
X128340803Y-98303396D01*
X128335658Y-98348687D01*
X128328667Y-98403357D01*
X128320477Y-98462859D01*
X128311737Y-98522644D01*
X128303095Y-98578164D01*
X128295199Y-98624871D01*
X128288697Y-98658216D01*
X128284237Y-98673650D01*
X128283837Y-98674107D01*
X128269158Y-98678666D01*
X128236181Y-98686214D01*
X128189601Y-98695750D01*
X128134111Y-98706273D01*
X128126595Y-98707641D01*
X128056270Y-98720809D01*
X128005217Y-98733399D01*
X127969781Y-98749183D01*
X127946307Y-98771932D01*
X127931142Y-98805417D01*
X127920630Y-98853410D01*
X127911118Y-98919680D01*
X127909522Y-98931649D01*
X127902019Y-98989807D01*
X127895840Y-99041311D01*
X127891597Y-99080794D01*
X127889902Y-99102894D01*
X127889895Y-99103631D01*
X127884247Y-99120692D01*
X127864590Y-99137128D01*
X127826855Y-99156239D01*
X127822807Y-99158038D01*
X127778335Y-99181417D01*
X127735873Y-99209802D01*
X127714554Y-99227736D01*
X127673390Y-99267828D01*
X127282859Y-99039616D01*
X127193212Y-98986962D01*
X127107595Y-98936169D01*
X127028661Y-98888847D01*
X126959061Y-98846608D01*
X126901447Y-98811060D01*
X126858470Y-98783815D01*
X126832781Y-98766483D01*
X126831290Y-98765376D01*
X126753780Y-98693100D01*
X126688257Y-98604098D01*
X126636819Y-98502778D01*
X126601561Y-98393548D01*
X126584580Y-98280816D01*
X126583345Y-98243928D01*
X126583142Y-98182272D01*
X126639884Y-98189799D01*
X126714427Y-98188718D01*
X126790632Y-98168223D01*
X126862671Y-98131003D01*
X126924716Y-98079743D01*
X126953354Y-98045303D01*
X126984537Y-98001504D01*
X127162782Y-98024390D01*
X127233672Y-98033119D01*
X127285328Y-98038401D01*
X127321575Y-98040381D01*
X127346236Y-98039203D01*
X127363136Y-98035014D01*
X127369179Y-98032210D01*
X127388709Y-98013080D01*
X127414614Y-97972958D01*
X127447197Y-97911344D01*
X127464576Y-97875512D01*
X127489561Y-97823115D01*
X127510906Y-97778784D01*
X127526658Y-97746537D01*
X127534868Y-97730397D01*
X127535502Y-97729362D01*
X127547687Y-97729342D01*
X127579143Y-97732118D01*
G37*
G36*
X127028591Y-95344976D02*
G01*
X127078308Y-95371703D01*
X127118591Y-95417540D01*
X127126786Y-95431899D01*
X127142365Y-95483184D01*
X127138090Y-95532557D01*
X127117415Y-95577006D01*
X127083796Y-95613513D01*
X127040686Y-95639066D01*
X126991541Y-95650649D01*
X126939815Y-95645246D01*
X126901646Y-95628381D01*
X126859668Y-95590724D01*
X126835274Y-95543228D01*
X126828194Y-95491066D01*
X126838160Y-95439413D01*
X126864900Y-95393445D01*
X126908148Y-95358336D01*
X126915911Y-95354388D01*
X126973204Y-95338744D01*
X127028591Y-95344976D01*
G37*
G36*
X131655142Y-94965849D02*
G01*
X131759858Y-95026968D01*
X131846534Y-95078046D01*
X131917431Y-95120553D01*
X131974809Y-95155958D01*
X132020927Y-95185732D01*
X132058045Y-95211342D01*
X132088423Y-95234260D01*
X132114320Y-95255954D01*
X132137996Y-95277893D01*
X132143966Y-95283719D01*
X132220823Y-95371899D01*
X132277960Y-95466972D01*
X132316868Y-95572301D01*
X132339034Y-95691250D01*
X132342848Y-95732915D01*
X132349934Y-95832088D01*
X132240470Y-95832088D01*
X132186604Y-95832779D01*
X132148583Y-95835850D01*
X132118933Y-95842802D01*
X132090181Y-95855136D01*
X132068787Y-95866553D01*
X132012528Y-95903300D01*
X131968351Y-95947008D01*
X131938420Y-95988048D01*
X131920845Y-96014702D01*
X131745907Y-95991402D01*
X131673770Y-95982284D01*
X131620965Y-95976931D01*
X131583825Y-95975170D01*
X131558684Y-95976829D01*
X131541873Y-95981733D01*
X131541801Y-95981767D01*
X131524990Y-95995563D01*
X131504187Y-96024128D01*
X131477990Y-96069704D01*
X131444996Y-96134535D01*
X131440281Y-96144192D01*
X131413764Y-96197349D01*
X131390263Y-96241920D01*
X131371839Y-96274184D01*
X131360552Y-96290424D01*
X131358609Y-96291629D01*
X131344527Y-96289693D01*
X131311247Y-96285144D01*
X131262691Y-96278516D01*
X131202782Y-96270345D01*
X131146262Y-96262642D01*
X131080396Y-96253519D01*
X131023138Y-96245308D01*
X130978248Y-96238569D01*
X130949489Y-96233867D01*
X130940524Y-96231879D01*
X130940624Y-96219661D01*
X130943615Y-96191022D01*
X130947922Y-96158776D01*
X130950703Y-96066200D01*
X130931051Y-95978259D01*
X130900039Y-95911577D01*
X130847778Y-95842890D01*
X130779275Y-95790492D01*
X130695616Y-95755045D01*
X130616434Y-95739085D01*
X130578663Y-95734012D01*
X130559094Y-95728164D01*
X130552720Y-95718357D01*
X130554533Y-95701404D01*
X130554830Y-95699900D01*
X130558656Y-95676494D01*
X130564517Y-95635630D01*
X130571623Y-95583010D01*
X130579182Y-95524340D01*
X130579363Y-95522901D01*
X130586804Y-95464959D01*
X130593680Y-95413714D01*
X130599246Y-95374572D01*
X130602757Y-95352940D01*
X130602855Y-95352463D01*
X130607578Y-95341626D01*
X130619136Y-95332747D01*
X130641326Y-95324515D01*
X130677948Y-95315620D01*
X130732800Y-95304753D01*
X130751139Y-95301327D01*
X130822044Y-95287844D01*
X130873479Y-95276969D01*
X130908999Y-95267542D01*
X130932162Y-95258403D01*
X130946526Y-95248390D01*
X130955648Y-95236345D01*
X130956814Y-95234233D01*
X130962677Y-95214786D01*
X130970270Y-95177444D01*
X130978632Y-95127491D01*
X130986803Y-95070213D01*
X130987168Y-95067414D01*
X130996618Y-94995518D01*
X131003979Y-94943545D01*
X131010080Y-94908267D01*
X131015753Y-94886455D01*
X131021826Y-94874879D01*
X131029130Y-94870313D01*
X131038033Y-94869525D01*
X131068554Y-94862521D01*
X131109251Y-94844290D01*
X131152765Y-94819004D01*
X131191738Y-94790837D01*
X131214177Y-94769635D01*
X131249283Y-94729652D01*
X131655142Y-94965849D01*
G37*
G36*
X128308829Y-94403802D02*
G01*
X128331541Y-94433728D01*
X128362873Y-94468270D01*
X128395928Y-94500421D01*
X128423810Y-94523173D01*
X128430220Y-94527165D01*
X128438104Y-94532599D01*
X128443045Y-94541102D01*
X128444977Y-94556295D01*
X128443831Y-94581797D01*
X128439543Y-94621231D01*
X128432044Y-94678215D01*
X128426721Y-94716950D01*
X128417464Y-94785353D01*
X128411531Y-94834662D01*
X128408814Y-94868865D01*
X128409207Y-94891950D01*
X128412605Y-94907906D01*
X128418902Y-94920720D01*
X128421209Y-94924348D01*
X128441361Y-94943062D01*
X128480715Y-94968582D01*
X128536690Y-94999343D01*
X128583132Y-95022552D01*
X128725941Y-95091587D01*
X128699654Y-95286826D01*
X128690943Y-95351249D01*
X128683346Y-95406901D01*
X128677390Y-95449974D01*
X128673601Y-95476659D01*
X128672490Y-95483642D01*
X128661267Y-95484162D01*
X128631766Y-95484286D01*
X128589039Y-95484014D01*
X128557855Y-95483642D01*
X128502461Y-95483554D01*
X128462918Y-95485966D01*
X128431774Y-95492163D01*
X128401578Y-95503425D01*
X128377808Y-95514619D01*
X128304422Y-95561420D01*
X128248197Y-95622031D01*
X128208065Y-95698036D01*
X128182960Y-95791022D01*
X128180160Y-95808294D01*
X128173273Y-95852887D01*
X128165454Y-95879812D01*
X128151629Y-95892434D01*
X128126721Y-95894121D01*
X128085655Y-95888241D01*
X128064906Y-95884747D01*
X128030117Y-95879482D01*
X127980333Y-95872628D01*
X127923738Y-95865294D01*
X127893959Y-95861612D01*
X127775515Y-95847246D01*
X127745093Y-95687990D01*
X127731436Y-95617552D01*
X127718889Y-95565461D01*
X127703842Y-95528463D01*
X127682687Y-95503308D01*
X127651815Y-95486743D01*
X127607617Y-95475515D01*
X127546483Y-95466372D01*
X127491488Y-95459446D01*
X127322612Y-95438257D01*
X127302129Y-95380586D01*
X127265909Y-95311147D01*
X127211351Y-95249626D01*
X127143312Y-95201412D01*
X127138086Y-95198630D01*
X127100240Y-95181443D01*
X127063493Y-95171896D01*
X127018126Y-95167955D01*
X126989199Y-95167451D01*
X126948093Y-95166403D01*
X126919111Y-95163982D01*
X126907222Y-95160660D01*
X126907527Y-95159722D01*
X126918816Y-95152884D01*
X126948750Y-95135538D01*
X126995649Y-95108641D01*
X127057833Y-95073149D01*
X127133620Y-95030016D01*
X127221332Y-94980199D01*
X127319287Y-94924654D01*
X127425805Y-94864335D01*
X127539206Y-94800200D01*
X127603266Y-94764003D01*
X128290869Y-94375608D01*
X128308829Y-94403802D01*
G37*
G36*
X129581499Y-93777660D02*
G01*
X129596454Y-93781947D01*
X129613323Y-93787910D01*
X129633449Y-93796298D01*
X129658173Y-93807862D01*
X129688836Y-93823355D01*
X129726780Y-93843526D01*
X129773346Y-93869127D01*
X129829876Y-93900909D01*
X129897710Y-93939622D01*
X129978191Y-93986018D01*
X130072660Y-94040848D01*
X130182458Y-94104862D01*
X130308926Y-94178813D01*
X130453407Y-94263449D01*
X130541991Y-94315387D01*
X130595702Y-94348126D01*
X130630216Y-94372337D01*
X130647415Y-94389499D01*
X130649704Y-94399997D01*
X130630668Y-94466964D01*
X130622320Y-94535736D01*
X130623702Y-94577578D01*
X130641849Y-94649694D01*
X130676593Y-94718922D01*
X130723817Y-94779301D01*
X130779404Y-94824873D01*
X130803466Y-94837806D01*
X130822565Y-94850097D01*
X130828228Y-94868440D01*
X130825842Y-94892322D01*
X130821198Y-94926301D01*
X130815729Y-94972360D01*
X130811575Y-95011254D01*
X130806434Y-95052831D01*
X130800626Y-95085645D01*
X130795708Y-95101867D01*
X130781568Y-95109153D01*
X130749436Y-95118885D01*
X130704338Y-95129700D01*
X130660104Y-95138627D01*
X130585066Y-95153150D01*
X130529886Y-95165425D01*
X130491320Y-95176486D01*
X130466125Y-95187373D01*
X130451056Y-95199122D01*
X130445373Y-95207300D01*
X130440454Y-95224923D01*
X130433293Y-95261811D01*
X130424538Y-95314071D01*
X130414833Y-95377814D01*
X130404827Y-95449148D01*
X130403357Y-95460133D01*
X130393607Y-95531116D01*
X130384370Y-95594013D01*
X130376226Y-95645224D01*
X130369752Y-95681148D01*
X130365525Y-95698185D01*
X130365038Y-95698977D01*
X130351954Y-95699315D01*
X130318801Y-95696798D01*
X130268629Y-95691755D01*
X130204487Y-95684514D01*
X130129422Y-95675404D01*
X130046483Y-95664755D01*
X130040570Y-95663975D01*
X129957195Y-95652747D01*
X129881537Y-95642161D01*
X129816640Y-95632675D01*
X129765551Y-95624748D01*
X129731314Y-95618837D01*
X129716975Y-95615401D01*
X129716802Y-95615272D01*
X129715672Y-95601741D01*
X129717544Y-95569816D01*
X129722028Y-95524190D01*
X129728736Y-95469556D01*
X129729144Y-95466512D01*
X129737963Y-95405151D01*
X129745508Y-95363653D01*
X129752680Y-95338648D01*
X129760377Y-95326767D01*
X129767060Y-95324441D01*
X129798391Y-95317205D01*
X129839967Y-95298479D01*
X129884614Y-95272302D01*
X129925160Y-95242715D01*
X129945641Y-95223860D01*
X129995244Y-95159538D01*
X130024647Y-95089517D01*
X130035925Y-95008487D01*
X130036190Y-94992033D01*
X130029929Y-94916486D01*
X130009135Y-94852314D01*
X129970793Y-94791952D01*
X129943977Y-94760703D01*
X129879917Y-94706390D01*
X129808894Y-94671862D01*
X129733997Y-94655919D01*
X129658315Y-94657365D01*
X129584937Y-94675003D01*
X129516954Y-94707635D01*
X129457452Y-94754065D01*
X129409523Y-94813095D01*
X129376255Y-94883528D01*
X129360737Y-94964167D01*
X129359991Y-94987023D01*
X129369372Y-95079574D01*
X129397328Y-95158591D01*
X129443577Y-95223529D01*
X129507660Y-95273738D01*
X129538806Y-95294325D01*
X129553797Y-95312708D01*
X129557919Y-95335886D01*
X129557927Y-95340248D01*
X129556171Y-95368615D01*
X129551903Y-95409542D01*
X129545949Y-95457189D01*
X129539134Y-95505717D01*
X129532284Y-95549286D01*
X129526224Y-95582059D01*
X129521779Y-95598196D01*
X129521383Y-95598747D01*
X129508820Y-95598719D01*
X129476136Y-95595857D01*
X129426325Y-95590501D01*
X129362383Y-95582992D01*
X129287306Y-95573670D01*
X129204090Y-95562876D01*
X129192879Y-95561389D01*
X129097954Y-95548679D01*
X129023660Y-95538414D01*
X128967484Y-95530072D01*
X128926912Y-95523133D01*
X128899429Y-95517073D01*
X128882522Y-95511373D01*
X128873678Y-95505510D01*
X128870381Y-95498963D01*
X128870020Y-95494423D01*
X128871556Y-95475560D01*
X128875786Y-95437714D01*
X128882209Y-95385015D01*
X128890321Y-95321595D01*
X128899219Y-95254550D01*
X128910086Y-95170264D01*
X128917070Y-95106304D01*
X128920358Y-95060020D01*
X128920132Y-95028762D01*
X128916578Y-95009877D01*
X128916291Y-95009148D01*
X128904637Y-94993064D01*
X128880194Y-94973677D01*
X128840380Y-94949306D01*
X128782613Y-94918272D01*
X128754941Y-94904141D01*
X128605656Y-94828689D01*
X128642444Y-94574373D01*
X128689114Y-94560566D01*
X128772612Y-94524819D01*
X128841149Y-94473077D01*
X128893268Y-94408269D01*
X128927511Y-94333327D01*
X128942420Y-94251181D01*
X128936537Y-94164761D01*
X128918090Y-94100170D01*
X128905526Y-94065843D01*
X128897799Y-94041902D01*
X128896487Y-94034458D01*
X128910659Y-94025417D01*
X128941459Y-94007449D01*
X128984980Y-93982716D01*
X129037317Y-93953375D01*
X129094563Y-93921587D01*
X129152812Y-93889510D01*
X129208159Y-93859304D01*
X129256696Y-93833129D01*
X129294518Y-93813142D01*
X129317718Y-93801505D01*
X129318761Y-93801028D01*
X129410679Y-93771756D01*
X129504704Y-93765612D01*
X129581499Y-93777660D01*
G37*
G36*
X131717411Y-96180414D02*
G01*
X131776744Y-96189390D01*
X131791439Y-96191621D01*
X131883567Y-96205446D01*
X131897402Y-96252116D01*
X131927798Y-96329371D01*
X131969866Y-96391369D01*
X131986171Y-96408839D01*
X132047441Y-96456317D01*
X132119522Y-96490049D01*
X132195710Y-96507876D01*
X132269299Y-96507635D01*
X132284395Y-96504960D01*
X132338713Y-96493375D01*
X132330642Y-97416981D01*
X132329015Y-97595511D01*
X132327406Y-97752279D01*
X132325746Y-97888856D01*
X132323966Y-98006815D01*
X132321998Y-98107728D01*
X132319773Y-98193167D01*
X132317222Y-98264704D01*
X132314276Y-98323911D01*
X132310867Y-98372360D01*
X132306924Y-98411623D01*
X132302380Y-98443273D01*
X132297166Y-98468882D01*
X132291213Y-98490022D01*
X132284452Y-98508264D01*
X132282664Y-98512473D01*
X132266095Y-98550600D01*
X132265638Y-98508965D01*
X132253792Y-98430938D01*
X132222217Y-98354992D01*
X132174316Y-98286288D01*
X132113493Y-98229988D01*
X132061238Y-98198913D01*
X131988399Y-98176439D01*
X131908207Y-98170703D01*
X131829459Y-98181705D01*
X131780983Y-98198860D01*
X131732711Y-98228478D01*
X131684591Y-98269735D01*
X131644111Y-98315422D01*
X131621166Y-98352658D01*
X131604565Y-98373798D01*
X131583782Y-98375594D01*
X131561181Y-98371657D01*
X131522608Y-98365925D01*
X131475253Y-98359450D01*
X131460129Y-98357485D01*
X131414333Y-98350840D01*
X131377914Y-98344117D01*
X131356698Y-98338447D01*
X131353863Y-98336839D01*
X131349007Y-98322856D01*
X131341114Y-98290767D01*
X131331297Y-98245429D01*
X131321250Y-98194743D01*
X131307038Y-98122877D01*
X131295000Y-98070569D01*
X131283773Y-98034311D01*
X131271995Y-98010595D01*
X131258306Y-97995914D01*
X131241343Y-97986760D01*
X131240364Y-97986377D01*
X131219590Y-97981274D01*
X131179680Y-97974020D01*
X131124667Y-97965250D01*
X131058581Y-97955602D01*
X130985456Y-97945710D01*
X130970280Y-97943751D01*
X130898569Y-97934482D01*
X130835264Y-97926135D01*
X130783815Y-97919179D01*
X130747672Y-97914081D01*
X130730282Y-97911311D01*
X130729247Y-97911019D01*
X130730193Y-97899376D01*
X130733871Y-97867543D01*
X130739912Y-97818459D01*
X130747950Y-97755061D01*
X130757613Y-97680288D01*
X130768535Y-97597077D01*
X130770504Y-97582203D01*
X130813794Y-97255515D01*
X130842359Y-97257737D01*
X130876567Y-97260961D01*
X130922403Y-97266022D01*
X130973770Y-97272154D01*
X131024568Y-97278590D01*
X131068699Y-97284565D01*
X131100064Y-97289312D01*
X131111242Y-97291517D01*
X131126330Y-97305286D01*
X131140391Y-97332819D01*
X131143088Y-97340881D01*
X131176118Y-97414094D01*
X131226846Y-97480072D01*
X131290329Y-97533943D01*
X131361624Y-97570839D01*
X131383600Y-97577817D01*
X131463035Y-97587756D01*
X131543254Y-97576875D01*
X131620030Y-97547143D01*
X131689134Y-97500529D01*
X131746337Y-97439003D01*
X131772756Y-97396575D01*
X131795194Y-97334693D01*
X131805424Y-97263421D01*
X131803302Y-97191134D01*
X131788687Y-97126211D01*
X131777793Y-97101246D01*
X131727438Y-97025623D01*
X131665299Y-96968435D01*
X131613924Y-96938045D01*
X131571267Y-96919539D01*
X131531880Y-96909554D01*
X131484850Y-96905780D01*
X131460129Y-96905492D01*
X131410340Y-96906836D01*
X131373838Y-96912455D01*
X131340651Y-96924727D01*
X131308452Y-96941688D01*
X131239444Y-96993341D01*
X131179546Y-97064359D01*
X131162609Y-97090994D01*
X131156457Y-97098777D01*
X131146484Y-97103371D01*
X131128768Y-97104765D01*
X131099380Y-97102946D01*
X131054396Y-97097902D01*
X130996348Y-97090466D01*
X130931645Y-97081485D01*
X130887012Y-97073846D01*
X130859285Y-97066763D01*
X130845298Y-97059448D01*
X130841839Y-97052038D01*
X130843439Y-97031049D01*
X130847793Y-96992147D01*
X130854379Y-96939052D01*
X130862677Y-96875483D01*
X130872164Y-96805157D01*
X130882320Y-96731793D01*
X130892623Y-96659111D01*
X130902553Y-96590829D01*
X130911588Y-96530665D01*
X130919207Y-96482338D01*
X130924889Y-96449567D01*
X130928112Y-96436070D01*
X130928182Y-96435984D01*
X130941478Y-96435213D01*
X130974418Y-96437305D01*
X131023536Y-96441922D01*
X131085362Y-96448727D01*
X131156427Y-96457379D01*
X131184834Y-96461042D01*
X131273238Y-96472248D01*
X131341190Y-96479946D01*
X131391281Y-96484321D01*
X131426099Y-96485558D01*
X131448233Y-96483844D01*
X131458211Y-96480657D01*
X131473032Y-96464826D01*
X131494890Y-96431030D01*
X131521707Y-96382781D01*
X131551400Y-96323595D01*
X131552177Y-96321972D01*
X131580532Y-96262299D01*
X131602287Y-96220475D01*
X131622147Y-96193939D01*
X131644818Y-96180125D01*
X131675004Y-96176472D01*
X131717411Y-96180414D01*
G37*
%TO.C,R7*%
X183477064Y-92765000D02*
X183022936Y-92765000D01*
X183477064Y-94235000D02*
X183022936Y-94235000D01*
%TO.C,R14*%
X168985000Y-95227064D02*
X168985000Y-94772936D01*
X167515000Y-95227064D02*
X167515000Y-94772936D01*
%TO.C,U1*%
X185460000Y-72050000D02*
X185460000Y-73380000D01*
X134600000Y-89890000D02*
X134600000Y-87350000D01*
X185400000Y-87350000D02*
X185400000Y-89890000D01*
X134540000Y-74710000D02*
X134540000Y-72050000D01*
X182860000Y-74710000D02*
X134540000Y-74710000D01*
X185400000Y-89890000D02*
X134600000Y-89890000D01*
X134600000Y-87350000D02*
X185400000Y-87350000D01*
X184130000Y-72050000D02*
X185460000Y-72050000D01*
X182860000Y-72050000D02*
X182860000Y-74710000D01*
X141011000Y-86142000D02*
X141011000Y-75862000D01*
X134540000Y-72050000D02*
X182860000Y-72050000D01*
X141011000Y-75862000D02*
X138351000Y-75862000D01*
X138351000Y-75862000D02*
X138351000Y-86142000D01*
X138351000Y-86142000D02*
X141011000Y-86142000D01*
%TO.C,D2*%
X169210000Y-100185000D02*
X169210000Y-97500000D01*
X167290000Y-97500000D02*
X167290000Y-100185000D01*
X167290000Y-100185000D02*
X169210000Y-100185000D01*
%TO.C,D1*%
X171460000Y-100185000D02*
X171460000Y-97500000D01*
X169540000Y-100185000D02*
X171460000Y-100185000D01*
X169540000Y-97500000D02*
X169540000Y-100185000D01*
%TO.C,R17*%
X162235000Y-95227064D02*
X162235000Y-94772936D01*
X160765000Y-95227064D02*
X160765000Y-94772936D01*
%TO.C,R4*%
X165272936Y-69235000D02*
X165727064Y-69235000D01*
X165272936Y-67765000D02*
X165727064Y-67765000D01*
%TO.C,R5*%
X133727064Y-66765000D02*
X133272936Y-66765000D01*
X133727064Y-68235000D02*
X133272936Y-68235000D01*
%TO.C,R2*%
X172272936Y-67765000D02*
X172727064Y-67765000D01*
X172272936Y-69235000D02*
X172727064Y-69235000D01*
%TO.C,R15*%
X165265000Y-95227064D02*
X165265000Y-94772936D01*
X166735000Y-95227064D02*
X166735000Y-94772936D01*
%TO.C,R6*%
X138727064Y-68235000D02*
X138272936Y-68235000D01*
X138727064Y-66765000D02*
X138272936Y-66765000D01*
%TO.C,R12*%
X150265000Y-94772936D02*
X150265000Y-95227064D01*
X151735000Y-94772936D02*
X151735000Y-95227064D01*
%TO.C,D3*%
X165040000Y-100185000D02*
X166960000Y-100185000D01*
X166960000Y-100185000D02*
X166960000Y-97500000D01*
X165040000Y-97500000D02*
X165040000Y-100185000D01*
%TO.C,J3*%
X127275000Y-89595000D02*
X121275000Y-89595000D01*
X121275000Y-80095000D02*
X121275000Y-79335000D01*
X121275000Y-84415000D02*
X127275000Y-84415000D01*
X127275000Y-82635000D02*
X121275000Y-82635000D01*
X129935000Y-83525000D02*
X127275000Y-83525000D01*
X130332071Y-81875000D02*
X129935000Y-81875000D01*
X130332071Y-77555000D02*
X129935000Y-77555000D01*
X129935000Y-91205000D02*
X129935000Y-70765000D01*
X121275000Y-87715000D02*
X121275000Y-86955000D01*
X127275000Y-72475000D02*
X121275000Y-72475000D01*
X121275000Y-89495000D02*
X127275000Y-89495000D01*
X121275000Y-72475000D02*
X121275000Y-71715000D01*
X129935000Y-70765000D02*
X127275000Y-70765000D01*
X130332071Y-76795000D02*
X129935000Y-76795000D01*
X127275000Y-89835000D02*
X121275000Y-89835000D01*
X130332071Y-85175000D02*
X129935000Y-85175000D01*
X129935000Y-86065000D02*
X127275000Y-86065000D01*
X130332071Y-80095000D02*
X129935000Y-80095000D01*
X130332071Y-79335000D02*
X129935000Y-79335000D01*
X130332071Y-74255000D02*
X129935000Y-74255000D01*
X121275000Y-85175000D02*
X121275000Y-84415000D01*
X130332071Y-75015000D02*
X129935000Y-75015000D01*
X129935000Y-75905000D02*
X127275000Y-75905000D01*
X127275000Y-87715000D02*
X121275000Y-87715000D01*
X129935000Y-73365000D02*
X127275000Y-73365000D01*
X132645000Y-91145000D02*
X131375000Y-91145000D01*
X121275000Y-71715000D02*
X127275000Y-71715000D01*
X121275000Y-90255000D02*
X121275000Y-89495000D01*
X127275000Y-85175000D02*
X121275000Y-85175000D01*
X130332071Y-84415000D02*
X129935000Y-84415000D01*
X127275000Y-89715000D02*
X121275000Y-89715000D01*
X130265000Y-89495000D02*
X129935000Y-89495000D01*
X121275000Y-75015000D02*
X121275000Y-74255000D01*
X127275000Y-70765000D02*
X127275000Y-91205000D01*
X130265000Y-90255000D02*
X129935000Y-90255000D01*
X130332071Y-72475000D02*
X129935000Y-72475000D01*
X129935000Y-78445000D02*
X127275000Y-78445000D01*
X127275000Y-91205000D02*
X129935000Y-91205000D01*
X121275000Y-74255000D02*
X127275000Y-74255000D01*
X127275000Y-90075000D02*
X121275000Y-90075000D01*
X129935000Y-80985000D02*
X127275000Y-80985000D01*
X127275000Y-77555000D02*
X121275000Y-77555000D01*
X127275000Y-90255000D02*
X121275000Y-90255000D01*
X130332071Y-86955000D02*
X129935000Y-86955000D01*
X127275000Y-80095000D02*
X121275000Y-80095000D01*
X127275000Y-90195000D02*
X121275000Y-90195000D01*
X132645000Y-89875000D02*
X132645000Y-91145000D01*
X127275000Y-75015000D02*
X121275000Y-75015000D01*
X127275000Y-89955000D02*
X121275000Y-89955000D01*
X130332071Y-82635000D02*
X129935000Y-82635000D01*
X121275000Y-81875000D02*
X127275000Y-81875000D01*
X130332071Y-87715000D02*
X129935000Y-87715000D01*
X121275000Y-77555000D02*
X121275000Y-76795000D01*
X129935000Y-88605000D02*
X127275000Y-88605000D01*
X121275000Y-82635000D02*
X121275000Y-81875000D01*
X121275000Y-86955000D02*
X127275000Y-86955000D01*
X130332071Y-71715000D02*
X129935000Y-71715000D01*
X121275000Y-79335000D02*
X127275000Y-79335000D01*
X121275000Y-76795000D02*
X127275000Y-76795000D01*
%TO.C,D5*%
X160540000Y-100185000D02*
X162460000Y-100185000D01*
X160540000Y-97500000D02*
X160540000Y-100185000D01*
X162460000Y-100185000D02*
X162460000Y-97500000D01*
%TD*%
M02*
