%TF.GenerationSoftware,KiCad,Pcbnew,(6.0.7)*%
%TF.CreationDate,2023-08-27T18:36:20+02:00*%
%TF.ProjectId,libcsp-zephyr-hw,6c696263-7370-42d7-9a65-706879722d68,rev?*%
%TF.SameCoordinates,Original*%
%TF.FileFunction,Paste,Top*%
%TF.FilePolarity,Positive*%
%FSLAX46Y46*%
G04 Gerber Fmt 4.6, Leading zero omitted, Abs format (unit mm)*
G04 Created by KiCad (PCBNEW (6.0.7)) date 2023-08-27 18:36:20*
%MOMM*%
%LPD*%
G01*
G04 APERTURE LIST*
G04 Aperture macros list*
%AMRoundRect*
0 Rectangle with rounded corners*
0 $1 Rounding radius*
0 $2 $3 $4 $5 $6 $7 $8 $9 X,Y pos of 4 corners*
0 Add a 4 corners polygon primitive as box body*
4,1,4,$2,$3,$4,$5,$6,$7,$8,$9,$2,$3,0*
0 Add four circle primitives for the rounded corners*
1,1,$1+$1,$2,$3*
1,1,$1+$1,$4,$5*
1,1,$1+$1,$6,$7*
1,1,$1+$1,$8,$9*
0 Add four rect primitives between the rounded corners*
20,1,$1+$1,$2,$3,$4,$5,0*
20,1,$1+$1,$4,$5,$6,$7,0*
20,1,$1+$1,$6,$7,$8,$9,0*
20,1,$1+$1,$8,$9,$2,$3,0*%
G04 Aperture macros list end*
%ADD10RoundRect,0.250000X-0.450000X0.262500X-0.450000X-0.262500X0.450000X-0.262500X0.450000X0.262500X0*%
%ADD11RoundRect,0.250000X0.450000X-0.262500X0.450000X0.262500X-0.450000X0.262500X-0.450000X-0.262500X0*%
%ADD12RoundRect,0.250000X-0.262500X-0.450000X0.262500X-0.450000X0.262500X0.450000X-0.262500X0.450000X0*%
%ADD13RoundRect,0.243750X0.456250X-0.243750X0.456250X0.243750X-0.456250X0.243750X-0.456250X-0.243750X0*%
%ADD14RoundRect,0.250000X0.262500X0.450000X-0.262500X0.450000X-0.262500X-0.450000X0.262500X-0.450000X0*%
G04 APERTURE END LIST*
D10*
%TO.C,R10*%
X156000000Y-94087500D03*
X156000000Y-95912500D03*
%TD*%
D11*
%TO.C,R13*%
X170500000Y-95912500D03*
X170500000Y-94087500D03*
%TD*%
D10*
%TO.C,R9*%
X158500000Y-94087500D03*
X158500000Y-95912500D03*
%TD*%
D11*
%TO.C,R16*%
X163750000Y-95912500D03*
X163750000Y-94087500D03*
%TD*%
D12*
%TO.C,R3*%
X168087500Y-68500000D03*
X169912500Y-68500000D03*
%TD*%
D13*
%TO.C,D4*%
X163750000Y-99437500D03*
X163750000Y-97562500D03*
%TD*%
D12*
%TO.C,R8*%
X182337500Y-95500000D03*
X184162500Y-95500000D03*
%TD*%
D10*
%TO.C,R11*%
X153500000Y-94087500D03*
X153500000Y-95912500D03*
%TD*%
D12*
%TO.C,R1*%
X175087500Y-68500000D03*
X176912500Y-68500000D03*
%TD*%
D14*
%TO.C,R7*%
X184162500Y-93500000D03*
X182337500Y-93500000D03*
%TD*%
D11*
%TO.C,R14*%
X168250000Y-95912500D03*
X168250000Y-94087500D03*
%TD*%
D13*
%TO.C,D2*%
X168250000Y-99437500D03*
X168250000Y-97562500D03*
%TD*%
%TO.C,D1*%
X170500000Y-99437500D03*
X170500000Y-97562500D03*
%TD*%
D11*
%TO.C,R17*%
X161500000Y-95912500D03*
X161500000Y-94087500D03*
%TD*%
D12*
%TO.C,R4*%
X164587500Y-68500000D03*
X166412500Y-68500000D03*
%TD*%
D14*
%TO.C,R5*%
X134412500Y-67500000D03*
X132587500Y-67500000D03*
%TD*%
D12*
%TO.C,R2*%
X171587500Y-68500000D03*
X173412500Y-68500000D03*
%TD*%
D11*
%TO.C,R15*%
X166000000Y-95912500D03*
X166000000Y-94087500D03*
%TD*%
D14*
%TO.C,R6*%
X139412500Y-67500000D03*
X137587500Y-67500000D03*
%TD*%
D10*
%TO.C,R12*%
X151000000Y-94087500D03*
X151000000Y-95912500D03*
%TD*%
D13*
%TO.C,D3*%
X166000000Y-99437500D03*
X166000000Y-97562500D03*
%TD*%
%TO.C,D5*%
X161500000Y-99437500D03*
X161500000Y-97562500D03*
%TD*%
M02*
