%TF.GenerationSoftware,KiCad,Pcbnew,(6.0.7)*%
%TF.CreationDate,2023-08-27T18:36:20+02:00*%
%TF.ProjectId,libcsp-zephyr-hw,6c696263-7370-42d7-9a65-706879722d68,rev?*%
%TF.SameCoordinates,Original*%
%TF.FileFunction,Copper,L2,Bot*%
%TF.FilePolarity,Positive*%
%FSLAX46Y46*%
G04 Gerber Fmt 4.6, Leading zero omitted, Abs format (unit mm)*
G04 Created by KiCad (PCBNEW (6.0.7)) date 2023-08-27 18:36:20*
%MOMM*%
%LPD*%
G01*
G04 APERTURE LIST*
%TA.AperFunction,ComponentPad*%
%ADD10R,1.700000X1.700000*%
%TD*%
%TA.AperFunction,ComponentPad*%
%ADD11O,1.700000X1.700000*%
%TD*%
%TA.AperFunction,ComponentPad*%
%ADD12C,4.400000*%
%TD*%
%TA.AperFunction,ComponentPad*%
%ADD13C,0.700000*%
%TD*%
%TA.AperFunction,ComponentPad*%
%ADD14C,1.700000*%
%TD*%
%TA.AperFunction,ViaPad*%
%ADD15C,0.700000*%
%TD*%
%TA.AperFunction,ViaPad*%
%ADD16C,0.600000*%
%TD*%
%TA.AperFunction,Conductor*%
%ADD17C,0.500000*%
%TD*%
%TA.AperFunction,Conductor*%
%ADD18C,1.000000*%
%TD*%
%TA.AperFunction,Conductor*%
%ADD19C,0.300000*%
%TD*%
G04 APERTURE END LIST*
D10*
%TO.P,J4,1,Pin_1*%
%TO.N,Net-(J4-Pad1)*%
X166880000Y-62975000D03*
D11*
%TO.P,J4,2,Pin_2*%
%TO.N,+3.3V*%
X169420000Y-62975000D03*
%TO.P,J4,3,Pin_3*%
%TO.N,GND*%
X171960000Y-62975000D03*
%TO.P,J4,4,Pin_4*%
%TO.N,Net-(J4-Pad4)*%
X174500000Y-62975000D03*
%TO.P,J4,5,Pin_5*%
%TO.N,Net-(J4-Pad5)*%
X177040000Y-62975000D03*
%TO.P,J4,6,Pin_6*%
%TO.N,Net-(J4-Pad6)*%
X179580000Y-62975000D03*
%TD*%
D12*
%TO.P,H4,1*%
%TO.N,N/C*%
X187000000Y-99000000D03*
D13*
X185833274Y-97833274D03*
X188166726Y-100166726D03*
X187000000Y-97350000D03*
X188166726Y-97833274D03*
X188650000Y-99000000D03*
X185833274Y-100166726D03*
X185350000Y-99000000D03*
X187000000Y-100650000D03*
%TD*%
D10*
%TO.P,J2,1,Pin_1*%
%TO.N,+3.3V*%
X179525000Y-94850000D03*
D11*
%TO.P,J2,2,Pin_2*%
X179525000Y-97390000D03*
%TO.P,J2,3,Pin_3*%
%TO.N,Net-(J2-Pad3)*%
X176985000Y-94850000D03*
%TO.P,J2,4,Pin_4*%
%TO.N,Net-(J2-Pad4)*%
X176985000Y-97390000D03*
%TO.P,J2,5,Pin_5*%
%TO.N,GND*%
X174445000Y-94850000D03*
%TO.P,J2,6,Pin_6*%
X174445000Y-97390000D03*
%TD*%
D13*
%TO.P,H2,1*%
%TO.N,N/C*%
X124650000Y-99000000D03*
X124166726Y-100166726D03*
X123000000Y-97350000D03*
X121833274Y-97833274D03*
D12*
X123000000Y-99000000D03*
D13*
X124166726Y-97833274D03*
X121833274Y-100166726D03*
X123000000Y-100650000D03*
X121350000Y-99000000D03*
%TD*%
D10*
%TO.P,J1,1,Pin_1*%
%TO.N,unconnected-(J1-Pad1)*%
X130760000Y-63000000D03*
D11*
%TO.P,J1,2,Pin_2*%
%TO.N,I2C_SDA*%
X133300000Y-63000000D03*
%TO.P,J1,3,Pin_3*%
%TO.N,I2C_SCL*%
X135840000Y-63000000D03*
%TO.P,J1,4,Pin_4*%
%TO.N,GND*%
X138380000Y-63000000D03*
%TO.P,J1,5,Pin_5*%
%TO.N,Net-(J1-Pad5)*%
X140920000Y-63000000D03*
%TO.P,J1,6,Pin_6*%
%TO.N,Net-(J1-Pad6)*%
X143460000Y-63000000D03*
%TO.P,J1,7,Pin_7*%
%TO.N,Net-(J1-Pad7)*%
X146000000Y-63000000D03*
%TO.P,J1,8,Pin_8*%
%TO.N,Net-(J1-Pad8)*%
X148540000Y-63000000D03*
%TO.P,J1,9,Pin_9*%
%TO.N,GND*%
X151080000Y-63000000D03*
%TD*%
D13*
%TO.P,H1,1*%
%TO.N,N/C*%
X124166726Y-64166726D03*
X124166726Y-61833274D03*
X123000000Y-61350000D03*
D12*
X123000000Y-63000000D03*
D13*
X121833274Y-64166726D03*
X121833274Y-61833274D03*
X121350000Y-63000000D03*
X123000000Y-64650000D03*
X124650000Y-63000000D03*
%TD*%
D10*
%TO.P,U1,1,PB12*%
%TO.N,HW_ADDR_0*%
X184130000Y-73380000D03*
D14*
%TO.P,U1,2,PB13*%
%TO.N,HW_ADDR_1*%
X181590000Y-73380000D03*
%TO.P,U1,3,PB14*%
%TO.N,SIG_1*%
X179050000Y-73380000D03*
%TO.P,U1,4,PB15*%
%TO.N,SIG_2*%
X176510000Y-73380000D03*
%TO.P,U1,5,PA8*%
%TO.N,SIG_3*%
X173970000Y-73380000D03*
%TO.P,U1,6,PA9*%
%TO.N,DEBUG_TX*%
X171430000Y-73380000D03*
%TO.P,U1,7,PA10*%
%TO.N,DEBUG_RX*%
X168890000Y-73380000D03*
%TO.P,U1,8,PA11*%
%TO.N,SIG_4*%
X166350000Y-73380000D03*
%TO.P,U1,9,PA12*%
%TO.N,unconnected-(U1-Pad9)*%
X163810000Y-73380000D03*
%TO.P,U1,10,PA15*%
%TO.N,unconnected-(U1-Pad10)*%
X161270000Y-73380000D03*
%TO.P,U1,11,PB3*%
%TO.N,SWO*%
X158730000Y-73380000D03*
%TO.P,U1,12,PB4*%
%TO.N,unconnected-(U1-Pad12)*%
X156190000Y-73380000D03*
%TO.P,U1,13,PB5*%
%TO.N,unconnected-(U1-Pad13)*%
X153650000Y-73380000D03*
%TO.P,U1,14,PB6*%
%TO.N,I2C_SCL*%
X151110000Y-73380000D03*
%TO.P,U1,15,PB7*%
%TO.N,I2C_SDA*%
X148570000Y-73380000D03*
%TO.P,U1,16,PB8*%
%TO.N,unconnected-(U1-Pad16)*%
X146030000Y-73380000D03*
%TO.P,U1,17,PB9*%
%TO.N,unconnected-(U1-Pad17)*%
X143490000Y-73380000D03*
%TO.P,U1,18,5V*%
%TO.N,unconnected-(U1-Pad18)*%
X140950000Y-73380000D03*
%TO.P,U1,19,GND*%
%TO.N,GND*%
X138410000Y-73380000D03*
%TO.P,U1,20,3V3*%
%TO.N,+3.3V*%
X135870000Y-73380000D03*
%TO.P,U1,21,VBat*%
%TO.N,unconnected-(U1-Pad21)*%
X135870000Y-88620000D03*
%TO.P,U1,22,PC13*%
%TO.N,unconnected-(U1-Pad22)*%
X138410000Y-88620000D03*
%TO.P,U1,23,PC14*%
%TO.N,unconnected-(U1-Pad23)*%
X140950000Y-88620000D03*
%TO.P,U1,24,PC15*%
%TO.N,unconnected-(U1-Pad24)*%
X143490000Y-88620000D03*
%TO.P,U1,25,RES*%
%TO.N,NRST*%
X146030000Y-88620000D03*
%TO.P,U1,26,PA0*%
%TO.N,unconnected-(U1-Pad26)*%
X148570000Y-88620000D03*
%TO.P,U1,27,PA1*%
%TO.N,BT_STATE*%
X151110000Y-88620000D03*
%TO.P,U1,28,PA2*%
%TO.N,BT_RXD*%
X153650000Y-88620000D03*
%TO.P,U1,29,PA3*%
%TO.N,BT_TXD*%
X156190000Y-88620000D03*
%TO.P,U1,30,PA4*%
%TO.N,BT_EN*%
X158730000Y-88620000D03*
%TO.P,U1,31,PA5*%
%TO.N,LED_5*%
X161270000Y-88620000D03*
%TO.P,U1,32,PA6*%
%TO.N,LED_4*%
X163810000Y-88620000D03*
%TO.P,U1,33,PA7*%
%TO.N,LED_3*%
X166350000Y-88620000D03*
%TO.P,U1,34,PB0*%
%TO.N,LED_2*%
X168890000Y-88620000D03*
%TO.P,U1,35,PB1*%
%TO.N,LED_1*%
X171430000Y-88620000D03*
%TO.P,U1,36,PB2*%
%TO.N,unconnected-(U1-Pad36)*%
X173970000Y-88620000D03*
%TO.P,U1,37,PB10*%
%TO.N,unconnected-(U1-Pad37)*%
X176510000Y-88620000D03*
%TO.P,U1,38,3V3*%
%TO.N,+3.3V*%
X179050000Y-88620000D03*
%TO.P,U1,39,GND*%
%TO.N,GND*%
X181590000Y-88620000D03*
%TO.P,U1,40,5V*%
%TO.N,unconnected-(U1-Pad40)*%
X184130000Y-88620000D03*
%TO.P,U1,41,GND*%
%TO.N,GND*%
X139681000Y-84812000D03*
%TO.P,U1,42,SWCLK*%
%TO.N,SWCLK*%
X139681000Y-82272000D03*
%TO.P,U1,43,SWIO*%
%TO.N,SWDIO*%
X139681000Y-79732000D03*
%TO.P,U1,44,3V3*%
%TO.N,+3.3V*%
X139681000Y-77192000D03*
%TD*%
D13*
%TO.P,H3,1*%
%TO.N,N/C*%
X185833274Y-61833274D03*
X188166726Y-64166726D03*
X185350000Y-63000000D03*
X187000000Y-61350000D03*
X187000000Y-64650000D03*
D12*
X187000000Y-63000000D03*
D13*
X185833274Y-64166726D03*
X188166726Y-61833274D03*
X188650000Y-63000000D03*
%TD*%
D10*
%TO.P,J3,1,Pin_1*%
%TO.N,NRST*%
X131375000Y-89875000D03*
D11*
%TO.P,J3,2,Pin_2*%
%TO.N,GND*%
X131375000Y-87335000D03*
%TO.P,J3,3,Pin_3*%
%TO.N,SWCLK*%
X131375000Y-84795000D03*
%TO.P,J3,4,Pin_4*%
%TO.N,SWDIO*%
X131375000Y-82255000D03*
%TO.P,J3,5,Pin_5*%
%TO.N,+3.3V*%
X131375000Y-79715000D03*
%TO.P,J3,6,Pin_6*%
%TO.N,SWO*%
X131375000Y-77175000D03*
%TO.P,J3,7,Pin_7*%
%TO.N,DEBUG_TX*%
X131375000Y-74635000D03*
%TO.P,J3,8,Pin_8*%
%TO.N,DEBUG_RX*%
X131375000Y-72095000D03*
%TD*%
D15*
%TO.N,+3.3V*%
X136000000Y-67500000D03*
D16*
%TO.N,LED_1*%
X170500000Y-100500000D03*
%TO.N,LED_2*%
X168250000Y-100500000D03*
%TO.N,LED_3*%
X166000000Y-100500000D03*
%TO.N,LED_4*%
X163750000Y-100500000D03*
%TO.N,LED_5*%
X161500000Y-100500000D03*
%TO.N,Net-(J4-Pad1)*%
X157500000Y-87000000D03*
%TO.N,Net-(J4-Pad4)*%
X158500000Y-81250000D03*
%TO.N,Net-(J4-Pad5)*%
X163500000Y-77500000D03*
%TO.N,Net-(J4-Pad6)*%
X167500000Y-76500000D03*
%TD*%
D17*
%TO.N,GND*%
X134188000Y-84812000D02*
X131665000Y-87335000D01*
X139681000Y-84812000D02*
X134188000Y-84812000D01*
X131665000Y-87335000D02*
X131375000Y-87335000D01*
D18*
%TO.N,+3.3V*%
X131785000Y-79715000D02*
X131375000Y-79715000D01*
X168500000Y-61000000D02*
X160996000Y-61000000D01*
X136000000Y-73250000D02*
X136000000Y-67500000D01*
X155996000Y-66000000D02*
X137500000Y-66000000D01*
X139681000Y-77192000D02*
X134308000Y-77192000D01*
X169540000Y-62606000D02*
X169540000Y-63000000D01*
X134308000Y-77192000D02*
X131785000Y-79715000D01*
X137500000Y-66000000D02*
X136000000Y-67500000D01*
X179050000Y-88620000D02*
X179525000Y-89095000D01*
X179525000Y-89095000D02*
X179525000Y-94850000D01*
X135870000Y-73380000D02*
X136000000Y-73250000D01*
X169420000Y-61920000D02*
X168500000Y-61000000D01*
X169420000Y-62975000D02*
X169420000Y-61920000D01*
X179525000Y-94850000D02*
X179525000Y-97390000D01*
X160996000Y-61000000D02*
X155996000Y-66000000D01*
D17*
%TO.N,LED_1*%
X170500000Y-89550000D02*
X171430000Y-88620000D01*
X170500000Y-100500000D02*
X170500000Y-89550000D01*
%TO.N,LED_2*%
X168250000Y-100500000D02*
X168250000Y-89260000D01*
X168250000Y-89260000D02*
X168890000Y-88620000D01*
%TO.N,LED_3*%
X166350000Y-88620000D02*
X166000000Y-88970000D01*
X166000000Y-88970000D02*
X166000000Y-100500000D01*
%TO.N,LED_4*%
X163750000Y-88680000D02*
X163810000Y-88620000D01*
X163750000Y-100500000D02*
X163750000Y-88680000D01*
%TO.N,LED_5*%
X161500000Y-100500000D02*
X161500000Y-88850000D01*
X161500000Y-88850000D02*
X161270000Y-88620000D01*
%TO.N,NRST*%
X134500000Y-87000000D02*
X131625000Y-89875000D01*
X131625000Y-89875000D02*
X131375000Y-89875000D01*
X146030000Y-88620000D02*
X144410000Y-87000000D01*
X144410000Y-87000000D02*
X134500000Y-87000000D01*
%TO.N,SWCLK*%
X134228000Y-82272000D02*
X131705000Y-84795000D01*
X139681000Y-82272000D02*
X134228000Y-82272000D01*
X131705000Y-84795000D02*
X131375000Y-84795000D01*
%TO.N,SWDIO*%
X139681000Y-79732000D02*
X134268000Y-79732000D01*
X134268000Y-79732000D02*
X131745000Y-82255000D01*
X131745000Y-82255000D02*
X131375000Y-82255000D01*
%TO.N,SWO*%
X157062000Y-75438000D02*
X133112000Y-75438000D01*
X158730000Y-73770000D02*
X157062000Y-75438000D01*
X158730000Y-73380000D02*
X158730000Y-73770000D01*
X133112000Y-75438000D02*
X131375000Y-77175000D01*
D19*
%TO.N,Net-(J4-Pad1)*%
X160000000Y-72750000D02*
X160000000Y-74000000D01*
D17*
X160000000Y-76000000D02*
X157500000Y-78500000D01*
X157500000Y-78500000D02*
X157500000Y-87000000D01*
X160000000Y-74000000D02*
X160000000Y-76000000D01*
X160000000Y-69939000D02*
X160000000Y-72750000D01*
X166939000Y-63000000D02*
X160000000Y-69939000D01*
%TO.N,Net-(J4-Pad4)*%
X170494000Y-67250000D02*
X165668000Y-67250000D01*
X158500000Y-81250000D02*
X162500000Y-77250000D01*
X165668000Y-67250000D02*
X162500000Y-70418000D01*
X174620000Y-63124000D02*
X170494000Y-67250000D01*
X162500000Y-70418000D02*
X162500000Y-72750000D01*
D19*
X162500000Y-73750000D02*
X162500000Y-74000000D01*
D17*
X162500000Y-77250000D02*
X162500000Y-74000000D01*
X174620000Y-63000000D02*
X174620000Y-63124000D01*
D19*
X162500000Y-72750000D02*
X162500000Y-73750000D01*
D17*
%TO.N,Net-(J4-Pad5)*%
X167132000Y-68326000D02*
X171958000Y-68326000D01*
X165100000Y-70358000D02*
X165093143Y-70364857D01*
X165227000Y-70231000D02*
X167132000Y-68326000D01*
X171958000Y-68326000D02*
X177160000Y-63124000D01*
X165100000Y-70358000D02*
X165227000Y-70231000D01*
D19*
X165093143Y-72508128D02*
X165093143Y-73970101D01*
D17*
X165093143Y-73970101D02*
X165093143Y-76656857D01*
X165093143Y-76656857D02*
X164250000Y-77500000D01*
X177160000Y-63124000D02*
X177160000Y-63000000D01*
X164250000Y-77500000D02*
X163500000Y-77500000D01*
X165093143Y-70364857D02*
X165093143Y-72508128D01*
D19*
%TO.N,Net-(J4-Pad6)*%
X167640000Y-72572430D02*
X167640000Y-73843282D01*
D17*
X167640000Y-76360000D02*
X167640000Y-73843282D01*
X168748000Y-69250000D02*
X173574000Y-69250000D01*
X173574000Y-69250000D02*
X179700000Y-63124000D01*
X167500000Y-76500000D02*
X167640000Y-76360000D01*
X167640000Y-70358000D02*
X167640000Y-72572430D01*
X167640000Y-70358000D02*
X168748000Y-69250000D01*
%TD*%
%TA.AperFunction,Conductor*%
%TO.N,GND*%
G36*
X160044510Y-60320502D02*
G01*
X160091003Y-60374158D01*
X160101107Y-60444432D01*
X160071613Y-60509012D01*
X160065484Y-60515595D01*
X155618485Y-64962595D01*
X155556173Y-64996621D01*
X155529390Y-64999500D01*
X137516148Y-64999500D01*
X137512630Y-64999451D01*
X137432729Y-64997219D01*
X137432726Y-64997219D01*
X137426347Y-64997041D01*
X137420057Y-64998150D01*
X137420058Y-64998150D01*
X137366944Y-65007515D01*
X137357798Y-65008784D01*
X137304130Y-65014235D01*
X137304126Y-65014236D01*
X137297784Y-65014880D01*
X137270317Y-65023488D01*
X137254518Y-65027339D01*
X137226178Y-65032336D01*
X137220245Y-65034685D01*
X137170099Y-65054539D01*
X137161396Y-65057621D01*
X137109919Y-65073753D01*
X137109917Y-65073754D01*
X137103828Y-65075662D01*
X137098249Y-65078754D01*
X137098243Y-65078757D01*
X137078648Y-65089619D01*
X137063956Y-65096564D01*
X137037195Y-65107160D01*
X137031857Y-65110653D01*
X136986728Y-65140184D01*
X136978823Y-65144952D01*
X136931644Y-65171104D01*
X136931634Y-65171111D01*
X136926056Y-65174203D01*
X136904196Y-65192939D01*
X136891204Y-65202694D01*
X136867117Y-65218456D01*
X136862162Y-65222917D01*
X136823250Y-65261829D01*
X136816152Y-65268402D01*
X136771729Y-65306477D01*
X136767822Y-65311514D01*
X136767820Y-65311516D01*
X136752818Y-65330857D01*
X136742353Y-65342726D01*
X135303986Y-66781094D01*
X135301465Y-66783546D01*
X135238720Y-66842881D01*
X135206187Y-66889343D01*
X135204120Y-66892295D01*
X135198550Y-66899660D01*
X135180946Y-66921245D01*
X135160427Y-66946403D01*
X135157472Y-66952055D01*
X135157469Y-66952060D01*
X135147092Y-66971910D01*
X135138643Y-66985807D01*
X135122137Y-67009379D01*
X135119605Y-67015230D01*
X135119599Y-67015241D01*
X135098181Y-67064736D01*
X135094205Y-67073072D01*
X135069215Y-67120872D01*
X135069212Y-67120880D01*
X135066258Y-67126530D01*
X135064500Y-67132661D01*
X135058323Y-67154203D01*
X135052844Y-67169506D01*
X135041414Y-67195919D01*
X135040110Y-67202163D01*
X135040108Y-67202168D01*
X135029080Y-67254960D01*
X135026864Y-67263917D01*
X135010234Y-67321913D01*
X135009745Y-67328273D01*
X135008026Y-67350610D01*
X135005735Y-67366705D01*
X134999849Y-67394880D01*
X134999500Y-67401539D01*
X134999500Y-67456565D01*
X134999129Y-67466232D01*
X134994640Y-67524571D01*
X134995440Y-67530903D01*
X134998506Y-67555173D01*
X134999500Y-67570965D01*
X134999500Y-72288414D01*
X134979498Y-72356535D01*
X134962595Y-72377509D01*
X134831505Y-72508599D01*
X134695965Y-72702171D01*
X134693644Y-72707149D01*
X134693642Y-72707152D01*
X134600183Y-72907574D01*
X134596097Y-72916337D01*
X134594675Y-72921645D01*
X134594674Y-72921647D01*
X134561028Y-73047219D01*
X134534937Y-73144592D01*
X134514341Y-73380000D01*
X134534937Y-73615408D01*
X134536361Y-73620722D01*
X134536361Y-73620723D01*
X134594004Y-73835850D01*
X134596097Y-73843663D01*
X134598419Y-73848643D01*
X134598420Y-73848645D01*
X134687133Y-74038888D01*
X134695965Y-74057829D01*
X134831505Y-74251401D01*
X134998599Y-74418495D01*
X135003107Y-74421652D01*
X135003110Y-74421654D01*
X135163013Y-74533619D01*
X135192170Y-74554035D01*
X135197152Y-74556358D01*
X135197157Y-74556361D01*
X135392188Y-74647305D01*
X135445473Y-74694222D01*
X135464934Y-74762500D01*
X135444392Y-74830460D01*
X135390369Y-74876525D01*
X135338938Y-74887500D01*
X133126993Y-74887500D01*
X133121717Y-74887389D01*
X133117310Y-74887204D01*
X133059706Y-74884790D01*
X133051341Y-74886752D01*
X133017338Y-74894727D01*
X133005667Y-74896890D01*
X132990771Y-74898931D01*
X132962568Y-74902794D01*
X132954684Y-74906206D01*
X132954683Y-74906206D01*
X132948770Y-74908765D01*
X132927501Y-74915799D01*
X132912864Y-74919232D01*
X132905339Y-74923369D01*
X132905336Y-74923370D01*
X132874732Y-74940195D01*
X132864087Y-74945411D01*
X132824145Y-74962695D01*
X132812459Y-74972158D01*
X132793875Y-74984645D01*
X132780692Y-74991893D01*
X132774901Y-74996891D01*
X132774557Y-74997189D01*
X132772578Y-74998897D01*
X132748042Y-75023433D01*
X132738241Y-75032258D01*
X132713608Y-75052205D01*
X132713603Y-75052210D01*
X132706930Y-75057614D01*
X132701954Y-75064615D01*
X132696421Y-75070508D01*
X132635208Y-75106474D01*
X132564268Y-75103637D01*
X132506124Y-75062897D01*
X132479235Y-74997189D01*
X132485257Y-74943755D01*
X132496647Y-74910201D01*
X132496647Y-74910200D01*
X132498504Y-74904730D01*
X132499955Y-74894727D01*
X132528314Y-74699140D01*
X132528314Y-74699138D01*
X132528846Y-74695470D01*
X132530429Y-74635000D01*
X132511081Y-74424440D01*
X132509405Y-74418495D01*
X132478661Y-74309487D01*
X132453686Y-74220931D01*
X132442553Y-74198354D01*
X132362719Y-74036469D01*
X132360165Y-74031290D01*
X132251871Y-73886267D01*
X132237104Y-73866491D01*
X132237103Y-73866490D01*
X132233651Y-73861867D01*
X132106726Y-73744539D01*
X132082622Y-73722257D01*
X132082620Y-73722255D01*
X132078381Y-73718337D01*
X132045014Y-73697284D01*
X131904434Y-73608584D01*
X131904433Y-73608584D01*
X131899554Y-73605505D01*
X131703160Y-73527152D01*
X131697503Y-73526027D01*
X131697497Y-73526025D01*
X131500234Y-73486788D01*
X131437324Y-73453881D01*
X131402192Y-73392186D01*
X131405992Y-73321291D01*
X131447517Y-73263705D01*
X131506734Y-73238513D01*
X131639015Y-73219333D01*
X131639019Y-73219332D01*
X131644730Y-73218504D01*
X131726815Y-73190640D01*
X131839483Y-73152395D01*
X131839488Y-73152393D01*
X131844955Y-73150537D01*
X131849998Y-73147713D01*
X132024395Y-73050046D01*
X132024399Y-73050043D01*
X132029442Y-73047219D01*
X132192012Y-72912012D01*
X132327219Y-72749442D01*
X132330043Y-72744399D01*
X132330046Y-72744395D01*
X132427713Y-72569998D01*
X132427714Y-72569996D01*
X132430537Y-72564955D01*
X132432393Y-72559488D01*
X132432395Y-72559483D01*
X132495494Y-72373598D01*
X132498504Y-72364730D01*
X132499584Y-72357287D01*
X132528314Y-72159140D01*
X132528314Y-72159138D01*
X132528846Y-72155470D01*
X132530429Y-72095000D01*
X132511081Y-71884440D01*
X132453686Y-71680931D01*
X132442553Y-71658354D01*
X132362719Y-71496469D01*
X132360165Y-71491290D01*
X132233651Y-71321867D01*
X132078381Y-71178337D01*
X131899554Y-71065505D01*
X131703160Y-70987152D01*
X131697503Y-70986027D01*
X131697497Y-70986025D01*
X131501442Y-70947028D01*
X131501440Y-70947028D01*
X131495775Y-70945901D01*
X131490000Y-70945825D01*
X131489996Y-70945825D01*
X131383976Y-70944437D01*
X131284346Y-70943133D01*
X131278649Y-70944112D01*
X131278648Y-70944112D01*
X131081650Y-70977962D01*
X131081649Y-70977962D01*
X131075953Y-70978941D01*
X130877575Y-71052127D01*
X130872614Y-71055079D01*
X130872613Y-71055079D01*
X130855089Y-71065505D01*
X130695856Y-71160238D01*
X130536881Y-71299655D01*
X130405976Y-71465708D01*
X130403287Y-71470819D01*
X130403285Y-71470822D01*
X130389792Y-71496469D01*
X130307523Y-71652836D01*
X130244820Y-71854773D01*
X130219967Y-72064754D01*
X130233796Y-72275749D01*
X130235217Y-72281345D01*
X130235218Y-72281350D01*
X130282897Y-72469084D01*
X130285845Y-72480690D01*
X130288262Y-72485933D01*
X130353017Y-72626398D01*
X130374369Y-72672714D01*
X130496405Y-72845391D01*
X130500539Y-72849418D01*
X130620143Y-72965931D01*
X130647865Y-72992937D01*
X130652661Y-72996142D01*
X130652664Y-72996144D01*
X130795936Y-73091875D01*
X130823677Y-73110411D01*
X130828985Y-73112692D01*
X130828986Y-73112692D01*
X131012650Y-73191600D01*
X131012653Y-73191601D01*
X131017953Y-73193878D01*
X131023582Y-73195152D01*
X131023583Y-73195152D01*
X131218550Y-73239269D01*
X131218553Y-73239269D01*
X131224186Y-73240544D01*
X131229958Y-73240771D01*
X131235687Y-73241525D01*
X131235327Y-73244257D01*
X131291604Y-73263216D01*
X131335950Y-73318659D01*
X131343282Y-73389276D01*
X131311271Y-73452647D01*
X131250081Y-73488651D01*
X131240704Y-73490632D01*
X131081650Y-73517962D01*
X131081649Y-73517962D01*
X131075953Y-73518941D01*
X130877575Y-73592127D01*
X130872614Y-73595079D01*
X130872613Y-73595079D01*
X130780753Y-73649730D01*
X130695856Y-73700238D01*
X130536881Y-73839655D01*
X130405976Y-74005708D01*
X130403287Y-74010819D01*
X130403285Y-74010822D01*
X130371282Y-74071650D01*
X130307523Y-74192836D01*
X130244820Y-74394773D01*
X130219967Y-74604754D01*
X130233796Y-74815749D01*
X130235217Y-74821345D01*
X130235218Y-74821350D01*
X130279876Y-74997189D01*
X130285845Y-75020690D01*
X130288262Y-75025933D01*
X130324084Y-75103637D01*
X130374369Y-75212714D01*
X130496405Y-75385391D01*
X130647865Y-75532937D01*
X130652661Y-75536142D01*
X130652664Y-75536144D01*
X130795936Y-75631875D01*
X130823677Y-75650411D01*
X130828985Y-75652692D01*
X130828986Y-75652692D01*
X131012650Y-75731600D01*
X131012653Y-75731601D01*
X131017953Y-75733878D01*
X131023582Y-75735152D01*
X131023583Y-75735152D01*
X131218550Y-75779269D01*
X131218553Y-75779269D01*
X131224186Y-75780544D01*
X131229958Y-75780771D01*
X131235687Y-75781525D01*
X131235327Y-75784257D01*
X131291604Y-75803216D01*
X131335950Y-75858659D01*
X131343282Y-75929276D01*
X131311271Y-75992647D01*
X131250081Y-76028651D01*
X131240704Y-76030632D01*
X131081650Y-76057962D01*
X131081649Y-76057962D01*
X131075953Y-76058941D01*
X130877575Y-76132127D01*
X130872614Y-76135079D01*
X130872613Y-76135079D01*
X130733363Y-76217924D01*
X130695856Y-76240238D01*
X130536881Y-76379655D01*
X130405976Y-76545708D01*
X130403287Y-76550819D01*
X130403285Y-76550822D01*
X130356681Y-76639403D01*
X130307523Y-76732836D01*
X130271211Y-76849781D01*
X130246836Y-76928282D01*
X130244820Y-76934773D01*
X130219967Y-77144754D01*
X130233796Y-77355749D01*
X130235217Y-77361345D01*
X130235218Y-77361350D01*
X130284424Y-77555095D01*
X130285845Y-77560690D01*
X130374369Y-77752714D01*
X130496405Y-77925391D01*
X130647865Y-78072937D01*
X130652661Y-78076142D01*
X130652664Y-78076144D01*
X130767830Y-78153095D01*
X130823677Y-78190411D01*
X130828980Y-78192690D01*
X130828985Y-78192692D01*
X130860757Y-78206342D01*
X130890604Y-78219165D01*
X130945296Y-78264431D01*
X130966834Y-78332082D01*
X130948377Y-78400638D01*
X130894116Y-78449127D01*
X130702152Y-78538642D01*
X130702149Y-78538644D01*
X130697171Y-78540965D01*
X130503599Y-78676505D01*
X130336505Y-78843599D01*
X130200965Y-79037171D01*
X130198644Y-79042149D01*
X130198642Y-79042152D01*
X130107756Y-79237057D01*
X130101097Y-79251337D01*
X130099675Y-79256645D01*
X130099674Y-79256647D01*
X130041361Y-79474277D01*
X130039937Y-79479592D01*
X130019341Y-79715000D01*
X130039937Y-79950408D01*
X130041361Y-79955722D01*
X130041361Y-79955723D01*
X130053689Y-80001730D01*
X130101097Y-80178663D01*
X130103419Y-80183643D01*
X130103420Y-80183645D01*
X130197987Y-80386442D01*
X130200965Y-80392829D01*
X130336505Y-80586401D01*
X130503599Y-80753495D01*
X130508107Y-80756652D01*
X130508110Y-80756654D01*
X130692661Y-80885878D01*
X130697170Y-80889035D01*
X130702152Y-80891358D01*
X130702157Y-80891361D01*
X130889687Y-80978808D01*
X130942972Y-81025726D01*
X130962433Y-81094003D01*
X130941891Y-81161963D01*
X130887868Y-81208028D01*
X130884627Y-81209349D01*
X130882994Y-81210128D01*
X130877575Y-81212127D01*
X130872614Y-81215079D01*
X130872613Y-81215079D01*
X130792393Y-81262805D01*
X130695856Y-81320238D01*
X130536881Y-81459655D01*
X130405976Y-81625708D01*
X130403287Y-81630819D01*
X130403285Y-81630822D01*
X130378315Y-81678282D01*
X130307523Y-81812836D01*
X130244820Y-82014773D01*
X130219967Y-82224754D01*
X130233796Y-82435749D01*
X130235217Y-82441345D01*
X130235218Y-82441350D01*
X130260712Y-82541730D01*
X130285845Y-82640690D01*
X130288262Y-82645933D01*
X130369660Y-82822500D01*
X130374369Y-82832714D01*
X130496405Y-83005391D01*
X130500539Y-83009418D01*
X130577689Y-83084574D01*
X130647865Y-83152937D01*
X130652661Y-83156142D01*
X130652664Y-83156144D01*
X130749011Y-83220521D01*
X130823677Y-83270411D01*
X130828985Y-83272692D01*
X130828986Y-83272692D01*
X131012650Y-83351600D01*
X131012653Y-83351601D01*
X131017953Y-83353878D01*
X131023582Y-83355152D01*
X131023583Y-83355152D01*
X131218550Y-83399269D01*
X131218553Y-83399269D01*
X131224186Y-83400544D01*
X131229958Y-83400771D01*
X131235687Y-83401525D01*
X131235327Y-83404257D01*
X131291604Y-83423216D01*
X131335950Y-83478659D01*
X131343282Y-83549276D01*
X131311271Y-83612647D01*
X131250081Y-83648651D01*
X131240704Y-83650632D01*
X131081650Y-83677962D01*
X131081649Y-83677962D01*
X131075953Y-83678941D01*
X130877575Y-83752127D01*
X130872614Y-83755079D01*
X130872613Y-83755079D01*
X130855089Y-83765505D01*
X130695856Y-83860238D01*
X130536881Y-83999655D01*
X130405976Y-84165708D01*
X130307523Y-84352836D01*
X130244820Y-84554773D01*
X130219967Y-84764754D01*
X130233796Y-84975749D01*
X130235217Y-84981345D01*
X130235218Y-84981350D01*
X130257784Y-85070200D01*
X130285845Y-85180690D01*
X130374369Y-85372714D01*
X130496405Y-85545391D01*
X130647865Y-85692937D01*
X130652661Y-85696142D01*
X130652664Y-85696144D01*
X130733333Y-85750045D01*
X130823677Y-85810411D01*
X130828980Y-85812690D01*
X130828985Y-85812692D01*
X130863818Y-85827657D01*
X130881768Y-85835369D01*
X130936460Y-85880636D01*
X130957998Y-85948287D01*
X130939541Y-86016842D01*
X130886951Y-86064537D01*
X130871175Y-86070901D01*
X130851868Y-86077212D01*
X130842359Y-86081209D01*
X130653463Y-86179542D01*
X130644738Y-86185036D01*
X130474433Y-86312905D01*
X130466726Y-86319748D01*
X130319590Y-86473717D01*
X130313104Y-86481727D01*
X130193098Y-86657649D01*
X130188000Y-86666623D01*
X130098338Y-86859783D01*
X130094775Y-86869470D01*
X130039389Y-87069183D01*
X130040912Y-87077607D01*
X130053292Y-87081000D01*
X132693344Y-87081000D01*
X132706875Y-87077027D01*
X132708180Y-87067947D01*
X132666214Y-86900875D01*
X132662894Y-86891124D01*
X132577972Y-86695814D01*
X132573105Y-86686739D01*
X132457426Y-86507926D01*
X132451136Y-86499757D01*
X132307806Y-86342240D01*
X132300273Y-86335215D01*
X132133139Y-86203222D01*
X132124552Y-86197517D01*
X131938117Y-86094599D01*
X131928705Y-86090369D01*
X131877178Y-86072122D01*
X131819642Y-86030528D01*
X131793726Y-85964430D01*
X131799246Y-85936853D01*
X138920977Y-85936853D01*
X138926258Y-85943907D01*
X139087756Y-86038279D01*
X139097042Y-86042729D01*
X139296001Y-86118703D01*
X139305899Y-86121579D01*
X139514595Y-86164038D01*
X139524823Y-86165257D01*
X139737650Y-86173062D01*
X139747936Y-86172595D01*
X139959185Y-86145534D01*
X139969262Y-86143392D01*
X140173255Y-86082191D01*
X140182842Y-86078433D01*
X140374098Y-85984738D01*
X140382944Y-85979465D01*
X140430247Y-85945723D01*
X140438648Y-85935023D01*
X140431660Y-85921870D01*
X139693812Y-85184022D01*
X139679868Y-85176408D01*
X139678035Y-85176539D01*
X139671420Y-85180790D01*
X138927737Y-85924473D01*
X138920977Y-85936853D01*
X131799246Y-85936853D01*
X131807660Y-85894814D01*
X131857672Y-85843415D01*
X131872041Y-85835368D01*
X132029442Y-85747219D01*
X132192012Y-85612012D01*
X132327219Y-85449442D01*
X132330043Y-85444399D01*
X132330046Y-85444395D01*
X132427713Y-85269998D01*
X132427714Y-85269996D01*
X132430537Y-85264955D01*
X132432393Y-85259488D01*
X132432395Y-85259483D01*
X132496647Y-85070200D01*
X132498504Y-85064730D01*
X132508401Y-84996477D01*
X132528314Y-84859140D01*
X132528314Y-84859138D01*
X132528846Y-84855470D01*
X132530374Y-84797086D01*
X132534636Y-84783863D01*
X138319050Y-84783863D01*
X138331309Y-84996477D01*
X138332745Y-85006697D01*
X138379565Y-85214446D01*
X138382645Y-85224275D01*
X138462770Y-85421603D01*
X138467413Y-85430794D01*
X138547460Y-85561420D01*
X138557916Y-85570880D01*
X138566694Y-85567096D01*
X139308978Y-84824812D01*
X139315356Y-84813132D01*
X140045408Y-84813132D01*
X140045539Y-84814965D01*
X140049790Y-84821580D01*
X140791474Y-85563264D01*
X140803484Y-85569823D01*
X140815223Y-85560855D01*
X140846004Y-85518019D01*
X140851315Y-85509180D01*
X140945670Y-85318267D01*
X140949469Y-85308672D01*
X141011376Y-85104915D01*
X141013555Y-85094834D01*
X141041590Y-84881887D01*
X141042109Y-84875212D01*
X141043572Y-84815364D01*
X141043378Y-84808646D01*
X141025781Y-84594604D01*
X141024096Y-84584424D01*
X140972214Y-84377875D01*
X140968894Y-84368124D01*
X140883972Y-84172814D01*
X140879105Y-84163739D01*
X140814063Y-84063197D01*
X140803377Y-84053995D01*
X140793812Y-84058398D01*
X140053022Y-84799188D01*
X140045408Y-84813132D01*
X139315356Y-84813132D01*
X139316592Y-84810868D01*
X139316461Y-84809035D01*
X139312210Y-84802420D01*
X138570849Y-84061059D01*
X138559313Y-84054759D01*
X138547031Y-84064382D01*
X138499089Y-84134662D01*
X138494004Y-84143613D01*
X138404338Y-84336783D01*
X138400775Y-84346470D01*
X138343864Y-84551681D01*
X138341933Y-84561800D01*
X138319302Y-84773574D01*
X138319050Y-84783863D01*
X132534636Y-84783863D01*
X132552152Y-84729513D01*
X132567236Y-84711289D01*
X134419119Y-82859405D01*
X134481431Y-82825380D01*
X134508214Y-82822500D01*
X138595894Y-82822500D01*
X138664015Y-82842502D01*
X138698790Y-82875779D01*
X138802405Y-83022391D01*
X138953865Y-83169937D01*
X138958661Y-83173142D01*
X138958664Y-83173144D01*
X139039333Y-83227045D01*
X139129677Y-83287411D01*
X139134980Y-83289690D01*
X139134985Y-83289692D01*
X139169818Y-83304657D01*
X139187768Y-83312369D01*
X139242460Y-83357636D01*
X139263998Y-83425287D01*
X139245541Y-83493842D01*
X139192951Y-83541537D01*
X139177175Y-83547901D01*
X139157868Y-83554212D01*
X139148359Y-83558209D01*
X138959466Y-83656540D01*
X138950734Y-83662039D01*
X138930677Y-83677099D01*
X138922223Y-83688427D01*
X138928968Y-83700758D01*
X139668188Y-84439978D01*
X139682132Y-84447592D01*
X139683965Y-84447461D01*
X139690580Y-84443210D01*
X140434389Y-83699401D01*
X140441410Y-83686544D01*
X140434611Y-83677213D01*
X140430554Y-83674518D01*
X140244117Y-83571599D01*
X140234705Y-83567369D01*
X140183178Y-83549122D01*
X140125642Y-83507528D01*
X140099726Y-83441430D01*
X140113660Y-83371814D01*
X140163672Y-83320415D01*
X140178041Y-83312368D01*
X140335442Y-83224219D01*
X140498012Y-83089012D01*
X140633219Y-82926442D01*
X140636043Y-82921399D01*
X140636046Y-82921395D01*
X140733713Y-82746998D01*
X140733714Y-82746996D01*
X140736537Y-82741955D01*
X140738393Y-82736488D01*
X140738395Y-82736483D01*
X140802647Y-82547200D01*
X140804504Y-82541730D01*
X140834846Y-82332470D01*
X140836429Y-82272000D01*
X140817081Y-82061440D01*
X140759686Y-81857931D01*
X140748400Y-81835044D01*
X140668719Y-81673469D01*
X140666165Y-81668290D01*
X140539651Y-81498867D01*
X140384381Y-81355337D01*
X140205554Y-81242505D01*
X140009160Y-81164152D01*
X140003503Y-81163027D01*
X140003497Y-81163025D01*
X139806234Y-81123788D01*
X139743324Y-81090881D01*
X139708192Y-81029186D01*
X139711992Y-80958291D01*
X139753517Y-80900705D01*
X139812734Y-80875513D01*
X139945015Y-80856333D01*
X139945019Y-80856332D01*
X139950730Y-80855504D01*
X140050261Y-80821718D01*
X140145483Y-80789395D01*
X140145488Y-80789393D01*
X140150955Y-80787537D01*
X140155998Y-80784713D01*
X140330395Y-80687046D01*
X140330399Y-80687043D01*
X140335442Y-80684219D01*
X140498012Y-80549012D01*
X140633219Y-80386442D01*
X140636043Y-80381399D01*
X140636046Y-80381395D01*
X140733713Y-80206998D01*
X140733714Y-80206996D01*
X140736537Y-80201955D01*
X140738393Y-80196488D01*
X140738395Y-80196483D01*
X140802647Y-80007200D01*
X140804504Y-80001730D01*
X140834846Y-79792470D01*
X140836429Y-79732000D01*
X140817081Y-79521440D01*
X140759686Y-79317931D01*
X140726846Y-79251337D01*
X140668719Y-79133469D01*
X140666165Y-79128290D01*
X140539651Y-78958867D01*
X140384381Y-78815337D01*
X140205554Y-78702505D01*
X140170059Y-78688344D01*
X140114200Y-78644522D01*
X140090900Y-78577458D01*
X140107556Y-78508443D01*
X140163500Y-78457119D01*
X140166312Y-78455808D01*
X140222697Y-78429515D01*
X140353843Y-78368361D01*
X140353848Y-78368358D01*
X140358830Y-78366035D01*
X140407320Y-78332082D01*
X140547890Y-78233654D01*
X140547893Y-78233652D01*
X140552401Y-78230495D01*
X140719495Y-78063401D01*
X140855035Y-77869829D01*
X140883218Y-77809392D01*
X140952580Y-77660645D01*
X140952581Y-77660643D01*
X140954903Y-77655663D01*
X141016063Y-77427408D01*
X141036659Y-77192000D01*
X141016063Y-76956592D01*
X141011593Y-76939909D01*
X140956326Y-76733647D01*
X140956325Y-76733645D01*
X140954903Y-76728337D01*
X140935176Y-76686032D01*
X140857358Y-76519152D01*
X140857356Y-76519149D01*
X140855035Y-76514171D01*
X140719495Y-76320599D01*
X140602491Y-76203595D01*
X140568465Y-76141283D01*
X140573530Y-76070468D01*
X140616077Y-76013632D01*
X140682597Y-75988821D01*
X140691586Y-75988500D01*
X157047007Y-75988500D01*
X157052284Y-75988611D01*
X157114294Y-75991210D01*
X157122659Y-75989248D01*
X157156662Y-75981273D01*
X157168333Y-75979110D01*
X157183229Y-75977069D01*
X157211432Y-75973206D01*
X157225230Y-75967235D01*
X157246499Y-75960201D01*
X157252775Y-75958729D01*
X157261136Y-75956768D01*
X157268661Y-75952631D01*
X157268664Y-75952630D01*
X157299268Y-75935805D01*
X157309913Y-75930589D01*
X157349855Y-75913305D01*
X157361541Y-75903842D01*
X157380126Y-75891354D01*
X157387518Y-75887290D01*
X157393308Y-75884107D01*
X157401422Y-75877103D01*
X157425958Y-75852567D01*
X157435759Y-75843742D01*
X157460392Y-75823794D01*
X157460393Y-75823793D01*
X157467070Y-75818386D01*
X157472043Y-75811388D01*
X157472048Y-75811383D01*
X157477968Y-75803052D01*
X157491579Y-75786946D01*
X158708504Y-74570021D01*
X158770816Y-74535995D01*
X158787669Y-74533736D01*
X158790470Y-74533846D01*
X158796178Y-74533018D01*
X158796184Y-74533018D01*
X158994015Y-74504333D01*
X158994019Y-74504332D01*
X158999730Y-74503504D01*
X159086579Y-74474023D01*
X159194483Y-74437395D01*
X159194488Y-74437393D01*
X159199955Y-74435537D01*
X159207182Y-74431490D01*
X159261934Y-74400827D01*
X159331142Y-74384993D01*
X159397924Y-74409090D01*
X159441077Y-74465467D01*
X159449500Y-74510761D01*
X159449500Y-75719785D01*
X159429498Y-75787906D01*
X159412595Y-75808880D01*
X157121358Y-78100118D01*
X157117549Y-78103771D01*
X157071844Y-78145799D01*
X157048901Y-78182802D01*
X157042200Y-78192552D01*
X157015888Y-78227217D01*
X157010354Y-78241195D01*
X157000293Y-78261199D01*
X156992365Y-78273986D01*
X156989968Y-78282237D01*
X156989967Y-78282239D01*
X156980225Y-78315772D01*
X156976380Y-78327002D01*
X156960364Y-78367453D01*
X156959466Y-78375994D01*
X156959466Y-78375995D01*
X156958792Y-78382408D01*
X156954480Y-78404383D01*
X156950285Y-78418825D01*
X156949500Y-78429515D01*
X156949500Y-78464217D01*
X156948810Y-78477387D01*
X156944599Y-78517454D01*
X156946031Y-78525919D01*
X156946031Y-78525928D01*
X156947735Y-78536000D01*
X156949500Y-78557013D01*
X156949500Y-86734779D01*
X156939910Y-86782995D01*
X156914956Y-86843238D01*
X156913878Y-86851426D01*
X156908652Y-86891124D01*
X156894318Y-87000000D01*
X156914956Y-87156762D01*
X156975464Y-87302841D01*
X157071718Y-87428282D01*
X157197159Y-87524536D01*
X157343238Y-87585044D01*
X157351426Y-87586122D01*
X157401984Y-87592778D01*
X157500000Y-87605682D01*
X157508188Y-87604604D01*
X157648574Y-87586122D01*
X157656762Y-87585044D01*
X157802841Y-87524536D01*
X157928282Y-87428282D01*
X158024536Y-87302841D01*
X158085044Y-87156762D01*
X158105682Y-87000000D01*
X158091348Y-86891124D01*
X158086122Y-86851426D01*
X158085044Y-86843238D01*
X158060090Y-86782995D01*
X158050500Y-86734779D01*
X158050500Y-81902360D01*
X158070502Y-81834239D01*
X158124158Y-81787746D01*
X158194432Y-81777642D01*
X158224716Y-81785950D01*
X158343238Y-81835044D01*
X158500000Y-81855682D01*
X158508188Y-81854604D01*
X158648574Y-81836122D01*
X158656762Y-81835044D01*
X158802841Y-81774536D01*
X158928282Y-81678282D01*
X158951656Y-81647821D01*
X159019509Y-81559392D01*
X159024536Y-81552841D01*
X159049490Y-81492598D01*
X159076803Y-81451722D01*
X162768964Y-77759560D01*
X162831276Y-77725534D01*
X162902091Y-77730599D01*
X162958927Y-77773146D01*
X162967607Y-77788388D01*
X162968175Y-77788060D01*
X162972303Y-77795211D01*
X162975464Y-77802841D01*
X163071718Y-77928282D01*
X163197159Y-78024536D01*
X163343238Y-78085044D01*
X163500000Y-78105682D01*
X163508188Y-78104604D01*
X163514516Y-78103771D01*
X163656762Y-78085044D01*
X163717005Y-78060090D01*
X163765221Y-78050500D01*
X164235007Y-78050500D01*
X164240284Y-78050611D01*
X164302294Y-78053210D01*
X164313848Y-78050500D01*
X164344662Y-78043273D01*
X164356333Y-78041110D01*
X164371229Y-78039069D01*
X164399432Y-78035206D01*
X164413230Y-78029235D01*
X164434499Y-78022201D01*
X164440775Y-78020729D01*
X164449136Y-78018768D01*
X164456661Y-78014631D01*
X164456664Y-78014630D01*
X164487268Y-77997805D01*
X164497913Y-77992589D01*
X164537855Y-77975305D01*
X164549541Y-77965842D01*
X164568126Y-77953354D01*
X164575518Y-77949290D01*
X164581308Y-77946107D01*
X164589422Y-77939103D01*
X164613958Y-77914567D01*
X164623759Y-77905742D01*
X164648392Y-77885794D01*
X164648393Y-77885793D01*
X164655070Y-77880386D01*
X164662573Y-77869829D01*
X164665966Y-77865054D01*
X164679576Y-77848949D01*
X165471797Y-77056727D01*
X165475607Y-77053074D01*
X165509427Y-77021975D01*
X165521299Y-77011058D01*
X165544230Y-76974074D01*
X165550944Y-76964304D01*
X165577255Y-76929641D01*
X165582789Y-76915664D01*
X165592852Y-76895655D01*
X165596254Y-76890169D01*
X165596256Y-76890165D01*
X165600778Y-76882871D01*
X165603172Y-76874629D01*
X165603174Y-76874626D01*
X165612922Y-76841073D01*
X165616761Y-76829860D01*
X165632778Y-76789404D01*
X165634349Y-76774455D01*
X165638662Y-76752472D01*
X165641016Y-76744371D01*
X165642858Y-76738032D01*
X165643643Y-76727342D01*
X165643643Y-76692638D01*
X165644333Y-76679467D01*
X165647646Y-76647945D01*
X165648544Y-76639403D01*
X165647112Y-76630938D01*
X165647112Y-76630929D01*
X165645408Y-76620857D01*
X165643643Y-76599844D01*
X165643643Y-74520074D01*
X165663645Y-74451953D01*
X165717301Y-74405460D01*
X165787575Y-74395356D01*
X165819380Y-74404306D01*
X165987650Y-74476600D01*
X165987653Y-74476601D01*
X165992953Y-74478878D01*
X165998582Y-74480152D01*
X165998583Y-74480152D01*
X166193550Y-74524269D01*
X166193553Y-74524269D01*
X166199186Y-74525544D01*
X166204957Y-74525771D01*
X166204959Y-74525771D01*
X166266989Y-74528208D01*
X166410470Y-74533846D01*
X166416179Y-74533018D01*
X166416183Y-74533018D01*
X166614015Y-74504333D01*
X166614019Y-74504332D01*
X166619730Y-74503504D01*
X166706579Y-74474023D01*
X166814483Y-74437395D01*
X166814488Y-74437393D01*
X166819955Y-74435537D01*
X166901936Y-74389625D01*
X166971142Y-74373792D01*
X167037924Y-74397889D01*
X167081077Y-74454265D01*
X167089500Y-74499560D01*
X167089500Y-76005772D01*
X167069498Y-76073893D01*
X167063463Y-76082476D01*
X166975464Y-76197159D01*
X166914956Y-76343238D01*
X166894318Y-76500000D01*
X166914956Y-76656762D01*
X166975464Y-76802841D01*
X167071718Y-76928282D01*
X167078264Y-76933305D01*
X167086805Y-76939859D01*
X167197159Y-77024536D01*
X167343238Y-77085044D01*
X167500000Y-77105682D01*
X167508188Y-77104604D01*
X167648574Y-77086122D01*
X167656762Y-77085044D01*
X167802841Y-77024536D01*
X167913195Y-76939859D01*
X167921736Y-76933305D01*
X167928282Y-76928282D01*
X168024536Y-76802841D01*
X168048596Y-76744755D01*
X168065546Y-76716601D01*
X168068156Y-76714201D01*
X168091099Y-76677198D01*
X168097800Y-76667448D01*
X168124112Y-76632783D01*
X168129646Y-76618804D01*
X168139707Y-76598801D01*
X168147635Y-76586014D01*
X168159775Y-76544228D01*
X168163621Y-76532995D01*
X168176473Y-76500535D01*
X168179636Y-76492547D01*
X168181208Y-76477592D01*
X168185520Y-76455617D01*
X168189715Y-76441175D01*
X168190500Y-76430485D01*
X168190500Y-76395783D01*
X168191190Y-76382613D01*
X168194176Y-76354201D01*
X168195401Y-76342546D01*
X168193969Y-76334081D01*
X168193969Y-76334072D01*
X168192265Y-76324000D01*
X168190500Y-76302987D01*
X168190500Y-74523020D01*
X168210502Y-74454899D01*
X168264158Y-74408406D01*
X168334432Y-74398302D01*
X168366237Y-74407252D01*
X168527650Y-74476600D01*
X168527653Y-74476601D01*
X168532953Y-74478878D01*
X168538582Y-74480152D01*
X168538583Y-74480152D01*
X168733550Y-74524269D01*
X168733553Y-74524269D01*
X168739186Y-74525544D01*
X168744957Y-74525771D01*
X168744959Y-74525771D01*
X168806989Y-74528208D01*
X168950470Y-74533846D01*
X168956179Y-74533018D01*
X168956183Y-74533018D01*
X169154015Y-74504333D01*
X169154019Y-74504332D01*
X169159730Y-74503504D01*
X169246579Y-74474023D01*
X169354483Y-74437395D01*
X169354488Y-74437393D01*
X169359955Y-74435537D01*
X169364998Y-74432713D01*
X169539395Y-74335046D01*
X169539399Y-74335043D01*
X169544442Y-74332219D01*
X169707012Y-74197012D01*
X169842219Y-74034442D01*
X169845043Y-74029399D01*
X169845046Y-74029395D01*
X169942713Y-73854998D01*
X169942714Y-73854996D01*
X169945537Y-73849955D01*
X169947393Y-73844488D01*
X169947395Y-73844483D01*
X170011647Y-73655200D01*
X170013504Y-73649730D01*
X170018481Y-73615408D01*
X170035090Y-73500860D01*
X170064660Y-73436315D01*
X170124432Y-73398003D01*
X170195429Y-73398087D01*
X170255109Y-73436542D01*
X170284525Y-73501158D01*
X170285515Y-73510695D01*
X170288796Y-73560749D01*
X170290217Y-73566345D01*
X170290218Y-73566350D01*
X170312784Y-73655200D01*
X170340845Y-73765690D01*
X170429369Y-73957714D01*
X170551405Y-74130391D01*
X170619793Y-74197012D01*
X170695727Y-74270983D01*
X170702865Y-74277937D01*
X170707661Y-74281142D01*
X170707664Y-74281144D01*
X170836640Y-74367323D01*
X170878677Y-74395411D01*
X170883985Y-74397692D01*
X170883986Y-74397692D01*
X171067650Y-74476600D01*
X171067653Y-74476601D01*
X171072953Y-74478878D01*
X171078582Y-74480152D01*
X171078583Y-74480152D01*
X171273550Y-74524269D01*
X171273553Y-74524269D01*
X171279186Y-74525544D01*
X171284957Y-74525771D01*
X171284959Y-74525771D01*
X171346989Y-74528208D01*
X171490470Y-74533846D01*
X171496179Y-74533018D01*
X171496183Y-74533018D01*
X171694015Y-74504333D01*
X171694019Y-74504332D01*
X171699730Y-74503504D01*
X171786579Y-74474023D01*
X171894483Y-74437395D01*
X171894488Y-74437393D01*
X171899955Y-74435537D01*
X171904998Y-74432713D01*
X172079395Y-74335046D01*
X172079399Y-74335043D01*
X172084442Y-74332219D01*
X172247012Y-74197012D01*
X172382219Y-74034442D01*
X172385043Y-74029399D01*
X172385046Y-74029395D01*
X172482713Y-73854998D01*
X172482714Y-73854996D01*
X172485537Y-73849955D01*
X172487393Y-73844488D01*
X172487395Y-73844483D01*
X172551647Y-73655200D01*
X172553504Y-73649730D01*
X172558481Y-73615408D01*
X172575090Y-73500860D01*
X172604660Y-73436315D01*
X172664432Y-73398003D01*
X172735429Y-73398087D01*
X172795109Y-73436542D01*
X172824525Y-73501158D01*
X172825515Y-73510695D01*
X172828796Y-73560749D01*
X172830217Y-73566345D01*
X172830218Y-73566350D01*
X172852784Y-73655200D01*
X172880845Y-73765690D01*
X172969369Y-73957714D01*
X173091405Y-74130391D01*
X173159793Y-74197012D01*
X173235727Y-74270983D01*
X173242865Y-74277937D01*
X173247661Y-74281142D01*
X173247664Y-74281144D01*
X173376640Y-74367323D01*
X173418677Y-74395411D01*
X173423985Y-74397692D01*
X173423986Y-74397692D01*
X173607650Y-74476600D01*
X173607653Y-74476601D01*
X173612953Y-74478878D01*
X173618582Y-74480152D01*
X173618583Y-74480152D01*
X173813550Y-74524269D01*
X173813553Y-74524269D01*
X173819186Y-74525544D01*
X173824957Y-74525771D01*
X173824959Y-74525771D01*
X173886989Y-74528208D01*
X174030470Y-74533846D01*
X174036179Y-74533018D01*
X174036183Y-74533018D01*
X174234015Y-74504333D01*
X174234019Y-74504332D01*
X174239730Y-74503504D01*
X174326579Y-74474023D01*
X174434483Y-74437395D01*
X174434488Y-74437393D01*
X174439955Y-74435537D01*
X174444998Y-74432713D01*
X174619395Y-74335046D01*
X174619399Y-74335043D01*
X174624442Y-74332219D01*
X174787012Y-74197012D01*
X174922219Y-74034442D01*
X174925043Y-74029399D01*
X174925046Y-74029395D01*
X175022713Y-73854998D01*
X175022714Y-73854996D01*
X175025537Y-73849955D01*
X175027393Y-73844488D01*
X175027395Y-73844483D01*
X175091647Y-73655200D01*
X175093504Y-73649730D01*
X175098481Y-73615408D01*
X175115090Y-73500860D01*
X175144660Y-73436315D01*
X175204432Y-73398003D01*
X175275429Y-73398087D01*
X175335109Y-73436542D01*
X175364525Y-73501158D01*
X175365515Y-73510695D01*
X175368796Y-73560749D01*
X175370217Y-73566345D01*
X175370218Y-73566350D01*
X175392784Y-73655200D01*
X175420845Y-73765690D01*
X175509369Y-73957714D01*
X175631405Y-74130391D01*
X175699793Y-74197012D01*
X175775727Y-74270983D01*
X175782865Y-74277937D01*
X175787661Y-74281142D01*
X175787664Y-74281144D01*
X175916640Y-74367323D01*
X175958677Y-74395411D01*
X175963985Y-74397692D01*
X175963986Y-74397692D01*
X176147650Y-74476600D01*
X176147653Y-74476601D01*
X176152953Y-74478878D01*
X176158582Y-74480152D01*
X176158583Y-74480152D01*
X176353550Y-74524269D01*
X176353553Y-74524269D01*
X176359186Y-74525544D01*
X176364957Y-74525771D01*
X176364959Y-74525771D01*
X176426989Y-74528208D01*
X176570470Y-74533846D01*
X176576179Y-74533018D01*
X176576183Y-74533018D01*
X176774015Y-74504333D01*
X176774019Y-74504332D01*
X176779730Y-74503504D01*
X176866579Y-74474023D01*
X176974483Y-74437395D01*
X176974488Y-74437393D01*
X176979955Y-74435537D01*
X176984998Y-74432713D01*
X177159395Y-74335046D01*
X177159399Y-74335043D01*
X177164442Y-74332219D01*
X177327012Y-74197012D01*
X177462219Y-74034442D01*
X177465043Y-74029399D01*
X177465046Y-74029395D01*
X177562713Y-73854998D01*
X177562714Y-73854996D01*
X177565537Y-73849955D01*
X177567393Y-73844488D01*
X177567395Y-73844483D01*
X177631647Y-73655200D01*
X177633504Y-73649730D01*
X177638481Y-73615408D01*
X177655090Y-73500860D01*
X177684660Y-73436315D01*
X177744432Y-73398003D01*
X177815429Y-73398087D01*
X177875109Y-73436542D01*
X177904525Y-73501158D01*
X177905515Y-73510695D01*
X177908796Y-73560749D01*
X177910217Y-73566345D01*
X177910218Y-73566350D01*
X177932784Y-73655200D01*
X177960845Y-73765690D01*
X178049369Y-73957714D01*
X178171405Y-74130391D01*
X178239793Y-74197012D01*
X178315727Y-74270983D01*
X178322865Y-74277937D01*
X178327661Y-74281142D01*
X178327664Y-74281144D01*
X178456640Y-74367323D01*
X178498677Y-74395411D01*
X178503985Y-74397692D01*
X178503986Y-74397692D01*
X178687650Y-74476600D01*
X178687653Y-74476601D01*
X178692953Y-74478878D01*
X178698582Y-74480152D01*
X178698583Y-74480152D01*
X178893550Y-74524269D01*
X178893553Y-74524269D01*
X178899186Y-74525544D01*
X178904957Y-74525771D01*
X178904959Y-74525771D01*
X178966989Y-74528208D01*
X179110470Y-74533846D01*
X179116179Y-74533018D01*
X179116183Y-74533018D01*
X179314015Y-74504333D01*
X179314019Y-74504332D01*
X179319730Y-74503504D01*
X179406579Y-74474023D01*
X179514483Y-74437395D01*
X179514488Y-74437393D01*
X179519955Y-74435537D01*
X179524998Y-74432713D01*
X179699395Y-74335046D01*
X179699399Y-74335043D01*
X179704442Y-74332219D01*
X179867012Y-74197012D01*
X180002219Y-74034442D01*
X180005043Y-74029399D01*
X180005046Y-74029395D01*
X180102713Y-73854998D01*
X180102714Y-73854996D01*
X180105537Y-73849955D01*
X180107393Y-73844488D01*
X180107395Y-73844483D01*
X180171647Y-73655200D01*
X180173504Y-73649730D01*
X180178481Y-73615408D01*
X180195090Y-73500860D01*
X180224660Y-73436315D01*
X180284432Y-73398003D01*
X180355429Y-73398087D01*
X180415109Y-73436542D01*
X180444525Y-73501158D01*
X180445515Y-73510695D01*
X180448796Y-73560749D01*
X180450217Y-73566345D01*
X180450218Y-73566350D01*
X180472784Y-73655200D01*
X180500845Y-73765690D01*
X180589369Y-73957714D01*
X180711405Y-74130391D01*
X180779793Y-74197012D01*
X180855727Y-74270983D01*
X180862865Y-74277937D01*
X180867661Y-74281142D01*
X180867664Y-74281144D01*
X180996640Y-74367323D01*
X181038677Y-74395411D01*
X181043985Y-74397692D01*
X181043986Y-74397692D01*
X181227650Y-74476600D01*
X181227653Y-74476601D01*
X181232953Y-74478878D01*
X181238582Y-74480152D01*
X181238583Y-74480152D01*
X181433550Y-74524269D01*
X181433553Y-74524269D01*
X181439186Y-74525544D01*
X181444957Y-74525771D01*
X181444959Y-74525771D01*
X181506989Y-74528208D01*
X181650470Y-74533846D01*
X181656179Y-74533018D01*
X181656183Y-74533018D01*
X181854015Y-74504333D01*
X181854019Y-74504332D01*
X181859730Y-74503504D01*
X181946579Y-74474023D01*
X182054483Y-74437395D01*
X182054488Y-74437393D01*
X182059955Y-74435537D01*
X182064998Y-74432713D01*
X182239395Y-74335046D01*
X182239399Y-74335043D01*
X182244442Y-74332219D01*
X182407012Y-74197012D01*
X182542219Y-74034442D01*
X182545043Y-74029399D01*
X182545046Y-74029395D01*
X182642713Y-73854998D01*
X182642714Y-73854996D01*
X182645537Y-73849955D01*
X182647393Y-73844488D01*
X182647395Y-73844483D01*
X182711647Y-73655200D01*
X182713504Y-73649730D01*
X182719470Y-73608584D01*
X182728804Y-73544211D01*
X182758374Y-73479665D01*
X182818146Y-73441353D01*
X182889143Y-73441437D01*
X182948823Y-73479892D01*
X182978239Y-73544508D01*
X182979500Y-73562291D01*
X182979500Y-74274646D01*
X182982618Y-74300846D01*
X182986456Y-74309486D01*
X182986456Y-74309487D01*
X183022089Y-74389709D01*
X183028061Y-74403153D01*
X183036294Y-74411372D01*
X183036295Y-74411373D01*
X183062363Y-74437395D01*
X183107287Y-74482241D01*
X183117924Y-74486944D01*
X183117926Y-74486945D01*
X183171797Y-74510761D01*
X183209673Y-74527506D01*
X183235354Y-74530500D01*
X185024646Y-74530500D01*
X185028350Y-74530059D01*
X185028353Y-74530059D01*
X185035746Y-74529179D01*
X185050846Y-74527382D01*
X185060667Y-74523020D01*
X185142518Y-74486663D01*
X185153153Y-74481939D01*
X185169597Y-74465467D01*
X185216486Y-74418495D01*
X185232241Y-74402713D01*
X185237991Y-74389709D01*
X185263265Y-74332538D01*
X185277506Y-74300327D01*
X185280500Y-74274646D01*
X185280500Y-72485354D01*
X185277382Y-72459154D01*
X185241350Y-72378033D01*
X185236663Y-72367482D01*
X185231939Y-72356847D01*
X185223444Y-72348366D01*
X185169500Y-72294517D01*
X185152713Y-72277759D01*
X185142076Y-72273056D01*
X185142074Y-72273055D01*
X185079096Y-72245213D01*
X185050327Y-72232494D01*
X185024646Y-72229500D01*
X183235354Y-72229500D01*
X183231650Y-72229941D01*
X183231647Y-72229941D01*
X183224254Y-72230821D01*
X183209154Y-72232618D01*
X183200514Y-72236456D01*
X183200513Y-72236456D01*
X183134131Y-72265942D01*
X183106847Y-72278061D01*
X183098628Y-72286294D01*
X183098627Y-72286295D01*
X183088909Y-72296030D01*
X183027759Y-72357287D01*
X183023056Y-72367924D01*
X183023055Y-72367926D01*
X183010027Y-72397395D01*
X182982494Y-72459673D01*
X182979500Y-72485354D01*
X182979500Y-73179111D01*
X182959498Y-73247232D01*
X182905842Y-73293725D01*
X182835568Y-73303829D01*
X182770988Y-73274335D01*
X182732604Y-73214609D01*
X182728029Y-73190640D01*
X182726610Y-73175197D01*
X182726081Y-73169440D01*
X182719954Y-73147713D01*
X182708528Y-73107201D01*
X182668686Y-72965931D01*
X182659692Y-72947692D01*
X182577719Y-72781469D01*
X182575165Y-72776290D01*
X182465223Y-72629059D01*
X182452104Y-72611491D01*
X182452103Y-72611490D01*
X182448651Y-72606867D01*
X182329500Y-72496725D01*
X182297622Y-72467257D01*
X182297620Y-72467255D01*
X182293381Y-72463337D01*
X182151154Y-72373598D01*
X182119434Y-72353584D01*
X182119433Y-72353584D01*
X182114554Y-72350505D01*
X181918160Y-72272152D01*
X181912503Y-72271027D01*
X181912497Y-72271025D01*
X181716442Y-72232028D01*
X181716440Y-72232028D01*
X181710775Y-72230901D01*
X181705000Y-72230825D01*
X181704996Y-72230825D01*
X181598976Y-72229437D01*
X181499346Y-72228133D01*
X181493649Y-72229112D01*
X181493648Y-72229112D01*
X181296650Y-72262962D01*
X181296649Y-72262962D01*
X181290953Y-72263941D01*
X181092575Y-72337127D01*
X181087614Y-72340079D01*
X181087613Y-72340079D01*
X181016547Y-72382359D01*
X180910856Y-72445238D01*
X180751881Y-72584655D01*
X180620976Y-72750708D01*
X180618287Y-72755819D01*
X180618285Y-72755822D01*
X180604792Y-72781469D01*
X180522523Y-72937836D01*
X180459820Y-73139773D01*
X180459141Y-73145510D01*
X180445088Y-73264239D01*
X180417217Y-73329537D01*
X180358469Y-73369401D01*
X180287494Y-73371174D01*
X180226828Y-73334295D01*
X180195730Y-73270471D01*
X180194490Y-73260958D01*
X180192956Y-73244257D01*
X180186081Y-73169440D01*
X180179954Y-73147713D01*
X180168528Y-73107201D01*
X180128686Y-72965931D01*
X180119692Y-72947692D01*
X180037719Y-72781469D01*
X180035165Y-72776290D01*
X179925223Y-72629059D01*
X179912104Y-72611491D01*
X179912103Y-72611490D01*
X179908651Y-72606867D01*
X179789500Y-72496725D01*
X179757622Y-72467257D01*
X179757620Y-72467255D01*
X179753381Y-72463337D01*
X179611154Y-72373598D01*
X179579434Y-72353584D01*
X179579433Y-72353584D01*
X179574554Y-72350505D01*
X179378160Y-72272152D01*
X179372503Y-72271027D01*
X179372497Y-72271025D01*
X179176442Y-72232028D01*
X179176440Y-72232028D01*
X179170775Y-72230901D01*
X179165000Y-72230825D01*
X179164996Y-72230825D01*
X179058976Y-72229437D01*
X178959346Y-72228133D01*
X178953649Y-72229112D01*
X178953648Y-72229112D01*
X178756650Y-72262962D01*
X178756649Y-72262962D01*
X178750953Y-72263941D01*
X178552575Y-72337127D01*
X178547614Y-72340079D01*
X178547613Y-72340079D01*
X178476547Y-72382359D01*
X178370856Y-72445238D01*
X178211881Y-72584655D01*
X178080976Y-72750708D01*
X178078287Y-72755819D01*
X178078285Y-72755822D01*
X178064792Y-72781469D01*
X177982523Y-72937836D01*
X177919820Y-73139773D01*
X177919141Y-73145510D01*
X177905088Y-73264239D01*
X177877217Y-73329537D01*
X177818469Y-73369401D01*
X177747494Y-73371174D01*
X177686828Y-73334295D01*
X177655730Y-73270471D01*
X177654490Y-73260958D01*
X177652956Y-73244257D01*
X177646081Y-73169440D01*
X177639954Y-73147713D01*
X177628528Y-73107201D01*
X177588686Y-72965931D01*
X177579692Y-72947692D01*
X177497719Y-72781469D01*
X177495165Y-72776290D01*
X177385223Y-72629059D01*
X177372104Y-72611491D01*
X177372103Y-72611490D01*
X177368651Y-72606867D01*
X177249500Y-72496725D01*
X177217622Y-72467257D01*
X177217620Y-72467255D01*
X177213381Y-72463337D01*
X177071154Y-72373598D01*
X177039434Y-72353584D01*
X177039433Y-72353584D01*
X177034554Y-72350505D01*
X176838160Y-72272152D01*
X176832503Y-72271027D01*
X176832497Y-72271025D01*
X176636442Y-72232028D01*
X176636440Y-72232028D01*
X176630775Y-72230901D01*
X176625000Y-72230825D01*
X176624996Y-72230825D01*
X176518976Y-72229437D01*
X176419346Y-72228133D01*
X176413649Y-72229112D01*
X176413648Y-72229112D01*
X176216650Y-72262962D01*
X176216649Y-72262962D01*
X176210953Y-72263941D01*
X176012575Y-72337127D01*
X176007614Y-72340079D01*
X176007613Y-72340079D01*
X175936547Y-72382359D01*
X175830856Y-72445238D01*
X175671881Y-72584655D01*
X175540976Y-72750708D01*
X175538287Y-72755819D01*
X175538285Y-72755822D01*
X175524792Y-72781469D01*
X175442523Y-72937836D01*
X175379820Y-73139773D01*
X175379141Y-73145510D01*
X175365088Y-73264239D01*
X175337217Y-73329537D01*
X175278469Y-73369401D01*
X175207494Y-73371174D01*
X175146828Y-73334295D01*
X175115730Y-73270471D01*
X175114490Y-73260958D01*
X175112956Y-73244257D01*
X175106081Y-73169440D01*
X175099954Y-73147713D01*
X175088528Y-73107201D01*
X175048686Y-72965931D01*
X175039692Y-72947692D01*
X174957719Y-72781469D01*
X174955165Y-72776290D01*
X174845223Y-72629059D01*
X174832104Y-72611491D01*
X174832103Y-72611490D01*
X174828651Y-72606867D01*
X174709500Y-72496725D01*
X174677622Y-72467257D01*
X174677620Y-72467255D01*
X174673381Y-72463337D01*
X174531154Y-72373598D01*
X174499434Y-72353584D01*
X174499433Y-72353584D01*
X174494554Y-72350505D01*
X174298160Y-72272152D01*
X174292503Y-72271027D01*
X174292497Y-72271025D01*
X174096442Y-72232028D01*
X174096440Y-72232028D01*
X174090775Y-72230901D01*
X174085000Y-72230825D01*
X174084996Y-72230825D01*
X173978976Y-72229437D01*
X173879346Y-72228133D01*
X173873649Y-72229112D01*
X173873648Y-72229112D01*
X173676650Y-72262962D01*
X173676649Y-72262962D01*
X173670953Y-72263941D01*
X173472575Y-72337127D01*
X173467614Y-72340079D01*
X173467613Y-72340079D01*
X173396547Y-72382359D01*
X173290856Y-72445238D01*
X173131881Y-72584655D01*
X173000976Y-72750708D01*
X172998287Y-72755819D01*
X172998285Y-72755822D01*
X172984792Y-72781469D01*
X172902523Y-72937836D01*
X172839820Y-73139773D01*
X172839141Y-73145510D01*
X172825088Y-73264239D01*
X172797217Y-73329537D01*
X172738469Y-73369401D01*
X172667494Y-73371174D01*
X172606828Y-73334295D01*
X172575730Y-73270471D01*
X172574490Y-73260958D01*
X172572956Y-73244257D01*
X172566081Y-73169440D01*
X172559954Y-73147713D01*
X172548528Y-73107201D01*
X172508686Y-72965931D01*
X172499692Y-72947692D01*
X172417719Y-72781469D01*
X172415165Y-72776290D01*
X172305223Y-72629059D01*
X172292104Y-72611491D01*
X172292103Y-72611490D01*
X172288651Y-72606867D01*
X172169500Y-72496725D01*
X172137622Y-72467257D01*
X172137620Y-72467255D01*
X172133381Y-72463337D01*
X171991154Y-72373598D01*
X171959434Y-72353584D01*
X171959433Y-72353584D01*
X171954554Y-72350505D01*
X171758160Y-72272152D01*
X171752503Y-72271027D01*
X171752497Y-72271025D01*
X171556442Y-72232028D01*
X171556440Y-72232028D01*
X171550775Y-72230901D01*
X171545000Y-72230825D01*
X171544996Y-72230825D01*
X171438976Y-72229437D01*
X171339346Y-72228133D01*
X171333649Y-72229112D01*
X171333648Y-72229112D01*
X171136650Y-72262962D01*
X171136649Y-72262962D01*
X171130953Y-72263941D01*
X170932575Y-72337127D01*
X170927614Y-72340079D01*
X170927613Y-72340079D01*
X170856547Y-72382359D01*
X170750856Y-72445238D01*
X170591881Y-72584655D01*
X170460976Y-72750708D01*
X170458287Y-72755819D01*
X170458285Y-72755822D01*
X170444792Y-72781469D01*
X170362523Y-72937836D01*
X170299820Y-73139773D01*
X170299141Y-73145510D01*
X170285088Y-73264239D01*
X170257217Y-73329537D01*
X170198469Y-73369401D01*
X170127494Y-73371174D01*
X170066828Y-73334295D01*
X170035730Y-73270471D01*
X170034490Y-73260958D01*
X170032956Y-73244257D01*
X170026081Y-73169440D01*
X170019954Y-73147713D01*
X170008528Y-73107201D01*
X169968686Y-72965931D01*
X169959692Y-72947692D01*
X169877719Y-72781469D01*
X169875165Y-72776290D01*
X169765223Y-72629059D01*
X169752104Y-72611491D01*
X169752103Y-72611490D01*
X169748651Y-72606867D01*
X169629500Y-72496725D01*
X169597622Y-72467257D01*
X169597620Y-72467255D01*
X169593381Y-72463337D01*
X169451154Y-72373598D01*
X169419434Y-72353584D01*
X169419433Y-72353584D01*
X169414554Y-72350505D01*
X169218160Y-72272152D01*
X169212503Y-72271027D01*
X169212497Y-72271025D01*
X169016442Y-72232028D01*
X169016440Y-72232028D01*
X169010775Y-72230901D01*
X169005000Y-72230825D01*
X169004996Y-72230825D01*
X168898976Y-72229437D01*
X168799346Y-72228133D01*
X168793649Y-72229112D01*
X168793648Y-72229112D01*
X168596650Y-72262962D01*
X168596649Y-72262962D01*
X168590953Y-72263941D01*
X168392575Y-72337127D01*
X168387613Y-72340079D01*
X168387611Y-72340080D01*
X168380921Y-72344060D01*
X168312151Y-72361699D01*
X168244761Y-72339357D01*
X168200148Y-72284129D01*
X168190500Y-72235774D01*
X168190500Y-70638215D01*
X168210502Y-70570094D01*
X168227405Y-70549120D01*
X168939120Y-69837405D01*
X169001432Y-69803379D01*
X169028215Y-69800500D01*
X173559007Y-69800500D01*
X173564284Y-69800611D01*
X173626294Y-69803210D01*
X173637848Y-69800500D01*
X173668662Y-69793273D01*
X173680333Y-69791110D01*
X173695229Y-69789069D01*
X173723432Y-69785206D01*
X173737230Y-69779235D01*
X173758499Y-69772201D01*
X173764775Y-69770729D01*
X173773136Y-69768768D01*
X173780661Y-69764631D01*
X173780664Y-69764630D01*
X173811268Y-69747805D01*
X173821913Y-69742589D01*
X173861855Y-69725305D01*
X173873541Y-69715842D01*
X173892126Y-69703354D01*
X173899518Y-69699290D01*
X173905308Y-69696107D01*
X173913422Y-69689103D01*
X173937958Y-69664567D01*
X173947759Y-69655742D01*
X173972392Y-69635794D01*
X173972393Y-69635793D01*
X173979070Y-69630386D01*
X173984043Y-69623388D01*
X173984048Y-69623383D01*
X173989968Y-69615052D01*
X174003579Y-69598946D01*
X176717577Y-66884948D01*
X179441012Y-64161512D01*
X179503324Y-64127486D01*
X179535054Y-64124704D01*
X179561102Y-64125727D01*
X179640470Y-64128846D01*
X179646179Y-64128018D01*
X179646183Y-64128018D01*
X179844015Y-64099333D01*
X179844019Y-64099332D01*
X179849730Y-64098504D01*
X179913259Y-64076939D01*
X180044483Y-64032395D01*
X180044488Y-64032393D01*
X180049955Y-64030537D01*
X180063926Y-64022713D01*
X180229395Y-63930046D01*
X180229399Y-63930043D01*
X180234442Y-63927219D01*
X180397012Y-63792012D01*
X180532219Y-63629442D01*
X180535043Y-63624399D01*
X180535046Y-63624395D01*
X180632713Y-63449998D01*
X180632714Y-63449996D01*
X180635537Y-63444955D01*
X180637393Y-63439488D01*
X180637395Y-63439483D01*
X180701647Y-63250200D01*
X180703504Y-63244730D01*
X180713590Y-63175175D01*
X180733314Y-63039140D01*
X180733314Y-63039138D01*
X180733846Y-63035470D01*
X180735429Y-62975000D01*
X180716081Y-62764440D01*
X180710881Y-62746000D01*
X180667306Y-62591496D01*
X180658686Y-62560931D01*
X180649692Y-62542692D01*
X180567719Y-62376469D01*
X180565165Y-62371290D01*
X180438651Y-62201867D01*
X180330234Y-62101647D01*
X180287622Y-62062257D01*
X180287620Y-62062255D01*
X180283381Y-62058337D01*
X180250014Y-62037284D01*
X180109434Y-61948584D01*
X180109433Y-61948584D01*
X180104554Y-61945505D01*
X179908160Y-61867152D01*
X179902503Y-61866027D01*
X179902497Y-61866025D01*
X179706442Y-61827028D01*
X179706440Y-61827028D01*
X179700775Y-61825901D01*
X179695000Y-61825825D01*
X179694996Y-61825825D01*
X179588976Y-61824437D01*
X179489346Y-61823133D01*
X179483649Y-61824112D01*
X179483648Y-61824112D01*
X179286650Y-61857962D01*
X179286649Y-61857962D01*
X179280953Y-61858941D01*
X179082575Y-61932127D01*
X179077614Y-61935079D01*
X179077613Y-61935079D01*
X178962811Y-62003379D01*
X178900856Y-62040238D01*
X178741881Y-62179655D01*
X178610976Y-62345708D01*
X178608287Y-62350819D01*
X178608285Y-62350822D01*
X178558400Y-62445638D01*
X178512523Y-62532836D01*
X178449820Y-62734773D01*
X178449141Y-62740510D01*
X178435088Y-62859239D01*
X178407217Y-62924537D01*
X178348469Y-62964401D01*
X178277494Y-62966174D01*
X178216828Y-62929295D01*
X178185730Y-62865471D01*
X178184490Y-62855958D01*
X178176610Y-62770197D01*
X178176081Y-62764440D01*
X178170881Y-62746000D01*
X178127306Y-62591496D01*
X178118686Y-62560931D01*
X178109692Y-62542692D01*
X178027719Y-62376469D01*
X178025165Y-62371290D01*
X177898651Y-62201867D01*
X177790234Y-62101647D01*
X177747622Y-62062257D01*
X177747620Y-62062255D01*
X177743381Y-62058337D01*
X177710014Y-62037284D01*
X177569434Y-61948584D01*
X177569433Y-61948584D01*
X177564554Y-61945505D01*
X177368160Y-61867152D01*
X177362503Y-61866027D01*
X177362497Y-61866025D01*
X177166442Y-61827028D01*
X177166440Y-61827028D01*
X177160775Y-61825901D01*
X177155000Y-61825825D01*
X177154996Y-61825825D01*
X177048976Y-61824437D01*
X176949346Y-61823133D01*
X176943649Y-61824112D01*
X176943648Y-61824112D01*
X176746650Y-61857962D01*
X176746649Y-61857962D01*
X176740953Y-61858941D01*
X176542575Y-61932127D01*
X176537614Y-61935079D01*
X176537613Y-61935079D01*
X176422811Y-62003379D01*
X176360856Y-62040238D01*
X176201881Y-62179655D01*
X176070976Y-62345708D01*
X176068287Y-62350819D01*
X176068285Y-62350822D01*
X176018400Y-62445638D01*
X175972523Y-62532836D01*
X175909820Y-62734773D01*
X175909141Y-62740510D01*
X175895088Y-62859239D01*
X175867217Y-62924537D01*
X175808469Y-62964401D01*
X175737494Y-62966174D01*
X175676828Y-62929295D01*
X175645730Y-62865471D01*
X175644490Y-62855958D01*
X175636610Y-62770197D01*
X175636081Y-62764440D01*
X175630881Y-62746000D01*
X175587306Y-62591496D01*
X175578686Y-62560931D01*
X175569692Y-62542692D01*
X175487719Y-62376469D01*
X175485165Y-62371290D01*
X175358651Y-62201867D01*
X175250234Y-62101647D01*
X175207622Y-62062257D01*
X175207620Y-62062255D01*
X175203381Y-62058337D01*
X175170014Y-62037284D01*
X175029434Y-61948584D01*
X175029433Y-61948584D01*
X175024554Y-61945505D01*
X174828160Y-61867152D01*
X174822503Y-61866027D01*
X174822497Y-61866025D01*
X174626442Y-61827028D01*
X174626440Y-61827028D01*
X174620775Y-61825901D01*
X174615000Y-61825825D01*
X174614996Y-61825825D01*
X174508976Y-61824437D01*
X174409346Y-61823133D01*
X174403649Y-61824112D01*
X174403648Y-61824112D01*
X174206650Y-61857962D01*
X174206649Y-61857962D01*
X174200953Y-61858941D01*
X174002575Y-61932127D01*
X173997614Y-61935079D01*
X173997613Y-61935079D01*
X173882811Y-62003379D01*
X173820856Y-62040238D01*
X173661881Y-62179655D01*
X173530976Y-62345708D01*
X173528287Y-62350819D01*
X173528285Y-62350822D01*
X173454155Y-62491720D01*
X173404736Y-62542692D01*
X173335603Y-62558855D01*
X173268707Y-62535076D01*
X173227097Y-62483294D01*
X173162971Y-62335814D01*
X173158105Y-62326739D01*
X173042426Y-62147926D01*
X173036136Y-62139757D01*
X172892806Y-61982240D01*
X172885273Y-61975215D01*
X172718139Y-61843222D01*
X172709552Y-61837517D01*
X172523117Y-61734599D01*
X172513705Y-61730369D01*
X172312959Y-61659280D01*
X172302988Y-61656646D01*
X172231837Y-61643972D01*
X172218540Y-61645432D01*
X172214000Y-61659989D01*
X172214000Y-64293517D01*
X172218064Y-64307359D01*
X172231478Y-64309393D01*
X172238184Y-64308534D01*
X172248266Y-64306391D01*
X172356462Y-64273931D01*
X172427457Y-64273515D01*
X172487408Y-64311547D01*
X172517279Y-64375954D01*
X172507588Y-64446286D01*
X172481766Y-64483710D01*
X170302881Y-66662595D01*
X170240569Y-66696621D01*
X170213786Y-66699500D01*
X165682993Y-66699500D01*
X165677717Y-66699389D01*
X165673310Y-66699204D01*
X165615706Y-66696790D01*
X165607341Y-66698752D01*
X165573338Y-66706727D01*
X165561667Y-66708890D01*
X165546771Y-66710931D01*
X165518568Y-66714794D01*
X165510684Y-66718206D01*
X165510683Y-66718206D01*
X165504770Y-66720765D01*
X165483501Y-66727799D01*
X165468864Y-66731232D01*
X165461339Y-66735369D01*
X165461336Y-66735370D01*
X165430732Y-66752195D01*
X165420087Y-66757411D01*
X165380145Y-66774695D01*
X165368459Y-66784158D01*
X165349875Y-66796645D01*
X165336692Y-66803893D01*
X165328578Y-66810897D01*
X165304042Y-66835433D01*
X165294241Y-66844258D01*
X165280922Y-66855044D01*
X165262930Y-66869614D01*
X165257957Y-66876612D01*
X165257952Y-66876617D01*
X165252032Y-66884948D01*
X165238421Y-66901054D01*
X162121358Y-70018118D01*
X162117549Y-70021771D01*
X162071844Y-70063799D01*
X162048901Y-70100802D01*
X162042200Y-70110552D01*
X162015888Y-70145217D01*
X162010354Y-70159195D01*
X162000293Y-70179199D01*
X161992365Y-70191986D01*
X161989968Y-70200237D01*
X161989967Y-70200239D01*
X161980225Y-70233772D01*
X161976380Y-70245002D01*
X161960364Y-70285453D01*
X161959466Y-70293994D01*
X161959466Y-70293995D01*
X161958792Y-70300408D01*
X161954480Y-70322383D01*
X161950285Y-70336825D01*
X161949500Y-70347515D01*
X161949500Y-70382217D01*
X161948810Y-70395387D01*
X161944599Y-70435454D01*
X161946031Y-70443919D01*
X161946031Y-70443928D01*
X161947735Y-70454000D01*
X161949500Y-70475013D01*
X161949500Y-72226396D01*
X161929498Y-72294517D01*
X161875842Y-72341010D01*
X161805568Y-72351114D01*
X161776810Y-72343426D01*
X161770755Y-72341010D01*
X161598160Y-72272152D01*
X161592503Y-72271027D01*
X161592497Y-72271025D01*
X161396442Y-72232028D01*
X161396440Y-72232028D01*
X161390775Y-72230901D01*
X161385000Y-72230825D01*
X161384996Y-72230825D01*
X161278976Y-72229437D01*
X161179346Y-72228133D01*
X161173649Y-72229112D01*
X161173648Y-72229112D01*
X160976650Y-72262962D01*
X160976649Y-72262962D01*
X160970953Y-72263941D01*
X160772575Y-72337127D01*
X160767614Y-72340079D01*
X160767613Y-72340079D01*
X160740923Y-72355958D01*
X160672153Y-72373598D01*
X160604763Y-72351258D01*
X160560149Y-72296030D01*
X160550500Y-72247673D01*
X160550500Y-70219215D01*
X160570502Y-70151094D01*
X160587405Y-70130120D01*
X166555119Y-64162405D01*
X166617431Y-64128379D01*
X166644214Y-64125500D01*
X167774646Y-64125500D01*
X167778350Y-64125059D01*
X167778353Y-64125059D01*
X167785746Y-64124179D01*
X167800846Y-64122382D01*
X167864692Y-64094023D01*
X167892518Y-64081663D01*
X167903153Y-64076939D01*
X167982241Y-63997713D01*
X167994641Y-63969667D01*
X168013265Y-63927538D01*
X168027506Y-63895327D01*
X168030500Y-63869646D01*
X168030500Y-63744733D01*
X168050502Y-63676612D01*
X168104158Y-63630119D01*
X168174432Y-63620015D01*
X168239012Y-63649509D01*
X168259712Y-63672462D01*
X168381505Y-63846401D01*
X168548599Y-64013495D01*
X168553107Y-64016652D01*
X168553110Y-64016654D01*
X168737661Y-64145878D01*
X168742170Y-64149035D01*
X168747152Y-64151358D01*
X168747157Y-64151361D01*
X168951355Y-64246580D01*
X168956337Y-64248903D01*
X168961645Y-64250325D01*
X168961647Y-64250326D01*
X169179277Y-64308639D01*
X169184592Y-64310063D01*
X169420000Y-64330659D01*
X169655408Y-64310063D01*
X169660723Y-64308639D01*
X169878353Y-64250326D01*
X169878355Y-64250325D01*
X169883663Y-64248903D01*
X169888645Y-64246580D01*
X170092843Y-64151361D01*
X170092848Y-64151358D01*
X170097830Y-64149035D01*
X170102339Y-64145878D01*
X170286890Y-64016654D01*
X170286893Y-64016652D01*
X170291401Y-64013495D01*
X170458495Y-63846401D01*
X170584358Y-63666649D01*
X170639814Y-63622322D01*
X170710433Y-63615013D01*
X170773794Y-63647043D01*
X170795003Y-63673086D01*
X170857694Y-63775388D01*
X170863777Y-63783699D01*
X171003213Y-63944667D01*
X171010580Y-63951883D01*
X171174434Y-64087916D01*
X171182881Y-64093831D01*
X171366756Y-64201279D01*
X171376042Y-64205729D01*
X171575001Y-64281703D01*
X171584899Y-64284579D01*
X171688250Y-64305606D01*
X171702299Y-64304410D01*
X171706000Y-64294065D01*
X171706000Y-61658102D01*
X171702082Y-61644758D01*
X171687806Y-61642771D01*
X171649324Y-61648660D01*
X171639288Y-61651051D01*
X171436868Y-61717212D01*
X171427359Y-61721209D01*
X171238463Y-61819542D01*
X171229738Y-61825036D01*
X171059433Y-61952905D01*
X171051726Y-61959748D01*
X170904590Y-62113717D01*
X170898104Y-62121727D01*
X170790168Y-62279955D01*
X170735257Y-62324958D01*
X170664732Y-62333129D01*
X170600985Y-62301875D01*
X170582867Y-62281222D01*
X170581980Y-62279955D01*
X170458495Y-62103599D01*
X170454599Y-62099703D01*
X170451069Y-62095496D01*
X170452788Y-62094054D01*
X170423379Y-62040197D01*
X170420500Y-62013414D01*
X170420500Y-61936148D01*
X170420549Y-61932630D01*
X170422781Y-61852729D01*
X170422781Y-61852726D01*
X170422959Y-61846347D01*
X170414184Y-61796579D01*
X170412485Y-61786944D01*
X170411216Y-61777798D01*
X170405765Y-61724130D01*
X170405764Y-61724126D01*
X170405120Y-61717784D01*
X170396512Y-61690317D01*
X170392661Y-61674518D01*
X170388772Y-61652462D01*
X170387664Y-61646178D01*
X170365461Y-61590099D01*
X170362379Y-61581396D01*
X170346247Y-61529919D01*
X170346246Y-61529917D01*
X170344338Y-61523828D01*
X170341246Y-61518249D01*
X170341243Y-61518243D01*
X170330381Y-61498648D01*
X170323436Y-61483956D01*
X170312840Y-61457195D01*
X170279816Y-61406728D01*
X170275048Y-61398823D01*
X170248896Y-61351644D01*
X170248889Y-61351634D01*
X170245797Y-61346056D01*
X170227061Y-61324196D01*
X170217303Y-61311200D01*
X170204189Y-61291159D01*
X170201544Y-61287117D01*
X170197082Y-61282162D01*
X170158177Y-61243257D01*
X170151604Y-61236159D01*
X170113523Y-61191729D01*
X170089139Y-61172815D01*
X170077270Y-61162350D01*
X169430515Y-60515595D01*
X169396489Y-60453283D01*
X169401554Y-60382468D01*
X169444101Y-60325632D01*
X169510621Y-60300821D01*
X169519610Y-60300500D01*
X186461775Y-60300500D01*
X186529896Y-60320502D01*
X186576389Y-60374158D01*
X186586493Y-60444432D01*
X186556999Y-60509012D01*
X186493110Y-60548541D01*
X186229617Y-60616194D01*
X186229609Y-60616197D01*
X186225775Y-60617181D01*
X186222095Y-60618638D01*
X186222092Y-60618639D01*
X186092637Y-60669894D01*
X185933234Y-60733006D01*
X185657516Y-60884584D01*
X185654312Y-60886912D01*
X185654307Y-60886915D01*
X185419719Y-61057353D01*
X185402970Y-61069522D01*
X185173610Y-61284906D01*
X185171086Y-61287957D01*
X185171085Y-61287958D01*
X185127029Y-61341213D01*
X184973053Y-61527337D01*
X184804463Y-61792993D01*
X184802779Y-61796572D01*
X184802775Y-61796579D01*
X184681051Y-62055256D01*
X184670497Y-62077685D01*
X184669271Y-62081457D01*
X184669271Y-62081458D01*
X184648064Y-62146727D01*
X184573269Y-62376921D01*
X184514312Y-62685985D01*
X184494556Y-63000000D01*
X184514312Y-63314015D01*
X184573269Y-63623079D01*
X184584904Y-63658888D01*
X184647097Y-63850296D01*
X184670497Y-63922315D01*
X184672184Y-63925901D01*
X184672186Y-63925905D01*
X184802775Y-64203421D01*
X184802779Y-64203428D01*
X184804463Y-64207007D01*
X184973053Y-64472663D01*
X185173610Y-64715094D01*
X185402970Y-64930478D01*
X185406172Y-64932805D01*
X185406174Y-64932806D01*
X185654307Y-65113085D01*
X185654312Y-65113088D01*
X185657516Y-65115416D01*
X185711242Y-65144952D01*
X185923839Y-65261829D01*
X185933234Y-65266994D01*
X186022470Y-65302325D01*
X186222092Y-65381361D01*
X186222095Y-65381362D01*
X186225775Y-65382819D01*
X186229609Y-65383803D01*
X186229617Y-65383806D01*
X186418074Y-65432193D01*
X186530527Y-65461066D01*
X186534455Y-65461562D01*
X186534459Y-65461563D01*
X186658375Y-65477217D01*
X186842682Y-65500500D01*
X187157318Y-65500500D01*
X187341625Y-65477217D01*
X187465541Y-65461563D01*
X187465545Y-65461562D01*
X187469473Y-65461066D01*
X187581926Y-65432193D01*
X187770383Y-65383806D01*
X187770391Y-65383803D01*
X187774225Y-65382819D01*
X187777905Y-65381362D01*
X187777908Y-65381361D01*
X187977530Y-65302325D01*
X188066766Y-65266994D01*
X188076162Y-65261829D01*
X188288758Y-65144952D01*
X188342484Y-65115416D01*
X188345688Y-65113088D01*
X188345693Y-65113085D01*
X188593826Y-64932806D01*
X188593828Y-64932805D01*
X188597030Y-64930478D01*
X188826390Y-64715094D01*
X189026947Y-64472663D01*
X189195537Y-64207007D01*
X189197221Y-64203428D01*
X189197225Y-64203421D01*
X189327814Y-63925905D01*
X189327816Y-63925901D01*
X189329503Y-63922315D01*
X189352904Y-63850296D01*
X189415096Y-63658888D01*
X189426731Y-63623079D01*
X189449732Y-63502503D01*
X189482144Y-63439337D01*
X189543561Y-63403722D01*
X189614484Y-63406965D01*
X189672394Y-63448036D01*
X189698906Y-63513897D01*
X189699500Y-63526113D01*
X189699500Y-98473887D01*
X189679498Y-98542008D01*
X189625842Y-98588501D01*
X189555568Y-98598605D01*
X189490988Y-98569111D01*
X189452604Y-98509385D01*
X189449732Y-98497497D01*
X189447653Y-98486600D01*
X189426731Y-98376921D01*
X189351186Y-98144418D01*
X189330729Y-98081458D01*
X189330729Y-98081457D01*
X189329503Y-98077685D01*
X189324865Y-98067829D01*
X189197225Y-97796579D01*
X189197221Y-97796572D01*
X189195537Y-97792993D01*
X189026947Y-97527337D01*
X188826390Y-97284906D01*
X188597030Y-97069522D01*
X188593826Y-97067194D01*
X188345693Y-96886915D01*
X188345688Y-96886912D01*
X188342484Y-96884584D01*
X188163689Y-96786290D01*
X188070228Y-96734909D01*
X188070225Y-96734907D01*
X188066766Y-96733006D01*
X187785111Y-96621491D01*
X187777908Y-96618639D01*
X187777905Y-96618638D01*
X187774225Y-96617181D01*
X187770391Y-96616197D01*
X187770383Y-96616194D01*
X187581926Y-96567807D01*
X187469473Y-96538934D01*
X187465545Y-96538438D01*
X187465541Y-96538437D01*
X187308503Y-96518599D01*
X187157318Y-96499500D01*
X186842682Y-96499500D01*
X186691497Y-96518599D01*
X186534459Y-96538437D01*
X186534455Y-96538438D01*
X186530527Y-96538934D01*
X186418074Y-96567807D01*
X186229617Y-96616194D01*
X186229609Y-96616197D01*
X186225775Y-96617181D01*
X186222095Y-96618638D01*
X186222092Y-96618639D01*
X186214889Y-96621491D01*
X185933234Y-96733006D01*
X185929775Y-96734907D01*
X185929772Y-96734909D01*
X185836311Y-96786290D01*
X185657516Y-96884584D01*
X185654312Y-96886912D01*
X185654307Y-96886915D01*
X185406174Y-97067194D01*
X185402970Y-97069522D01*
X185173610Y-97284906D01*
X184973053Y-97527337D01*
X184804463Y-97792993D01*
X184802779Y-97796572D01*
X184802775Y-97796579D01*
X184675135Y-98067829D01*
X184670497Y-98077685D01*
X184669271Y-98081457D01*
X184669271Y-98081458D01*
X184648814Y-98144418D01*
X184573269Y-98376921D01*
X184514312Y-98685985D01*
X184494556Y-99000000D01*
X184514312Y-99314015D01*
X184573269Y-99623079D01*
X184670497Y-99922315D01*
X184672184Y-99925901D01*
X184672186Y-99925905D01*
X184802775Y-100203421D01*
X184802779Y-100203428D01*
X184804463Y-100207007D01*
X184973053Y-100472663D01*
X185173610Y-100715094D01*
X185402970Y-100930478D01*
X185406172Y-100932805D01*
X185406174Y-100932806D01*
X185654307Y-101113085D01*
X185654312Y-101113088D01*
X185657516Y-101115416D01*
X185933234Y-101266994D01*
X185980561Y-101285732D01*
X186222092Y-101381361D01*
X186222095Y-101381362D01*
X186225775Y-101382819D01*
X186229609Y-101383803D01*
X186229617Y-101383806D01*
X186493110Y-101451459D01*
X186554116Y-101487773D01*
X186585805Y-101551305D01*
X186578115Y-101621884D01*
X186533488Y-101677102D01*
X186461775Y-101699500D01*
X123538225Y-101699500D01*
X123470104Y-101679498D01*
X123423611Y-101625842D01*
X123413507Y-101555568D01*
X123443001Y-101490988D01*
X123506890Y-101451459D01*
X123770383Y-101383806D01*
X123770391Y-101383803D01*
X123774225Y-101382819D01*
X123777905Y-101381362D01*
X123777908Y-101381361D01*
X124019439Y-101285732D01*
X124066766Y-101266994D01*
X124342484Y-101115416D01*
X124345688Y-101113088D01*
X124345693Y-101113085D01*
X124593826Y-100932806D01*
X124593828Y-100932805D01*
X124597030Y-100930478D01*
X124826390Y-100715094D01*
X125026947Y-100472663D01*
X125195537Y-100207007D01*
X125197221Y-100203428D01*
X125197225Y-100203421D01*
X125327814Y-99925905D01*
X125327816Y-99925901D01*
X125329503Y-99922315D01*
X125426731Y-99623079D01*
X125485688Y-99314015D01*
X125505444Y-99000000D01*
X125485688Y-98685985D01*
X125426731Y-98376921D01*
X125351186Y-98144418D01*
X125330729Y-98081458D01*
X125330729Y-98081457D01*
X125329503Y-98077685D01*
X125324865Y-98067829D01*
X125197225Y-97796579D01*
X125197221Y-97796572D01*
X125195537Y-97792993D01*
X125026947Y-97527337D01*
X124826390Y-97284906D01*
X124597030Y-97069522D01*
X124593826Y-97067194D01*
X124345693Y-96886915D01*
X124345688Y-96886912D01*
X124342484Y-96884584D01*
X124163689Y-96786290D01*
X124070228Y-96734909D01*
X124070225Y-96734907D01*
X124066766Y-96733006D01*
X123785111Y-96621491D01*
X123777908Y-96618639D01*
X123777905Y-96618638D01*
X123774225Y-96617181D01*
X123770391Y-96616197D01*
X123770383Y-96616194D01*
X123581926Y-96567807D01*
X123469473Y-96538934D01*
X123465545Y-96538438D01*
X123465541Y-96538437D01*
X123308503Y-96518599D01*
X123157318Y-96499500D01*
X122842682Y-96499500D01*
X122691497Y-96518599D01*
X122534459Y-96538437D01*
X122534455Y-96538438D01*
X122530527Y-96538934D01*
X122418074Y-96567807D01*
X122229617Y-96616194D01*
X122229609Y-96616197D01*
X122225775Y-96617181D01*
X122222095Y-96618638D01*
X122222092Y-96618639D01*
X122214889Y-96621491D01*
X121933234Y-96733006D01*
X121929775Y-96734907D01*
X121929772Y-96734909D01*
X121836311Y-96786290D01*
X121657516Y-96884584D01*
X121654312Y-96886912D01*
X121654307Y-96886915D01*
X121406174Y-97067194D01*
X121402970Y-97069522D01*
X121173610Y-97284906D01*
X120973053Y-97527337D01*
X120804463Y-97792993D01*
X120802779Y-97796572D01*
X120802775Y-97796579D01*
X120675135Y-98067829D01*
X120670497Y-98077685D01*
X120669271Y-98081457D01*
X120669271Y-98081458D01*
X120648814Y-98144418D01*
X120573269Y-98376921D01*
X120552347Y-98486600D01*
X120550268Y-98497497D01*
X120517856Y-98560663D01*
X120456439Y-98596278D01*
X120385516Y-98593035D01*
X120327606Y-98551964D01*
X120301094Y-98486103D01*
X120300500Y-98473887D01*
X120300500Y-87602966D01*
X130043257Y-87602966D01*
X130073565Y-87737446D01*
X130076645Y-87747275D01*
X130156770Y-87944603D01*
X130161413Y-87953794D01*
X130272694Y-88135388D01*
X130278777Y-88143699D01*
X130418213Y-88304667D01*
X130425580Y-88311883D01*
X130589434Y-88447916D01*
X130597876Y-88453828D01*
X130659284Y-88489712D01*
X130708007Y-88541351D01*
X130721078Y-88611134D01*
X130694346Y-88676906D01*
X130636299Y-88717784D01*
X130595713Y-88724500D01*
X130480354Y-88724500D01*
X130476650Y-88724941D01*
X130476647Y-88724941D01*
X130469254Y-88725821D01*
X130454154Y-88727618D01*
X130445514Y-88731456D01*
X130445513Y-88731456D01*
X130362482Y-88768337D01*
X130351847Y-88773061D01*
X130272759Y-88852287D01*
X130268056Y-88862924D01*
X130268055Y-88862926D01*
X130250373Y-88902922D01*
X130227494Y-88954673D01*
X130224500Y-88980354D01*
X130224500Y-90769646D01*
X130227618Y-90795846D01*
X130273061Y-90898153D01*
X130352287Y-90977241D01*
X130362924Y-90981944D01*
X130362926Y-90981945D01*
X130422462Y-91008265D01*
X130454673Y-91022506D01*
X130480354Y-91025500D01*
X132269646Y-91025500D01*
X132273350Y-91025059D01*
X132273353Y-91025059D01*
X132280746Y-91024179D01*
X132295846Y-91022382D01*
X132398153Y-90976939D01*
X132477241Y-90897713D01*
X132522506Y-90795327D01*
X132525500Y-90769646D01*
X132525500Y-89805215D01*
X132545502Y-89737094D01*
X132562405Y-89716120D01*
X134691119Y-87587405D01*
X134753431Y-87553380D01*
X134780214Y-87550500D01*
X135009721Y-87550500D01*
X135077842Y-87570502D01*
X135124335Y-87624158D01*
X135134439Y-87694432D01*
X135104945Y-87759012D01*
X135092803Y-87771228D01*
X135031881Y-87824655D01*
X134900976Y-87990708D01*
X134898287Y-87995819D01*
X134898285Y-87995822D01*
X134884792Y-88021469D01*
X134802523Y-88177836D01*
X134739820Y-88379773D01*
X134714967Y-88589754D01*
X134728796Y-88800749D01*
X134730217Y-88806345D01*
X134730218Y-88806350D01*
X134779424Y-89000095D01*
X134780845Y-89005690D01*
X134869369Y-89197714D01*
X134991405Y-89370391D01*
X135142865Y-89517937D01*
X135147661Y-89521142D01*
X135147664Y-89521144D01*
X135244728Y-89586000D01*
X135318677Y-89635411D01*
X135323982Y-89637690D01*
X135323986Y-89637692D01*
X135507650Y-89716600D01*
X135507653Y-89716601D01*
X135512953Y-89718878D01*
X135518582Y-89720152D01*
X135518583Y-89720152D01*
X135713550Y-89764269D01*
X135713553Y-89764269D01*
X135719186Y-89765544D01*
X135724957Y-89765771D01*
X135724959Y-89765771D01*
X135780494Y-89767953D01*
X135930470Y-89773846D01*
X135936179Y-89773018D01*
X135936183Y-89773018D01*
X136134015Y-89744333D01*
X136134019Y-89744332D01*
X136139730Y-89743504D01*
X136220401Y-89716120D01*
X136334483Y-89677395D01*
X136334488Y-89677393D01*
X136339955Y-89675537D01*
X136344998Y-89672713D01*
X136519395Y-89575046D01*
X136519399Y-89575043D01*
X136524442Y-89572219D01*
X136687012Y-89437012D01*
X136822219Y-89274442D01*
X136825043Y-89269399D01*
X136825046Y-89269395D01*
X136922713Y-89094998D01*
X136922714Y-89094996D01*
X136925537Y-89089955D01*
X136927393Y-89084488D01*
X136927395Y-89084483D01*
X136991647Y-88895200D01*
X136993504Y-88889730D01*
X136995439Y-88876387D01*
X137015090Y-88740860D01*
X137044660Y-88676315D01*
X137104432Y-88638003D01*
X137175429Y-88638087D01*
X137235109Y-88676542D01*
X137264525Y-88741158D01*
X137265515Y-88750695D01*
X137268796Y-88800749D01*
X137270217Y-88806345D01*
X137270218Y-88806350D01*
X137319424Y-89000095D01*
X137320845Y-89005690D01*
X137409369Y-89197714D01*
X137531405Y-89370391D01*
X137682865Y-89517937D01*
X137687661Y-89521142D01*
X137687664Y-89521144D01*
X137784728Y-89586000D01*
X137858677Y-89635411D01*
X137863982Y-89637690D01*
X137863986Y-89637692D01*
X138047650Y-89716600D01*
X138047653Y-89716601D01*
X138052953Y-89718878D01*
X138058582Y-89720152D01*
X138058583Y-89720152D01*
X138253550Y-89764269D01*
X138253553Y-89764269D01*
X138259186Y-89765544D01*
X138264957Y-89765771D01*
X138264959Y-89765771D01*
X138320494Y-89767953D01*
X138470470Y-89773846D01*
X138476179Y-89773018D01*
X138476183Y-89773018D01*
X138674015Y-89744333D01*
X138674019Y-89744332D01*
X138679730Y-89743504D01*
X138760401Y-89716120D01*
X138874483Y-89677395D01*
X138874488Y-89677393D01*
X138879955Y-89675537D01*
X138884998Y-89672713D01*
X139059395Y-89575046D01*
X139059399Y-89575043D01*
X139064442Y-89572219D01*
X139227012Y-89437012D01*
X139362219Y-89274442D01*
X139365043Y-89269399D01*
X139365046Y-89269395D01*
X139462713Y-89094998D01*
X139462714Y-89094996D01*
X139465537Y-89089955D01*
X139467393Y-89084488D01*
X139467395Y-89084483D01*
X139531647Y-88895200D01*
X139533504Y-88889730D01*
X139535439Y-88876387D01*
X139555090Y-88740860D01*
X139584660Y-88676315D01*
X139644432Y-88638003D01*
X139715429Y-88638087D01*
X139775109Y-88676542D01*
X139804525Y-88741158D01*
X139805515Y-88750695D01*
X139808796Y-88800749D01*
X139810217Y-88806345D01*
X139810218Y-88806350D01*
X139859424Y-89000095D01*
X139860845Y-89005690D01*
X139949369Y-89197714D01*
X140071405Y-89370391D01*
X140222865Y-89517937D01*
X140227661Y-89521142D01*
X140227664Y-89521144D01*
X140324728Y-89586000D01*
X140398677Y-89635411D01*
X140403982Y-89637690D01*
X140403986Y-89637692D01*
X140587650Y-89716600D01*
X140587653Y-89716601D01*
X140592953Y-89718878D01*
X140598582Y-89720152D01*
X140598583Y-89720152D01*
X140793550Y-89764269D01*
X140793553Y-89764269D01*
X140799186Y-89765544D01*
X140804957Y-89765771D01*
X140804959Y-89765771D01*
X140860494Y-89767953D01*
X141010470Y-89773846D01*
X141016179Y-89773018D01*
X141016183Y-89773018D01*
X141214015Y-89744333D01*
X141214019Y-89744332D01*
X141219730Y-89743504D01*
X141300401Y-89716120D01*
X141414483Y-89677395D01*
X141414488Y-89677393D01*
X141419955Y-89675537D01*
X141424998Y-89672713D01*
X141599395Y-89575046D01*
X141599399Y-89575043D01*
X141604442Y-89572219D01*
X141767012Y-89437012D01*
X141902219Y-89274442D01*
X141905043Y-89269399D01*
X141905046Y-89269395D01*
X142002713Y-89094998D01*
X142002714Y-89094996D01*
X142005537Y-89089955D01*
X142007393Y-89084488D01*
X142007395Y-89084483D01*
X142071647Y-88895200D01*
X142073504Y-88889730D01*
X142075439Y-88876387D01*
X142095090Y-88740860D01*
X142124660Y-88676315D01*
X142184432Y-88638003D01*
X142255429Y-88638087D01*
X142315109Y-88676542D01*
X142344525Y-88741158D01*
X142345515Y-88750695D01*
X142348796Y-88800749D01*
X142350217Y-88806345D01*
X142350218Y-88806350D01*
X142399424Y-89000095D01*
X142400845Y-89005690D01*
X142489369Y-89197714D01*
X142611405Y-89370391D01*
X142762865Y-89517937D01*
X142767661Y-89521142D01*
X142767664Y-89521144D01*
X142864728Y-89586000D01*
X142938677Y-89635411D01*
X142943982Y-89637690D01*
X142943986Y-89637692D01*
X143127650Y-89716600D01*
X143127653Y-89716601D01*
X143132953Y-89718878D01*
X143138582Y-89720152D01*
X143138583Y-89720152D01*
X143333550Y-89764269D01*
X143333553Y-89764269D01*
X143339186Y-89765544D01*
X143344957Y-89765771D01*
X143344959Y-89765771D01*
X143400494Y-89767953D01*
X143550470Y-89773846D01*
X143556179Y-89773018D01*
X143556183Y-89773018D01*
X143754015Y-89744333D01*
X143754019Y-89744332D01*
X143759730Y-89743504D01*
X143840401Y-89716120D01*
X143954483Y-89677395D01*
X143954488Y-89677393D01*
X143959955Y-89675537D01*
X143964998Y-89672713D01*
X144139395Y-89575046D01*
X144139399Y-89575043D01*
X144144442Y-89572219D01*
X144307012Y-89437012D01*
X144442219Y-89274442D01*
X144445043Y-89269399D01*
X144445046Y-89269395D01*
X144542713Y-89094998D01*
X144542714Y-89094996D01*
X144545537Y-89089955D01*
X144547393Y-89084488D01*
X144547395Y-89084483D01*
X144611647Y-88895200D01*
X144613504Y-88889730D01*
X144615439Y-88876387D01*
X144635090Y-88740860D01*
X144664660Y-88676315D01*
X144724432Y-88638003D01*
X144795429Y-88638087D01*
X144855109Y-88676542D01*
X144884525Y-88741158D01*
X144885515Y-88750695D01*
X144888796Y-88800749D01*
X144890217Y-88806345D01*
X144890218Y-88806350D01*
X144939424Y-89000095D01*
X144940845Y-89005690D01*
X145029369Y-89197714D01*
X145151405Y-89370391D01*
X145302865Y-89517937D01*
X145307661Y-89521142D01*
X145307664Y-89521144D01*
X145404728Y-89586000D01*
X145478677Y-89635411D01*
X145483982Y-89637690D01*
X145483986Y-89637692D01*
X145667650Y-89716600D01*
X145667653Y-89716601D01*
X145672953Y-89718878D01*
X145678582Y-89720152D01*
X145678583Y-89720152D01*
X145873550Y-89764269D01*
X145873553Y-89764269D01*
X145879186Y-89765544D01*
X145884957Y-89765771D01*
X145884959Y-89765771D01*
X145940494Y-89767953D01*
X146090470Y-89773846D01*
X146096179Y-89773018D01*
X146096183Y-89773018D01*
X146294015Y-89744333D01*
X146294019Y-89744332D01*
X146299730Y-89743504D01*
X146380401Y-89716120D01*
X146494483Y-89677395D01*
X146494488Y-89677393D01*
X146499955Y-89675537D01*
X146504998Y-89672713D01*
X146679395Y-89575046D01*
X146679399Y-89575043D01*
X146684442Y-89572219D01*
X146847012Y-89437012D01*
X146982219Y-89274442D01*
X146985043Y-89269399D01*
X146985046Y-89269395D01*
X147082713Y-89094998D01*
X147082714Y-89094996D01*
X147085537Y-89089955D01*
X147087393Y-89084488D01*
X147087395Y-89084483D01*
X147151647Y-88895200D01*
X147153504Y-88889730D01*
X147155439Y-88876387D01*
X147175090Y-88740860D01*
X147204660Y-88676315D01*
X147264432Y-88638003D01*
X147335429Y-88638087D01*
X147395109Y-88676542D01*
X147424525Y-88741158D01*
X147425515Y-88750695D01*
X147428796Y-88800749D01*
X147430217Y-88806345D01*
X147430218Y-88806350D01*
X147479424Y-89000095D01*
X147480845Y-89005690D01*
X147569369Y-89197714D01*
X147691405Y-89370391D01*
X147842865Y-89517937D01*
X147847661Y-89521142D01*
X147847664Y-89521144D01*
X147944728Y-89586000D01*
X148018677Y-89635411D01*
X148023982Y-89637690D01*
X148023986Y-89637692D01*
X148207650Y-89716600D01*
X148207653Y-89716601D01*
X148212953Y-89718878D01*
X148218582Y-89720152D01*
X148218583Y-89720152D01*
X148413550Y-89764269D01*
X148413553Y-89764269D01*
X148419186Y-89765544D01*
X148424957Y-89765771D01*
X148424959Y-89765771D01*
X148480494Y-89767953D01*
X148630470Y-89773846D01*
X148636179Y-89773018D01*
X148636183Y-89773018D01*
X148834015Y-89744333D01*
X148834019Y-89744332D01*
X148839730Y-89743504D01*
X148920401Y-89716120D01*
X149034483Y-89677395D01*
X149034488Y-89677393D01*
X149039955Y-89675537D01*
X149044998Y-89672713D01*
X149219395Y-89575046D01*
X149219399Y-89575043D01*
X149224442Y-89572219D01*
X149387012Y-89437012D01*
X149522219Y-89274442D01*
X149525043Y-89269399D01*
X149525046Y-89269395D01*
X149622713Y-89094998D01*
X149622714Y-89094996D01*
X149625537Y-89089955D01*
X149627393Y-89084488D01*
X149627395Y-89084483D01*
X149691647Y-88895200D01*
X149693504Y-88889730D01*
X149695439Y-88876387D01*
X149715090Y-88740860D01*
X149744660Y-88676315D01*
X149804432Y-88638003D01*
X149875429Y-88638087D01*
X149935109Y-88676542D01*
X149964525Y-88741158D01*
X149965515Y-88750695D01*
X149968796Y-88800749D01*
X149970217Y-88806345D01*
X149970218Y-88806350D01*
X150019424Y-89000095D01*
X150020845Y-89005690D01*
X150109369Y-89197714D01*
X150231405Y-89370391D01*
X150382865Y-89517937D01*
X150387661Y-89521142D01*
X150387664Y-89521144D01*
X150484728Y-89586000D01*
X150558677Y-89635411D01*
X150563982Y-89637690D01*
X150563986Y-89637692D01*
X150747650Y-89716600D01*
X150747653Y-89716601D01*
X150752953Y-89718878D01*
X150758582Y-89720152D01*
X150758583Y-89720152D01*
X150953550Y-89764269D01*
X150953553Y-89764269D01*
X150959186Y-89765544D01*
X150964957Y-89765771D01*
X150964959Y-89765771D01*
X151020494Y-89767953D01*
X151170470Y-89773846D01*
X151176179Y-89773018D01*
X151176183Y-89773018D01*
X151374015Y-89744333D01*
X151374019Y-89744332D01*
X151379730Y-89743504D01*
X151460401Y-89716120D01*
X151574483Y-89677395D01*
X151574488Y-89677393D01*
X151579955Y-89675537D01*
X151584998Y-89672713D01*
X151759395Y-89575046D01*
X151759399Y-89575043D01*
X151764442Y-89572219D01*
X151927012Y-89437012D01*
X152062219Y-89274442D01*
X152065043Y-89269399D01*
X152065046Y-89269395D01*
X152162713Y-89094998D01*
X152162714Y-89094996D01*
X152165537Y-89089955D01*
X152167393Y-89084488D01*
X152167395Y-89084483D01*
X152231647Y-88895200D01*
X152233504Y-88889730D01*
X152235439Y-88876387D01*
X152255090Y-88740860D01*
X152284660Y-88676315D01*
X152344432Y-88638003D01*
X152415429Y-88638087D01*
X152475109Y-88676542D01*
X152504525Y-88741158D01*
X152505515Y-88750695D01*
X152508796Y-88800749D01*
X152510217Y-88806345D01*
X152510218Y-88806350D01*
X152559424Y-89000095D01*
X152560845Y-89005690D01*
X152649369Y-89197714D01*
X152771405Y-89370391D01*
X152922865Y-89517937D01*
X152927661Y-89521142D01*
X152927664Y-89521144D01*
X153024728Y-89586000D01*
X153098677Y-89635411D01*
X153103982Y-89637690D01*
X153103986Y-89637692D01*
X153287650Y-89716600D01*
X153287653Y-89716601D01*
X153292953Y-89718878D01*
X153298582Y-89720152D01*
X153298583Y-89720152D01*
X153493550Y-89764269D01*
X153493553Y-89764269D01*
X153499186Y-89765544D01*
X153504957Y-89765771D01*
X153504959Y-89765771D01*
X153560494Y-89767953D01*
X153710470Y-89773846D01*
X153716179Y-89773018D01*
X153716183Y-89773018D01*
X153914015Y-89744333D01*
X153914019Y-89744332D01*
X153919730Y-89743504D01*
X154000401Y-89716120D01*
X154114483Y-89677395D01*
X154114488Y-89677393D01*
X154119955Y-89675537D01*
X154124998Y-89672713D01*
X154299395Y-89575046D01*
X154299399Y-89575043D01*
X154304442Y-89572219D01*
X154467012Y-89437012D01*
X154602219Y-89274442D01*
X154605043Y-89269399D01*
X154605046Y-89269395D01*
X154702713Y-89094998D01*
X154702714Y-89094996D01*
X154705537Y-89089955D01*
X154707393Y-89084488D01*
X154707395Y-89084483D01*
X154771647Y-88895200D01*
X154773504Y-88889730D01*
X154775439Y-88876387D01*
X154795090Y-88740860D01*
X154824660Y-88676315D01*
X154884432Y-88638003D01*
X154955429Y-88638087D01*
X155015109Y-88676542D01*
X155044525Y-88741158D01*
X155045515Y-88750695D01*
X155048796Y-88800749D01*
X155050217Y-88806345D01*
X155050218Y-88806350D01*
X155099424Y-89000095D01*
X155100845Y-89005690D01*
X155189369Y-89197714D01*
X155311405Y-89370391D01*
X155462865Y-89517937D01*
X155467661Y-89521142D01*
X155467664Y-89521144D01*
X155564728Y-89586000D01*
X155638677Y-89635411D01*
X155643982Y-89637690D01*
X155643986Y-89637692D01*
X155827650Y-89716600D01*
X155827653Y-89716601D01*
X155832953Y-89718878D01*
X155838582Y-89720152D01*
X155838583Y-89720152D01*
X156033550Y-89764269D01*
X156033553Y-89764269D01*
X156039186Y-89765544D01*
X156044957Y-89765771D01*
X156044959Y-89765771D01*
X156100494Y-89767953D01*
X156250470Y-89773846D01*
X156256179Y-89773018D01*
X156256183Y-89773018D01*
X156454015Y-89744333D01*
X156454019Y-89744332D01*
X156459730Y-89743504D01*
X156540401Y-89716120D01*
X156654483Y-89677395D01*
X156654488Y-89677393D01*
X156659955Y-89675537D01*
X156664998Y-89672713D01*
X156839395Y-89575046D01*
X156839399Y-89575043D01*
X156844442Y-89572219D01*
X157007012Y-89437012D01*
X157142219Y-89274442D01*
X157145043Y-89269399D01*
X157145046Y-89269395D01*
X157242713Y-89094998D01*
X157242714Y-89094996D01*
X157245537Y-89089955D01*
X157247393Y-89084488D01*
X157247395Y-89084483D01*
X157311647Y-88895200D01*
X157313504Y-88889730D01*
X157315439Y-88876387D01*
X157335090Y-88740860D01*
X157364660Y-88676315D01*
X157424432Y-88638003D01*
X157495429Y-88638087D01*
X157555109Y-88676542D01*
X157584525Y-88741158D01*
X157585515Y-88750695D01*
X157588796Y-88800749D01*
X157590217Y-88806345D01*
X157590218Y-88806350D01*
X157639424Y-89000095D01*
X157640845Y-89005690D01*
X157729369Y-89197714D01*
X157851405Y-89370391D01*
X158002865Y-89517937D01*
X158007661Y-89521142D01*
X158007664Y-89521144D01*
X158104728Y-89586000D01*
X158178677Y-89635411D01*
X158183982Y-89637690D01*
X158183986Y-89637692D01*
X158367650Y-89716600D01*
X158367653Y-89716601D01*
X158372953Y-89718878D01*
X158378582Y-89720152D01*
X158378583Y-89720152D01*
X158573550Y-89764269D01*
X158573553Y-89764269D01*
X158579186Y-89765544D01*
X158584957Y-89765771D01*
X158584959Y-89765771D01*
X158640494Y-89767953D01*
X158790470Y-89773846D01*
X158796179Y-89773018D01*
X158796183Y-89773018D01*
X158994015Y-89744333D01*
X158994019Y-89744332D01*
X158999730Y-89743504D01*
X159080401Y-89716120D01*
X159194483Y-89677395D01*
X159194488Y-89677393D01*
X159199955Y-89675537D01*
X159204998Y-89672713D01*
X159379395Y-89575046D01*
X159379399Y-89575043D01*
X159384442Y-89572219D01*
X159547012Y-89437012D01*
X159682219Y-89274442D01*
X159685043Y-89269399D01*
X159685046Y-89269395D01*
X159782713Y-89094998D01*
X159782714Y-89094996D01*
X159785537Y-89089955D01*
X159787393Y-89084488D01*
X159787395Y-89084483D01*
X159851647Y-88895200D01*
X159853504Y-88889730D01*
X159855439Y-88876387D01*
X159875090Y-88740860D01*
X159904660Y-88676315D01*
X159964432Y-88638003D01*
X160035429Y-88638087D01*
X160095109Y-88676542D01*
X160124525Y-88741158D01*
X160125515Y-88750695D01*
X160128796Y-88800749D01*
X160130217Y-88806345D01*
X160130218Y-88806350D01*
X160179424Y-89000095D01*
X160180845Y-89005690D01*
X160269369Y-89197714D01*
X160391405Y-89370391D01*
X160542865Y-89517937D01*
X160547661Y-89521142D01*
X160547664Y-89521144D01*
X160644728Y-89586000D01*
X160718677Y-89635411D01*
X160872717Y-89701591D01*
X160873238Y-89701815D01*
X160927931Y-89747083D01*
X160949500Y-89817583D01*
X160949500Y-100234779D01*
X160939910Y-100282995D01*
X160914956Y-100343238D01*
X160894318Y-100500000D01*
X160914956Y-100656762D01*
X160975464Y-100802841D01*
X161071718Y-100928282D01*
X161197159Y-101024536D01*
X161343238Y-101085044D01*
X161500000Y-101105682D01*
X161508188Y-101104604D01*
X161648574Y-101086122D01*
X161656762Y-101085044D01*
X161802841Y-101024536D01*
X161928282Y-100928282D01*
X162024536Y-100802841D01*
X162085044Y-100656762D01*
X162105682Y-100500000D01*
X162085044Y-100343238D01*
X162060090Y-100282995D01*
X162050500Y-100234779D01*
X162050500Y-89524967D01*
X162070502Y-89456846D01*
X162085418Y-89438338D01*
X162087012Y-89437012D01*
X162222219Y-89274442D01*
X162225043Y-89269399D01*
X162225046Y-89269395D01*
X162322713Y-89094998D01*
X162322714Y-89094996D01*
X162325537Y-89089955D01*
X162327393Y-89084488D01*
X162327395Y-89084483D01*
X162391647Y-88895200D01*
X162393504Y-88889730D01*
X162395439Y-88876387D01*
X162415090Y-88740860D01*
X162444660Y-88676315D01*
X162504432Y-88638003D01*
X162575429Y-88638087D01*
X162635109Y-88676542D01*
X162664525Y-88741158D01*
X162665515Y-88750695D01*
X162668796Y-88800749D01*
X162670217Y-88806345D01*
X162670218Y-88806350D01*
X162719424Y-89000095D01*
X162720845Y-89005690D01*
X162809369Y-89197714D01*
X162931405Y-89370391D01*
X163082865Y-89517937D01*
X163087661Y-89521142D01*
X163087669Y-89521148D01*
X163143501Y-89558453D01*
X163189029Y-89612929D01*
X163199500Y-89663218D01*
X163199500Y-100234779D01*
X163189910Y-100282995D01*
X163164956Y-100343238D01*
X163144318Y-100500000D01*
X163164956Y-100656762D01*
X163225464Y-100802841D01*
X163321718Y-100928282D01*
X163447159Y-101024536D01*
X163593238Y-101085044D01*
X163750000Y-101105682D01*
X163758188Y-101104604D01*
X163898574Y-101086122D01*
X163906762Y-101085044D01*
X164052841Y-101024536D01*
X164178282Y-100928282D01*
X164274536Y-100802841D01*
X164335044Y-100656762D01*
X164355682Y-100500000D01*
X164335044Y-100343238D01*
X164310090Y-100282995D01*
X164300500Y-100234779D01*
X164300500Y-89737880D01*
X164320502Y-89669759D01*
X164364931Y-89627948D01*
X164464442Y-89572219D01*
X164627012Y-89437012D01*
X164762219Y-89274442D01*
X164765043Y-89269399D01*
X164765046Y-89269395D01*
X164862713Y-89094998D01*
X164862714Y-89094996D01*
X164865537Y-89089955D01*
X164867393Y-89084488D01*
X164867395Y-89084483D01*
X164931647Y-88895200D01*
X164933504Y-88889730D01*
X164935439Y-88876387D01*
X164955090Y-88740860D01*
X164984660Y-88676315D01*
X165044432Y-88638003D01*
X165115429Y-88638087D01*
X165175109Y-88676542D01*
X165204525Y-88741158D01*
X165205515Y-88750695D01*
X165208796Y-88800749D01*
X165210217Y-88806345D01*
X165210218Y-88806350D01*
X165259424Y-89000095D01*
X165260845Y-89005690D01*
X165349369Y-89197714D01*
X165372767Y-89230822D01*
X165426397Y-89306706D01*
X165449500Y-89379426D01*
X165449500Y-100234779D01*
X165439910Y-100282995D01*
X165414956Y-100343238D01*
X165394318Y-100500000D01*
X165414956Y-100656762D01*
X165475464Y-100802841D01*
X165571718Y-100928282D01*
X165697159Y-101024536D01*
X165843238Y-101085044D01*
X166000000Y-101105682D01*
X166008188Y-101104604D01*
X166148574Y-101086122D01*
X166156762Y-101085044D01*
X166302841Y-101024536D01*
X166428282Y-100928282D01*
X166524536Y-100802841D01*
X166585044Y-100656762D01*
X166605682Y-100500000D01*
X166585044Y-100343238D01*
X166560090Y-100282995D01*
X166550500Y-100234779D01*
X166550500Y-89857294D01*
X166570502Y-89789173D01*
X166624158Y-89742680D01*
X166635991Y-89737984D01*
X166718167Y-89710089D01*
X166814483Y-89677395D01*
X166814488Y-89677393D01*
X166819955Y-89675537D01*
X166824998Y-89672713D01*
X166999395Y-89575046D01*
X166999399Y-89575043D01*
X167004442Y-89572219D01*
X167167012Y-89437012D01*
X167302219Y-89274442D01*
X167305043Y-89269399D01*
X167305046Y-89269395D01*
X167402713Y-89094998D01*
X167402714Y-89094996D01*
X167405537Y-89089955D01*
X167407393Y-89084488D01*
X167407395Y-89084483D01*
X167471647Y-88895200D01*
X167473504Y-88889730D01*
X167475439Y-88876387D01*
X167495090Y-88740860D01*
X167524660Y-88676315D01*
X167584432Y-88638003D01*
X167655429Y-88638087D01*
X167715109Y-88676542D01*
X167744525Y-88741158D01*
X167745515Y-88750695D01*
X167748796Y-88800749D01*
X167750217Y-88806345D01*
X167750218Y-88806350D01*
X167774745Y-88902922D01*
X167772127Y-88973871D01*
X167766645Y-88986220D01*
X167765888Y-88987217D01*
X167760354Y-89001195D01*
X167750293Y-89021199D01*
X167742365Y-89033986D01*
X167739968Y-89042237D01*
X167739967Y-89042239D01*
X167730225Y-89075772D01*
X167726380Y-89087002D01*
X167710364Y-89127453D01*
X167709466Y-89135994D01*
X167709466Y-89135995D01*
X167708792Y-89142408D01*
X167704480Y-89164383D01*
X167700285Y-89178825D01*
X167699500Y-89189515D01*
X167699500Y-89224217D01*
X167698810Y-89237387D01*
X167694599Y-89277454D01*
X167696031Y-89285919D01*
X167696031Y-89285928D01*
X167697735Y-89296000D01*
X167699500Y-89317013D01*
X167699500Y-100234779D01*
X167689910Y-100282995D01*
X167664956Y-100343238D01*
X167644318Y-100500000D01*
X167664956Y-100656762D01*
X167725464Y-100802841D01*
X167821718Y-100928282D01*
X167947159Y-101024536D01*
X168093238Y-101085044D01*
X168250000Y-101105682D01*
X168258188Y-101104604D01*
X168398574Y-101086122D01*
X168406762Y-101085044D01*
X168552841Y-101024536D01*
X168678282Y-100928282D01*
X168774536Y-100802841D01*
X168835044Y-100656762D01*
X168855682Y-100500000D01*
X168835044Y-100343238D01*
X168810090Y-100282995D01*
X168800500Y-100234779D01*
X168800500Y-89899002D01*
X168820502Y-89830881D01*
X168874158Y-89784388D01*
X168931444Y-89773099D01*
X168944699Y-89773620D01*
X168944707Y-89773620D01*
X168950470Y-89773846D01*
X168956179Y-89773018D01*
X168956183Y-89773018D01*
X169154015Y-89744333D01*
X169154019Y-89744332D01*
X169159730Y-89743504D01*
X169240401Y-89716120D01*
X169354483Y-89677395D01*
X169354488Y-89677393D01*
X169359955Y-89675537D01*
X169364998Y-89672713D01*
X169539395Y-89575046D01*
X169539399Y-89575043D01*
X169544442Y-89572219D01*
X169707012Y-89437012D01*
X169726627Y-89413427D01*
X169785564Y-89373844D01*
X169856546Y-89372409D01*
X169917036Y-89409577D01*
X169947829Y-89473548D01*
X169949500Y-89493998D01*
X169949500Y-89514217D01*
X169948810Y-89527387D01*
X169944599Y-89567454D01*
X169946031Y-89575919D01*
X169946031Y-89575928D01*
X169947735Y-89586000D01*
X169949500Y-89607013D01*
X169949500Y-100234779D01*
X169939910Y-100282995D01*
X169914956Y-100343238D01*
X169894318Y-100500000D01*
X169914956Y-100656762D01*
X169975464Y-100802841D01*
X170071718Y-100928282D01*
X170197159Y-101024536D01*
X170343238Y-101085044D01*
X170500000Y-101105682D01*
X170508188Y-101104604D01*
X170648574Y-101086122D01*
X170656762Y-101085044D01*
X170802841Y-101024536D01*
X170928282Y-100928282D01*
X171024536Y-100802841D01*
X171085044Y-100656762D01*
X171105682Y-100500000D01*
X171085044Y-100343238D01*
X171060090Y-100282995D01*
X171050500Y-100234779D01*
X171050500Y-97657966D01*
X173113257Y-97657966D01*
X173143565Y-97792446D01*
X173146645Y-97802275D01*
X173226770Y-97999603D01*
X173231413Y-98008794D01*
X173342694Y-98190388D01*
X173348777Y-98198699D01*
X173488213Y-98359667D01*
X173495580Y-98366883D01*
X173659434Y-98502916D01*
X173667881Y-98508831D01*
X173851756Y-98616279D01*
X173861042Y-98620729D01*
X174060001Y-98696703D01*
X174069899Y-98699579D01*
X174173250Y-98720606D01*
X174187299Y-98719410D01*
X174191000Y-98709065D01*
X174191000Y-97662115D01*
X174186525Y-97646876D01*
X174185135Y-97645671D01*
X174177452Y-97644000D01*
X173128225Y-97644000D01*
X173114694Y-97647973D01*
X173113257Y-97657966D01*
X171050500Y-97657966D01*
X171050500Y-97124183D01*
X173109389Y-97124183D01*
X173110912Y-97132607D01*
X173123292Y-97136000D01*
X174172885Y-97136000D01*
X174188124Y-97131525D01*
X174189329Y-97130135D01*
X174191000Y-97122452D01*
X174191000Y-95122115D01*
X174186525Y-95106876D01*
X174185135Y-95105671D01*
X174177452Y-95104000D01*
X173128225Y-95104000D01*
X173114694Y-95107973D01*
X173113257Y-95117966D01*
X173143565Y-95252446D01*
X173146645Y-95262275D01*
X173226770Y-95459603D01*
X173231413Y-95468794D01*
X173342694Y-95650388D01*
X173348777Y-95658699D01*
X173488213Y-95819667D01*
X173495580Y-95826883D01*
X173659434Y-95962916D01*
X173667881Y-95968831D01*
X173737479Y-96009501D01*
X173786203Y-96061140D01*
X173799274Y-96130923D01*
X173772543Y-96196694D01*
X173732087Y-96230053D01*
X173723462Y-96234542D01*
X173714738Y-96240036D01*
X173544433Y-96367905D01*
X173536726Y-96374748D01*
X173389590Y-96528717D01*
X173383104Y-96536727D01*
X173263098Y-96712649D01*
X173258000Y-96721623D01*
X173168338Y-96914783D01*
X173164775Y-96924470D01*
X173109389Y-97124183D01*
X171050500Y-97124183D01*
X171050500Y-94584183D01*
X173109389Y-94584183D01*
X173110912Y-94592607D01*
X173123292Y-94596000D01*
X174172885Y-94596000D01*
X174188124Y-94591525D01*
X174189329Y-94590135D01*
X174191000Y-94582452D01*
X174191000Y-93533102D01*
X174187082Y-93519758D01*
X174172806Y-93517771D01*
X174134324Y-93523660D01*
X174124288Y-93526051D01*
X173921868Y-93592212D01*
X173912359Y-93596209D01*
X173723463Y-93694542D01*
X173714738Y-93700036D01*
X173544433Y-93827905D01*
X173536726Y-93834748D01*
X173389590Y-93988717D01*
X173383104Y-93996727D01*
X173263098Y-94172649D01*
X173258000Y-94181623D01*
X173168338Y-94374783D01*
X173164775Y-94384470D01*
X173109389Y-94584183D01*
X171050500Y-94584183D01*
X171050500Y-89871494D01*
X171070502Y-89803373D01*
X171124158Y-89756880D01*
X171194432Y-89746776D01*
X171204308Y-89748601D01*
X171273549Y-89764269D01*
X171273555Y-89764270D01*
X171279186Y-89765544D01*
X171284957Y-89765771D01*
X171284959Y-89765771D01*
X171340494Y-89767953D01*
X171490470Y-89773846D01*
X171496179Y-89773018D01*
X171496183Y-89773018D01*
X171694015Y-89744333D01*
X171694019Y-89744332D01*
X171699730Y-89743504D01*
X171780401Y-89716120D01*
X171894483Y-89677395D01*
X171894488Y-89677393D01*
X171899955Y-89675537D01*
X171904998Y-89672713D01*
X172079395Y-89575046D01*
X172079399Y-89575043D01*
X172084442Y-89572219D01*
X172247012Y-89437012D01*
X172382219Y-89274442D01*
X172385043Y-89269399D01*
X172385046Y-89269395D01*
X172482713Y-89094998D01*
X172482714Y-89094996D01*
X172485537Y-89089955D01*
X172487393Y-89084488D01*
X172487395Y-89084483D01*
X172551647Y-88895200D01*
X172553504Y-88889730D01*
X172555439Y-88876387D01*
X172575090Y-88740860D01*
X172604660Y-88676315D01*
X172664432Y-88638003D01*
X172735429Y-88638087D01*
X172795109Y-88676542D01*
X172824525Y-88741158D01*
X172825515Y-88750695D01*
X172828796Y-88800749D01*
X172830217Y-88806345D01*
X172830218Y-88806350D01*
X172879424Y-89000095D01*
X172880845Y-89005690D01*
X172969369Y-89197714D01*
X173091405Y-89370391D01*
X173242865Y-89517937D01*
X173247661Y-89521142D01*
X173247664Y-89521144D01*
X173344728Y-89586000D01*
X173418677Y-89635411D01*
X173423982Y-89637690D01*
X173423986Y-89637692D01*
X173607650Y-89716600D01*
X173607653Y-89716601D01*
X173612953Y-89718878D01*
X173618582Y-89720152D01*
X173618583Y-89720152D01*
X173813550Y-89764269D01*
X173813553Y-89764269D01*
X173819186Y-89765544D01*
X173824957Y-89765771D01*
X173824959Y-89765771D01*
X173880494Y-89767953D01*
X174030470Y-89773846D01*
X174036179Y-89773018D01*
X174036183Y-89773018D01*
X174234015Y-89744333D01*
X174234019Y-89744332D01*
X174239730Y-89743504D01*
X174320401Y-89716120D01*
X174434483Y-89677395D01*
X174434488Y-89677393D01*
X174439955Y-89675537D01*
X174444998Y-89672713D01*
X174619395Y-89575046D01*
X174619399Y-89575043D01*
X174624442Y-89572219D01*
X174787012Y-89437012D01*
X174922219Y-89274442D01*
X174925043Y-89269399D01*
X174925046Y-89269395D01*
X175022713Y-89094998D01*
X175022714Y-89094996D01*
X175025537Y-89089955D01*
X175027393Y-89084488D01*
X175027395Y-89084483D01*
X175091647Y-88895200D01*
X175093504Y-88889730D01*
X175095439Y-88876387D01*
X175115090Y-88740860D01*
X175144660Y-88676315D01*
X175204432Y-88638003D01*
X175275429Y-88638087D01*
X175335109Y-88676542D01*
X175364525Y-88741158D01*
X175365515Y-88750695D01*
X175368796Y-88800749D01*
X175370217Y-88806345D01*
X175370218Y-88806350D01*
X175419424Y-89000095D01*
X175420845Y-89005690D01*
X175509369Y-89197714D01*
X175631405Y-89370391D01*
X175782865Y-89517937D01*
X175787661Y-89521142D01*
X175787664Y-89521144D01*
X175884728Y-89586000D01*
X175958677Y-89635411D01*
X175963982Y-89637690D01*
X175963986Y-89637692D01*
X176147650Y-89716600D01*
X176147653Y-89716601D01*
X176152953Y-89718878D01*
X176158582Y-89720152D01*
X176158583Y-89720152D01*
X176353550Y-89764269D01*
X176353553Y-89764269D01*
X176359186Y-89765544D01*
X176364957Y-89765771D01*
X176364959Y-89765771D01*
X176420494Y-89767953D01*
X176570470Y-89773846D01*
X176576179Y-89773018D01*
X176576183Y-89773018D01*
X176774015Y-89744333D01*
X176774019Y-89744332D01*
X176779730Y-89743504D01*
X176860401Y-89716120D01*
X176974483Y-89677395D01*
X176974488Y-89677393D01*
X176979955Y-89675537D01*
X176984998Y-89672713D01*
X177159395Y-89575046D01*
X177159399Y-89575043D01*
X177164442Y-89572219D01*
X177327012Y-89437012D01*
X177462219Y-89274442D01*
X177561851Y-89096537D01*
X177612587Y-89046877D01*
X177682119Y-89032530D01*
X177748369Y-89058051D01*
X177785979Y-89104855D01*
X177867133Y-89278888D01*
X177875965Y-89297829D01*
X178011505Y-89491401D01*
X178178599Y-89658495D01*
X178183107Y-89661652D01*
X178183110Y-89661654D01*
X178362787Y-89787465D01*
X178372170Y-89794035D01*
X178377152Y-89796358D01*
X178377157Y-89796361D01*
X178451750Y-89831144D01*
X178505035Y-89878062D01*
X178524500Y-89945339D01*
X178524500Y-93434536D01*
X178504498Y-93502657D01*
X178450842Y-93549150D01*
X178442745Y-93552512D01*
X178432176Y-93556474D01*
X178424997Y-93561854D01*
X178424994Y-93561856D01*
X178384491Y-93592212D01*
X178317454Y-93642454D01*
X178312072Y-93649635D01*
X178236856Y-93749994D01*
X178236854Y-93749997D01*
X178231474Y-93757176D01*
X178181149Y-93891420D01*
X178180296Y-93899270D01*
X178180296Y-93899271D01*
X178176930Y-93930256D01*
X178174500Y-93952623D01*
X178174500Y-94140605D01*
X178154498Y-94208726D01*
X178100842Y-94255219D01*
X178030568Y-94265323D01*
X177965988Y-94235829D01*
X177947542Y-94215994D01*
X177847104Y-94081491D01*
X177847103Y-94081490D01*
X177843651Y-94076867D01*
X177709246Y-93952624D01*
X177692622Y-93937257D01*
X177692620Y-93937255D01*
X177688381Y-93933337D01*
X177509554Y-93820505D01*
X177313160Y-93742152D01*
X177307503Y-93741027D01*
X177307497Y-93741025D01*
X177111442Y-93702028D01*
X177111440Y-93702028D01*
X177105775Y-93700901D01*
X177100000Y-93700825D01*
X177099996Y-93700825D01*
X176993976Y-93699437D01*
X176894346Y-93698133D01*
X176888649Y-93699112D01*
X176888648Y-93699112D01*
X176691650Y-93732962D01*
X176691649Y-93732962D01*
X176685953Y-93733941D01*
X176487575Y-93807127D01*
X176482614Y-93810079D01*
X176482613Y-93810079D01*
X176345891Y-93891420D01*
X176305856Y-93915238D01*
X176146881Y-94054655D01*
X176015976Y-94220708D01*
X176013287Y-94225819D01*
X176013285Y-94225822D01*
X175939155Y-94366720D01*
X175889736Y-94417692D01*
X175820603Y-94433855D01*
X175753707Y-94410076D01*
X175712097Y-94358294D01*
X175647971Y-94210814D01*
X175643105Y-94201739D01*
X175527426Y-94022926D01*
X175521136Y-94014757D01*
X175377806Y-93857240D01*
X175370273Y-93850215D01*
X175203139Y-93718222D01*
X175194552Y-93712517D01*
X175008117Y-93609599D01*
X174998705Y-93605369D01*
X174797959Y-93534280D01*
X174787988Y-93531646D01*
X174716837Y-93518972D01*
X174703540Y-93520432D01*
X174699000Y-93534989D01*
X174699000Y-98708517D01*
X174703064Y-98722359D01*
X174716478Y-98724393D01*
X174723184Y-98723534D01*
X174733262Y-98721392D01*
X174937255Y-98660191D01*
X174946842Y-98656433D01*
X175138095Y-98562739D01*
X175146945Y-98557464D01*
X175320328Y-98433792D01*
X175328200Y-98427139D01*
X175479052Y-98276812D01*
X175485730Y-98268965D01*
X175610003Y-98096020D01*
X175615313Y-98087183D01*
X175709670Y-97896267D01*
X175713019Y-97887809D01*
X175756693Y-97831836D01*
X175823696Y-97808359D01*
X175892755Y-97824835D01*
X175944597Y-97881442D01*
X175981951Y-97962469D01*
X175984369Y-97967714D01*
X176106405Y-98140391D01*
X176257865Y-98287937D01*
X176262661Y-98291142D01*
X176262664Y-98291144D01*
X176365216Y-98359667D01*
X176433677Y-98405411D01*
X176438985Y-98407692D01*
X176438986Y-98407692D01*
X176622650Y-98486600D01*
X176622653Y-98486601D01*
X176627953Y-98488878D01*
X176633582Y-98490152D01*
X176633583Y-98490152D01*
X176828550Y-98534269D01*
X176828553Y-98534269D01*
X176834186Y-98535544D01*
X176839957Y-98535771D01*
X176839959Y-98535771D01*
X176901989Y-98538208D01*
X177045470Y-98543846D01*
X177051179Y-98543018D01*
X177051183Y-98543018D01*
X177249015Y-98514333D01*
X177249019Y-98514332D01*
X177254730Y-98513504D01*
X177335451Y-98486103D01*
X177449483Y-98447395D01*
X177449488Y-98447393D01*
X177454955Y-98445537D01*
X177459998Y-98442713D01*
X177634395Y-98345046D01*
X177634399Y-98345043D01*
X177639442Y-98342219D01*
X177802012Y-98207012D01*
X177937219Y-98044442D01*
X178036851Y-97866537D01*
X178087587Y-97816877D01*
X178157119Y-97802530D01*
X178223369Y-97828051D01*
X178260979Y-97874855D01*
X178342133Y-98048888D01*
X178350965Y-98067829D01*
X178486505Y-98261401D01*
X178653599Y-98428495D01*
X178658107Y-98431652D01*
X178658110Y-98431654D01*
X178842354Y-98560663D01*
X178847170Y-98564035D01*
X178852152Y-98566358D01*
X178852157Y-98566361D01*
X179056355Y-98661580D01*
X179061337Y-98663903D01*
X179066645Y-98665325D01*
X179066647Y-98665326D01*
X179284277Y-98723639D01*
X179289592Y-98725063D01*
X179525000Y-98745659D01*
X179760408Y-98725063D01*
X179765723Y-98723639D01*
X179983353Y-98665326D01*
X179983355Y-98665325D01*
X179988663Y-98663903D01*
X179993645Y-98661580D01*
X180197843Y-98566361D01*
X180197848Y-98566358D01*
X180202830Y-98564035D01*
X180207646Y-98560663D01*
X180391890Y-98431654D01*
X180391893Y-98431652D01*
X180396401Y-98428495D01*
X180563495Y-98261401D01*
X180699035Y-98067829D01*
X180707868Y-98048888D01*
X180796580Y-97858645D01*
X180796581Y-97858643D01*
X180798903Y-97853663D01*
X180804752Y-97831836D01*
X180858639Y-97630723D01*
X180858639Y-97630722D01*
X180860063Y-97625408D01*
X180880659Y-97390000D01*
X180860063Y-97154592D01*
X180808557Y-96962367D01*
X180800326Y-96931647D01*
X180800325Y-96931645D01*
X180798903Y-96926337D01*
X180790857Y-96909082D01*
X180701358Y-96717152D01*
X180701356Y-96717149D01*
X180699035Y-96712171D01*
X180563495Y-96518599D01*
X180559599Y-96514703D01*
X180556069Y-96510496D01*
X180557788Y-96509054D01*
X180528379Y-96455197D01*
X180525500Y-96428414D01*
X180525500Y-96265464D01*
X180545502Y-96197343D01*
X180599158Y-96150850D01*
X180607255Y-96147488D01*
X180617824Y-96143526D01*
X180625003Y-96138146D01*
X180625006Y-96138144D01*
X180725365Y-96062928D01*
X180732546Y-96057546D01*
X180761656Y-96018705D01*
X180813144Y-95950006D01*
X180813146Y-95950003D01*
X180818526Y-95942824D01*
X180868851Y-95808580D01*
X180875500Y-95747377D01*
X180875499Y-93952624D01*
X180873404Y-93933337D01*
X180869705Y-93899278D01*
X180869704Y-93899274D01*
X180868851Y-93891420D01*
X180818526Y-93757176D01*
X180813146Y-93749997D01*
X180813144Y-93749994D01*
X180737928Y-93649635D01*
X180732546Y-93642454D01*
X180665509Y-93592212D01*
X180625006Y-93561856D01*
X180625003Y-93561854D01*
X180617824Y-93556474D01*
X180607270Y-93552518D01*
X180605448Y-93551149D01*
X180601545Y-93549012D01*
X180601853Y-93548449D01*
X180550507Y-93509878D01*
X180525806Y-93443316D01*
X180525500Y-93434536D01*
X180525500Y-89769712D01*
X180545502Y-89701591D01*
X180599158Y-89655098D01*
X180669432Y-89644994D01*
X180731985Y-89672768D01*
X180804434Y-89732916D01*
X180812881Y-89738831D01*
X180996756Y-89846279D01*
X181006042Y-89850729D01*
X181205001Y-89926703D01*
X181214899Y-89929579D01*
X181423595Y-89972038D01*
X181433823Y-89973257D01*
X181646650Y-89981062D01*
X181656936Y-89980595D01*
X181868185Y-89953534D01*
X181878262Y-89951392D01*
X182082255Y-89890191D01*
X182091842Y-89886433D01*
X182283098Y-89792738D01*
X182291944Y-89787465D01*
X182339247Y-89753723D01*
X182347648Y-89743023D01*
X182340660Y-89729870D01*
X181231922Y-88621132D01*
X181954408Y-88621132D01*
X181954539Y-88622965D01*
X181958790Y-88629580D01*
X182700474Y-89371264D01*
X182712484Y-89377823D01*
X182724223Y-89368855D01*
X182755004Y-89326019D01*
X182760315Y-89317180D01*
X182854670Y-89126267D01*
X182858019Y-89117809D01*
X182901693Y-89061836D01*
X182968696Y-89038359D01*
X183037755Y-89054835D01*
X183089597Y-89111442D01*
X183109026Y-89153587D01*
X183129369Y-89197714D01*
X183251405Y-89370391D01*
X183402865Y-89517937D01*
X183407661Y-89521142D01*
X183407664Y-89521144D01*
X183504728Y-89586000D01*
X183578677Y-89635411D01*
X183583982Y-89637690D01*
X183583986Y-89637692D01*
X183767650Y-89716600D01*
X183767653Y-89716601D01*
X183772953Y-89718878D01*
X183778582Y-89720152D01*
X183778583Y-89720152D01*
X183973550Y-89764269D01*
X183973553Y-89764269D01*
X183979186Y-89765544D01*
X183984957Y-89765771D01*
X183984959Y-89765771D01*
X184040494Y-89767953D01*
X184190470Y-89773846D01*
X184196179Y-89773018D01*
X184196183Y-89773018D01*
X184394015Y-89744333D01*
X184394019Y-89744332D01*
X184399730Y-89743504D01*
X184480401Y-89716120D01*
X184594483Y-89677395D01*
X184594488Y-89677393D01*
X184599955Y-89675537D01*
X184604998Y-89672713D01*
X184779395Y-89575046D01*
X184779399Y-89575043D01*
X184784442Y-89572219D01*
X184947012Y-89437012D01*
X185082219Y-89274442D01*
X185085043Y-89269399D01*
X185085046Y-89269395D01*
X185182713Y-89094998D01*
X185182714Y-89094996D01*
X185185537Y-89089955D01*
X185187393Y-89084488D01*
X185187395Y-89084483D01*
X185251647Y-88895200D01*
X185253504Y-88889730D01*
X185257391Y-88862926D01*
X185283314Y-88684140D01*
X185283314Y-88684138D01*
X185283846Y-88680470D01*
X185285429Y-88620000D01*
X185266081Y-88409440D01*
X185256159Y-88374257D01*
X185233734Y-88294746D01*
X185208686Y-88205931D01*
X185199692Y-88187692D01*
X185117719Y-88021469D01*
X185115165Y-88016290D01*
X185005223Y-87869059D01*
X184992104Y-87851491D01*
X184992103Y-87851490D01*
X184988651Y-87846867D01*
X184870280Y-87737446D01*
X184837622Y-87707257D01*
X184837620Y-87707255D01*
X184833381Y-87703337D01*
X184828498Y-87700256D01*
X184659434Y-87593584D01*
X184659433Y-87593584D01*
X184654554Y-87590505D01*
X184458160Y-87512152D01*
X184452503Y-87511027D01*
X184452497Y-87511025D01*
X184256442Y-87472028D01*
X184256440Y-87472028D01*
X184250775Y-87470901D01*
X184245000Y-87470825D01*
X184244996Y-87470825D01*
X184138976Y-87469437D01*
X184039346Y-87468133D01*
X184033649Y-87469112D01*
X184033648Y-87469112D01*
X183836650Y-87502962D01*
X183836649Y-87502962D01*
X183830953Y-87503941D01*
X183632575Y-87577127D01*
X183627614Y-87580079D01*
X183627613Y-87580079D01*
X183531709Y-87637136D01*
X183450856Y-87685238D01*
X183291881Y-87824655D01*
X183160976Y-87990708D01*
X183158287Y-87995819D01*
X183158285Y-87995822D01*
X183084155Y-88136720D01*
X183034736Y-88187692D01*
X182965603Y-88203855D01*
X182898707Y-88180076D01*
X182857097Y-88128294D01*
X182792971Y-87980814D01*
X182788105Y-87971739D01*
X182723063Y-87871197D01*
X182712377Y-87861995D01*
X182702812Y-87866398D01*
X181962022Y-88607188D01*
X181954408Y-88621132D01*
X181231922Y-88621132D01*
X180479849Y-87869059D01*
X180468313Y-87862759D01*
X180456030Y-87872383D01*
X180420167Y-87924955D01*
X180365256Y-87969957D01*
X180294731Y-87978128D01*
X180230984Y-87946874D01*
X180212866Y-87926220D01*
X180170978Y-87866398D01*
X180088495Y-87748599D01*
X179921401Y-87581505D01*
X179916893Y-87578348D01*
X179916890Y-87578346D01*
X179799898Y-87496427D01*
X180831223Y-87496427D01*
X180837968Y-87508758D01*
X181577188Y-88247978D01*
X181591132Y-88255592D01*
X181592965Y-88255461D01*
X181599580Y-88251210D01*
X182343389Y-87507401D01*
X182350410Y-87494544D01*
X182343611Y-87485213D01*
X182339554Y-87482518D01*
X182153117Y-87379599D01*
X182143705Y-87375369D01*
X181942959Y-87304280D01*
X181932989Y-87301646D01*
X181723327Y-87264301D01*
X181713073Y-87263331D01*
X181500116Y-87260728D01*
X181489832Y-87261448D01*
X181279321Y-87293661D01*
X181269293Y-87296050D01*
X181066868Y-87362212D01*
X181057359Y-87366209D01*
X180868466Y-87464540D01*
X180859734Y-87470039D01*
X180839677Y-87485099D01*
X180831223Y-87496427D01*
X179799898Y-87496427D01*
X179732339Y-87449122D01*
X179732336Y-87449120D01*
X179727830Y-87445965D01*
X179722848Y-87443642D01*
X179722843Y-87443639D01*
X179518645Y-87348420D01*
X179518644Y-87348419D01*
X179513663Y-87346097D01*
X179508355Y-87344675D01*
X179508353Y-87344674D01*
X179290723Y-87286361D01*
X179290722Y-87286361D01*
X179285408Y-87284937D01*
X179050000Y-87264341D01*
X178814592Y-87284937D01*
X178809278Y-87286361D01*
X178809277Y-87286361D01*
X178591647Y-87344674D01*
X178591645Y-87344675D01*
X178586337Y-87346097D01*
X178581357Y-87348419D01*
X178581355Y-87348420D01*
X178377152Y-87443642D01*
X178377149Y-87443644D01*
X178372171Y-87445965D01*
X178178599Y-87581505D01*
X178011505Y-87748599D01*
X177875965Y-87942171D01*
X177873644Y-87947149D01*
X177873642Y-87947152D01*
X177784143Y-88139082D01*
X177737225Y-88192367D01*
X177668948Y-88211828D01*
X177600988Y-88191286D01*
X177556942Y-88141561D01*
X177555720Y-88139082D01*
X177495165Y-88016290D01*
X177385223Y-87869059D01*
X177372104Y-87851491D01*
X177372103Y-87851490D01*
X177368651Y-87846867D01*
X177250280Y-87737446D01*
X177217622Y-87707257D01*
X177217620Y-87707255D01*
X177213381Y-87703337D01*
X177208498Y-87700256D01*
X177039434Y-87593584D01*
X177039433Y-87593584D01*
X177034554Y-87590505D01*
X176838160Y-87512152D01*
X176832503Y-87511027D01*
X176832497Y-87511025D01*
X176636442Y-87472028D01*
X176636440Y-87472028D01*
X176630775Y-87470901D01*
X176625000Y-87470825D01*
X176624996Y-87470825D01*
X176518976Y-87469437D01*
X176419346Y-87468133D01*
X176413649Y-87469112D01*
X176413648Y-87469112D01*
X176216650Y-87502962D01*
X176216649Y-87502962D01*
X176210953Y-87503941D01*
X176012575Y-87577127D01*
X176007614Y-87580079D01*
X176007613Y-87580079D01*
X175911709Y-87637136D01*
X175830856Y-87685238D01*
X175671881Y-87824655D01*
X175540976Y-87990708D01*
X175538287Y-87995819D01*
X175538285Y-87995822D01*
X175524792Y-88021469D01*
X175442523Y-88177836D01*
X175379820Y-88379773D01*
X175379141Y-88385510D01*
X175365088Y-88504239D01*
X175337217Y-88569537D01*
X175278469Y-88609401D01*
X175207494Y-88611174D01*
X175146828Y-88574295D01*
X175115730Y-88510471D01*
X175114490Y-88500958D01*
X175106610Y-88415197D01*
X175106081Y-88409440D01*
X175096159Y-88374257D01*
X175073734Y-88294746D01*
X175048686Y-88205931D01*
X175039692Y-88187692D01*
X174957719Y-88021469D01*
X174955165Y-88016290D01*
X174845223Y-87869059D01*
X174832104Y-87851491D01*
X174832103Y-87851490D01*
X174828651Y-87846867D01*
X174710280Y-87737446D01*
X174677622Y-87707257D01*
X174677620Y-87707255D01*
X174673381Y-87703337D01*
X174668498Y-87700256D01*
X174499434Y-87593584D01*
X174499433Y-87593584D01*
X174494554Y-87590505D01*
X174298160Y-87512152D01*
X174292503Y-87511027D01*
X174292497Y-87511025D01*
X174096442Y-87472028D01*
X174096440Y-87472028D01*
X174090775Y-87470901D01*
X174085000Y-87470825D01*
X174084996Y-87470825D01*
X173978976Y-87469437D01*
X173879346Y-87468133D01*
X173873649Y-87469112D01*
X173873648Y-87469112D01*
X173676650Y-87502962D01*
X173676649Y-87502962D01*
X173670953Y-87503941D01*
X173472575Y-87577127D01*
X173467614Y-87580079D01*
X173467613Y-87580079D01*
X173371709Y-87637136D01*
X173290856Y-87685238D01*
X173131881Y-87824655D01*
X173000976Y-87990708D01*
X172998287Y-87995819D01*
X172998285Y-87995822D01*
X172984792Y-88021469D01*
X172902523Y-88177836D01*
X172839820Y-88379773D01*
X172839141Y-88385510D01*
X172825088Y-88504239D01*
X172797217Y-88569537D01*
X172738469Y-88609401D01*
X172667494Y-88611174D01*
X172606828Y-88574295D01*
X172575730Y-88510471D01*
X172574490Y-88500958D01*
X172566610Y-88415197D01*
X172566081Y-88409440D01*
X172556159Y-88374257D01*
X172533734Y-88294746D01*
X172508686Y-88205931D01*
X172499692Y-88187692D01*
X172417719Y-88021469D01*
X172415165Y-88016290D01*
X172305223Y-87869059D01*
X172292104Y-87851491D01*
X172292103Y-87851490D01*
X172288651Y-87846867D01*
X172170280Y-87737446D01*
X172137622Y-87707257D01*
X172137620Y-87707255D01*
X172133381Y-87703337D01*
X172128498Y-87700256D01*
X171959434Y-87593584D01*
X171959433Y-87593584D01*
X171954554Y-87590505D01*
X171758160Y-87512152D01*
X171752503Y-87511027D01*
X171752497Y-87511025D01*
X171556442Y-87472028D01*
X171556440Y-87472028D01*
X171550775Y-87470901D01*
X171545000Y-87470825D01*
X171544996Y-87470825D01*
X171438976Y-87469437D01*
X171339346Y-87468133D01*
X171333649Y-87469112D01*
X171333648Y-87469112D01*
X171136650Y-87502962D01*
X171136649Y-87502962D01*
X171130953Y-87503941D01*
X170932575Y-87577127D01*
X170927614Y-87580079D01*
X170927613Y-87580079D01*
X170831709Y-87637136D01*
X170750856Y-87685238D01*
X170591881Y-87824655D01*
X170460976Y-87990708D01*
X170458287Y-87995819D01*
X170458285Y-87995822D01*
X170444792Y-88021469D01*
X170362523Y-88177836D01*
X170299820Y-88379773D01*
X170299141Y-88385510D01*
X170285088Y-88504239D01*
X170257217Y-88569537D01*
X170198469Y-88609401D01*
X170127494Y-88611174D01*
X170066828Y-88574295D01*
X170035730Y-88510471D01*
X170034490Y-88500958D01*
X170026610Y-88415197D01*
X170026081Y-88409440D01*
X170016159Y-88374257D01*
X169993734Y-88294746D01*
X169968686Y-88205931D01*
X169959692Y-88187692D01*
X169877719Y-88021469D01*
X169875165Y-88016290D01*
X169765223Y-87869059D01*
X169752104Y-87851491D01*
X169752103Y-87851490D01*
X169748651Y-87846867D01*
X169630280Y-87737446D01*
X169597622Y-87707257D01*
X169597620Y-87707255D01*
X169593381Y-87703337D01*
X169588498Y-87700256D01*
X169419434Y-87593584D01*
X169419433Y-87593584D01*
X169414554Y-87590505D01*
X169218160Y-87512152D01*
X169212503Y-87511027D01*
X169212497Y-87511025D01*
X169016442Y-87472028D01*
X169016440Y-87472028D01*
X169010775Y-87470901D01*
X169005000Y-87470825D01*
X169004996Y-87470825D01*
X168898976Y-87469437D01*
X168799346Y-87468133D01*
X168793649Y-87469112D01*
X168793648Y-87469112D01*
X168596650Y-87502962D01*
X168596649Y-87502962D01*
X168590953Y-87503941D01*
X168392575Y-87577127D01*
X168387614Y-87580079D01*
X168387613Y-87580079D01*
X168291709Y-87637136D01*
X168210856Y-87685238D01*
X168051881Y-87824655D01*
X167920976Y-87990708D01*
X167918287Y-87995819D01*
X167918285Y-87995822D01*
X167904792Y-88021469D01*
X167822523Y-88177836D01*
X167759820Y-88379773D01*
X167759141Y-88385510D01*
X167745088Y-88504239D01*
X167717217Y-88569537D01*
X167658469Y-88609401D01*
X167587494Y-88611174D01*
X167526828Y-88574295D01*
X167495730Y-88510471D01*
X167494490Y-88500958D01*
X167486610Y-88415197D01*
X167486081Y-88409440D01*
X167476159Y-88374257D01*
X167453734Y-88294746D01*
X167428686Y-88205931D01*
X167419692Y-88187692D01*
X167337719Y-88021469D01*
X167335165Y-88016290D01*
X167225223Y-87869059D01*
X167212104Y-87851491D01*
X167212103Y-87851490D01*
X167208651Y-87846867D01*
X167090280Y-87737446D01*
X167057622Y-87707257D01*
X167057620Y-87707255D01*
X167053381Y-87703337D01*
X167048498Y-87700256D01*
X166879434Y-87593584D01*
X166879433Y-87593584D01*
X166874554Y-87590505D01*
X166678160Y-87512152D01*
X166672503Y-87511027D01*
X166672497Y-87511025D01*
X166476442Y-87472028D01*
X166476440Y-87472028D01*
X166470775Y-87470901D01*
X166465000Y-87470825D01*
X166464996Y-87470825D01*
X166358976Y-87469437D01*
X166259346Y-87468133D01*
X166253649Y-87469112D01*
X166253648Y-87469112D01*
X166056650Y-87502962D01*
X166056649Y-87502962D01*
X166050953Y-87503941D01*
X165852575Y-87577127D01*
X165847614Y-87580079D01*
X165847613Y-87580079D01*
X165751709Y-87637136D01*
X165670856Y-87685238D01*
X165511881Y-87824655D01*
X165380976Y-87990708D01*
X165378287Y-87995819D01*
X165378285Y-87995822D01*
X165364792Y-88021469D01*
X165282523Y-88177836D01*
X165219820Y-88379773D01*
X165219141Y-88385510D01*
X165205088Y-88504239D01*
X165177217Y-88569537D01*
X165118469Y-88609401D01*
X165047494Y-88611174D01*
X164986828Y-88574295D01*
X164955730Y-88510471D01*
X164954490Y-88500958D01*
X164946610Y-88415197D01*
X164946081Y-88409440D01*
X164936159Y-88374257D01*
X164913734Y-88294746D01*
X164888686Y-88205931D01*
X164879692Y-88187692D01*
X164797719Y-88021469D01*
X164795165Y-88016290D01*
X164685223Y-87869059D01*
X164672104Y-87851491D01*
X164672103Y-87851490D01*
X164668651Y-87846867D01*
X164550280Y-87737446D01*
X164517622Y-87707257D01*
X164517620Y-87707255D01*
X164513381Y-87703337D01*
X164508498Y-87700256D01*
X164339434Y-87593584D01*
X164339433Y-87593584D01*
X164334554Y-87590505D01*
X164138160Y-87512152D01*
X164132503Y-87511027D01*
X164132497Y-87511025D01*
X163936442Y-87472028D01*
X163936440Y-87472028D01*
X163930775Y-87470901D01*
X163925000Y-87470825D01*
X163924996Y-87470825D01*
X163818976Y-87469437D01*
X163719346Y-87468133D01*
X163713649Y-87469112D01*
X163713648Y-87469112D01*
X163516650Y-87502962D01*
X163516649Y-87502962D01*
X163510953Y-87503941D01*
X163312575Y-87577127D01*
X163307614Y-87580079D01*
X163307613Y-87580079D01*
X163211709Y-87637136D01*
X163130856Y-87685238D01*
X162971881Y-87824655D01*
X162840976Y-87990708D01*
X162838287Y-87995819D01*
X162838285Y-87995822D01*
X162824792Y-88021469D01*
X162742523Y-88177836D01*
X162679820Y-88379773D01*
X162679141Y-88385510D01*
X162665088Y-88504239D01*
X162637217Y-88569537D01*
X162578469Y-88609401D01*
X162507494Y-88611174D01*
X162446828Y-88574295D01*
X162415730Y-88510471D01*
X162414490Y-88500958D01*
X162406610Y-88415197D01*
X162406081Y-88409440D01*
X162396159Y-88374257D01*
X162373734Y-88294746D01*
X162348686Y-88205931D01*
X162339692Y-88187692D01*
X162257719Y-88021469D01*
X162255165Y-88016290D01*
X162145223Y-87869059D01*
X162132104Y-87851491D01*
X162132103Y-87851490D01*
X162128651Y-87846867D01*
X162010280Y-87737446D01*
X161977622Y-87707257D01*
X161977620Y-87707255D01*
X161973381Y-87703337D01*
X161968498Y-87700256D01*
X161799434Y-87593584D01*
X161799433Y-87593584D01*
X161794554Y-87590505D01*
X161598160Y-87512152D01*
X161592503Y-87511027D01*
X161592497Y-87511025D01*
X161396442Y-87472028D01*
X161396440Y-87472028D01*
X161390775Y-87470901D01*
X161385000Y-87470825D01*
X161384996Y-87470825D01*
X161278976Y-87469437D01*
X161179346Y-87468133D01*
X161173649Y-87469112D01*
X161173648Y-87469112D01*
X160976650Y-87502962D01*
X160976649Y-87502962D01*
X160970953Y-87503941D01*
X160772575Y-87577127D01*
X160767614Y-87580079D01*
X160767613Y-87580079D01*
X160671709Y-87637136D01*
X160590856Y-87685238D01*
X160431881Y-87824655D01*
X160300976Y-87990708D01*
X160298287Y-87995819D01*
X160298285Y-87995822D01*
X160284792Y-88021469D01*
X160202523Y-88177836D01*
X160139820Y-88379773D01*
X160139141Y-88385510D01*
X160125088Y-88504239D01*
X160097217Y-88569537D01*
X160038469Y-88609401D01*
X159967494Y-88611174D01*
X159906828Y-88574295D01*
X159875730Y-88510471D01*
X159874490Y-88500958D01*
X159866610Y-88415197D01*
X159866081Y-88409440D01*
X159856159Y-88374257D01*
X159833734Y-88294746D01*
X159808686Y-88205931D01*
X159799692Y-88187692D01*
X159717719Y-88021469D01*
X159715165Y-88016290D01*
X159605223Y-87869059D01*
X159592104Y-87851491D01*
X159592103Y-87851490D01*
X159588651Y-87846867D01*
X159470280Y-87737446D01*
X159437622Y-87707257D01*
X159437620Y-87707255D01*
X159433381Y-87703337D01*
X159428498Y-87700256D01*
X159259434Y-87593584D01*
X159259433Y-87593584D01*
X159254554Y-87590505D01*
X159058160Y-87512152D01*
X159052503Y-87511027D01*
X159052497Y-87511025D01*
X158856442Y-87472028D01*
X158856440Y-87472028D01*
X158850775Y-87470901D01*
X158845000Y-87470825D01*
X158844996Y-87470825D01*
X158738976Y-87469437D01*
X158639346Y-87468133D01*
X158633649Y-87469112D01*
X158633648Y-87469112D01*
X158436650Y-87502962D01*
X158436649Y-87502962D01*
X158430953Y-87503941D01*
X158232575Y-87577127D01*
X158227614Y-87580079D01*
X158227613Y-87580079D01*
X158131709Y-87637136D01*
X158050856Y-87685238D01*
X157891881Y-87824655D01*
X157760976Y-87990708D01*
X157758287Y-87995819D01*
X157758285Y-87995822D01*
X157744792Y-88021469D01*
X157662523Y-88177836D01*
X157599820Y-88379773D01*
X157599141Y-88385510D01*
X157585088Y-88504239D01*
X157557217Y-88569537D01*
X157498469Y-88609401D01*
X157427494Y-88611174D01*
X157366828Y-88574295D01*
X157335730Y-88510471D01*
X157334490Y-88500958D01*
X157326610Y-88415197D01*
X157326081Y-88409440D01*
X157316159Y-88374257D01*
X157293734Y-88294746D01*
X157268686Y-88205931D01*
X157259692Y-88187692D01*
X157177719Y-88021469D01*
X157175165Y-88016290D01*
X157065223Y-87869059D01*
X157052104Y-87851491D01*
X157052103Y-87851490D01*
X157048651Y-87846867D01*
X156930280Y-87737446D01*
X156897622Y-87707257D01*
X156897620Y-87707255D01*
X156893381Y-87703337D01*
X156888498Y-87700256D01*
X156719434Y-87593584D01*
X156719433Y-87593584D01*
X156714554Y-87590505D01*
X156518160Y-87512152D01*
X156512503Y-87511027D01*
X156512497Y-87511025D01*
X156316442Y-87472028D01*
X156316440Y-87472028D01*
X156310775Y-87470901D01*
X156305000Y-87470825D01*
X156304996Y-87470825D01*
X156198976Y-87469437D01*
X156099346Y-87468133D01*
X156093649Y-87469112D01*
X156093648Y-87469112D01*
X155896650Y-87502962D01*
X155896649Y-87502962D01*
X155890953Y-87503941D01*
X155692575Y-87577127D01*
X155687614Y-87580079D01*
X155687613Y-87580079D01*
X155591709Y-87637136D01*
X155510856Y-87685238D01*
X155351881Y-87824655D01*
X155220976Y-87990708D01*
X155218287Y-87995819D01*
X155218285Y-87995822D01*
X155204792Y-88021469D01*
X155122523Y-88177836D01*
X155059820Y-88379773D01*
X155059141Y-88385510D01*
X155045088Y-88504239D01*
X155017217Y-88569537D01*
X154958469Y-88609401D01*
X154887494Y-88611174D01*
X154826828Y-88574295D01*
X154795730Y-88510471D01*
X154794490Y-88500958D01*
X154786610Y-88415197D01*
X154786081Y-88409440D01*
X154776159Y-88374257D01*
X154753734Y-88294746D01*
X154728686Y-88205931D01*
X154719692Y-88187692D01*
X154637719Y-88021469D01*
X154635165Y-88016290D01*
X154525223Y-87869059D01*
X154512104Y-87851491D01*
X154512103Y-87851490D01*
X154508651Y-87846867D01*
X154390280Y-87737446D01*
X154357622Y-87707257D01*
X154357620Y-87707255D01*
X154353381Y-87703337D01*
X154348498Y-87700256D01*
X154179434Y-87593584D01*
X154179433Y-87593584D01*
X154174554Y-87590505D01*
X153978160Y-87512152D01*
X153972503Y-87511027D01*
X153972497Y-87511025D01*
X153776442Y-87472028D01*
X153776440Y-87472028D01*
X153770775Y-87470901D01*
X153765000Y-87470825D01*
X153764996Y-87470825D01*
X153658976Y-87469437D01*
X153559346Y-87468133D01*
X153553649Y-87469112D01*
X153553648Y-87469112D01*
X153356650Y-87502962D01*
X153356649Y-87502962D01*
X153350953Y-87503941D01*
X153152575Y-87577127D01*
X153147614Y-87580079D01*
X153147613Y-87580079D01*
X153051709Y-87637136D01*
X152970856Y-87685238D01*
X152811881Y-87824655D01*
X152680976Y-87990708D01*
X152678287Y-87995819D01*
X152678285Y-87995822D01*
X152664792Y-88021469D01*
X152582523Y-88177836D01*
X152519820Y-88379773D01*
X152519141Y-88385510D01*
X152505088Y-88504239D01*
X152477217Y-88569537D01*
X152418469Y-88609401D01*
X152347494Y-88611174D01*
X152286828Y-88574295D01*
X152255730Y-88510471D01*
X152254490Y-88500958D01*
X152246610Y-88415197D01*
X152246081Y-88409440D01*
X152236159Y-88374257D01*
X152213734Y-88294746D01*
X152188686Y-88205931D01*
X152179692Y-88187692D01*
X152097719Y-88021469D01*
X152095165Y-88016290D01*
X151985223Y-87869059D01*
X151972104Y-87851491D01*
X151972103Y-87851490D01*
X151968651Y-87846867D01*
X151850280Y-87737446D01*
X151817622Y-87707257D01*
X151817620Y-87707255D01*
X151813381Y-87703337D01*
X151808498Y-87700256D01*
X151639434Y-87593584D01*
X151639433Y-87593584D01*
X151634554Y-87590505D01*
X151438160Y-87512152D01*
X151432503Y-87511027D01*
X151432497Y-87511025D01*
X151236442Y-87472028D01*
X151236440Y-87472028D01*
X151230775Y-87470901D01*
X151225000Y-87470825D01*
X151224996Y-87470825D01*
X151118976Y-87469437D01*
X151019346Y-87468133D01*
X151013649Y-87469112D01*
X151013648Y-87469112D01*
X150816650Y-87502962D01*
X150816649Y-87502962D01*
X150810953Y-87503941D01*
X150612575Y-87577127D01*
X150607614Y-87580079D01*
X150607613Y-87580079D01*
X150511709Y-87637136D01*
X150430856Y-87685238D01*
X150271881Y-87824655D01*
X150140976Y-87990708D01*
X150138287Y-87995819D01*
X150138285Y-87995822D01*
X150124792Y-88021469D01*
X150042523Y-88177836D01*
X149979820Y-88379773D01*
X149979141Y-88385510D01*
X149965088Y-88504239D01*
X149937217Y-88569537D01*
X149878469Y-88609401D01*
X149807494Y-88611174D01*
X149746828Y-88574295D01*
X149715730Y-88510471D01*
X149714490Y-88500958D01*
X149706610Y-88415197D01*
X149706081Y-88409440D01*
X149696159Y-88374257D01*
X149673734Y-88294746D01*
X149648686Y-88205931D01*
X149639692Y-88187692D01*
X149557719Y-88021469D01*
X149555165Y-88016290D01*
X149445223Y-87869059D01*
X149432104Y-87851491D01*
X149432103Y-87851490D01*
X149428651Y-87846867D01*
X149310280Y-87737446D01*
X149277622Y-87707257D01*
X149277620Y-87707255D01*
X149273381Y-87703337D01*
X149268498Y-87700256D01*
X149099434Y-87593584D01*
X149099433Y-87593584D01*
X149094554Y-87590505D01*
X148898160Y-87512152D01*
X148892503Y-87511027D01*
X148892497Y-87511025D01*
X148696442Y-87472028D01*
X148696440Y-87472028D01*
X148690775Y-87470901D01*
X148685000Y-87470825D01*
X148684996Y-87470825D01*
X148578976Y-87469437D01*
X148479346Y-87468133D01*
X148473649Y-87469112D01*
X148473648Y-87469112D01*
X148276650Y-87502962D01*
X148276649Y-87502962D01*
X148270953Y-87503941D01*
X148072575Y-87577127D01*
X148067614Y-87580079D01*
X148067613Y-87580079D01*
X147971709Y-87637136D01*
X147890856Y-87685238D01*
X147731881Y-87824655D01*
X147600976Y-87990708D01*
X147598287Y-87995819D01*
X147598285Y-87995822D01*
X147584792Y-88021469D01*
X147502523Y-88177836D01*
X147439820Y-88379773D01*
X147439141Y-88385510D01*
X147425088Y-88504239D01*
X147397217Y-88569537D01*
X147338469Y-88609401D01*
X147267494Y-88611174D01*
X147206828Y-88574295D01*
X147175730Y-88510471D01*
X147174490Y-88500958D01*
X147166610Y-88415197D01*
X147166081Y-88409440D01*
X147156159Y-88374257D01*
X147133734Y-88294746D01*
X147108686Y-88205931D01*
X147099692Y-88187692D01*
X147017719Y-88021469D01*
X147015165Y-88016290D01*
X146905223Y-87869059D01*
X146892104Y-87851491D01*
X146892103Y-87851490D01*
X146888651Y-87846867D01*
X146770280Y-87737446D01*
X146737622Y-87707257D01*
X146737620Y-87707255D01*
X146733381Y-87703337D01*
X146728498Y-87700256D01*
X146559434Y-87593584D01*
X146559433Y-87593584D01*
X146554554Y-87590505D01*
X146358160Y-87512152D01*
X146352503Y-87511027D01*
X146352497Y-87511025D01*
X146156442Y-87472028D01*
X146156440Y-87472028D01*
X146150775Y-87470901D01*
X146145000Y-87470825D01*
X146144996Y-87470825D01*
X146038976Y-87469437D01*
X145939346Y-87468133D01*
X145933649Y-87469112D01*
X145933648Y-87469112D01*
X145923679Y-87470825D01*
X145762409Y-87498536D01*
X145691886Y-87490359D01*
X145651977Y-87463452D01*
X144809870Y-86621346D01*
X144806217Y-86617536D01*
X144784812Y-86594258D01*
X144764201Y-86571844D01*
X144727198Y-86548901D01*
X144717448Y-86542200D01*
X144682783Y-86515888D01*
X144668804Y-86510354D01*
X144648801Y-86500293D01*
X144636014Y-86492365D01*
X144627763Y-86489968D01*
X144627761Y-86489967D01*
X144594228Y-86480225D01*
X144582995Y-86476379D01*
X144562353Y-86468206D01*
X144542547Y-86460364D01*
X144534006Y-86459466D01*
X144534005Y-86459466D01*
X144527592Y-86458792D01*
X144505617Y-86454480D01*
X144491175Y-86450285D01*
X144483692Y-86449735D01*
X144482792Y-86449669D01*
X144482781Y-86449669D01*
X144480485Y-86449500D01*
X144445783Y-86449500D01*
X144432613Y-86448810D01*
X144422384Y-86447735D01*
X144392546Y-86444599D01*
X144384081Y-86446031D01*
X144384072Y-86446031D01*
X144374000Y-86447735D01*
X144352987Y-86449500D01*
X134514993Y-86449500D01*
X134509717Y-86449389D01*
X134505310Y-86449204D01*
X134447706Y-86446790D01*
X134439341Y-86448752D01*
X134405338Y-86456727D01*
X134393667Y-86458890D01*
X134382907Y-86460364D01*
X134350568Y-86464794D01*
X134342684Y-86468206D01*
X134342683Y-86468206D01*
X134336770Y-86470765D01*
X134315501Y-86477799D01*
X134300864Y-86481232D01*
X134293339Y-86485369D01*
X134293336Y-86485370D01*
X134262732Y-86502195D01*
X134252087Y-86507411D01*
X134212145Y-86524695D01*
X134200459Y-86534158D01*
X134181875Y-86546645D01*
X134168692Y-86553893D01*
X134160578Y-86560897D01*
X134136042Y-86585433D01*
X134126241Y-86594258D01*
X134101608Y-86614206D01*
X134094930Y-86619614D01*
X134089957Y-86626612D01*
X134089952Y-86626617D01*
X134084032Y-86634948D01*
X134070421Y-86651054D01*
X133039192Y-87682284D01*
X132891982Y-87829494D01*
X132829670Y-87863519D01*
X132758855Y-87858455D01*
X132702019Y-87815908D01*
X132677208Y-87749388D01*
X132682328Y-87703771D01*
X132705379Y-87627903D01*
X132707555Y-87617837D01*
X132708986Y-87606962D01*
X132706775Y-87592778D01*
X132693617Y-87589000D01*
X130058225Y-87589000D01*
X130044694Y-87592973D01*
X130043257Y-87602966D01*
X120300500Y-87602966D01*
X120300500Y-63526113D01*
X120320502Y-63457992D01*
X120374158Y-63411499D01*
X120444432Y-63401395D01*
X120509012Y-63430889D01*
X120547396Y-63490615D01*
X120550268Y-63502502D01*
X120573269Y-63623079D01*
X120584904Y-63658888D01*
X120647097Y-63850296D01*
X120670497Y-63922315D01*
X120672184Y-63925901D01*
X120672186Y-63925905D01*
X120802775Y-64203421D01*
X120802779Y-64203428D01*
X120804463Y-64207007D01*
X120973053Y-64472663D01*
X121173610Y-64715094D01*
X121402970Y-64930478D01*
X121406172Y-64932805D01*
X121406174Y-64932806D01*
X121654307Y-65113085D01*
X121654312Y-65113088D01*
X121657516Y-65115416D01*
X121711242Y-65144952D01*
X121923839Y-65261829D01*
X121933234Y-65266994D01*
X122022470Y-65302325D01*
X122222092Y-65381361D01*
X122222095Y-65381362D01*
X122225775Y-65382819D01*
X122229609Y-65383803D01*
X122229617Y-65383806D01*
X122418074Y-65432193D01*
X122530527Y-65461066D01*
X122534455Y-65461562D01*
X122534459Y-65461563D01*
X122658375Y-65477217D01*
X122842682Y-65500500D01*
X123157318Y-65500500D01*
X123341625Y-65477217D01*
X123465541Y-65461563D01*
X123465545Y-65461562D01*
X123469473Y-65461066D01*
X123581926Y-65432193D01*
X123770383Y-65383806D01*
X123770391Y-65383803D01*
X123774225Y-65382819D01*
X123777905Y-65381362D01*
X123777908Y-65381361D01*
X123977530Y-65302325D01*
X124066766Y-65266994D01*
X124076162Y-65261829D01*
X124288758Y-65144952D01*
X124342484Y-65115416D01*
X124345688Y-65113088D01*
X124345693Y-65113085D01*
X124593826Y-64932806D01*
X124593828Y-64932805D01*
X124597030Y-64930478D01*
X124826390Y-64715094D01*
X125026947Y-64472663D01*
X125195537Y-64207007D01*
X125197221Y-64203428D01*
X125197225Y-64203421D01*
X125327814Y-63925905D01*
X125327816Y-63925901D01*
X125329503Y-63922315D01*
X125338493Y-63894646D01*
X129609500Y-63894646D01*
X129612618Y-63920846D01*
X129616456Y-63929486D01*
X129616456Y-63929487D01*
X129652040Y-64009598D01*
X129658061Y-64023153D01*
X129666294Y-64031372D01*
X129666295Y-64031373D01*
X129692363Y-64057395D01*
X129737287Y-64102241D01*
X129747924Y-64106944D01*
X129747926Y-64106945D01*
X129796409Y-64128379D01*
X129839673Y-64147506D01*
X129865354Y-64150500D01*
X131654646Y-64150500D01*
X131658350Y-64150059D01*
X131658353Y-64150059D01*
X131666956Y-64149035D01*
X131680846Y-64147382D01*
X131725639Y-64127486D01*
X131772518Y-64106663D01*
X131783153Y-64101939D01*
X131808110Y-64076939D01*
X131854023Y-64030945D01*
X131862241Y-64022713D01*
X131868040Y-64009598D01*
X131893265Y-63952538D01*
X131907506Y-63920327D01*
X131910500Y-63894646D01*
X131910500Y-63210673D01*
X131930502Y-63142552D01*
X131984158Y-63096059D01*
X132054432Y-63085955D01*
X132119012Y-63115449D01*
X132157396Y-63175175D01*
X132158658Y-63180784D01*
X132158796Y-63180749D01*
X132210845Y-63385690D01*
X132213262Y-63390933D01*
X132261659Y-63495915D01*
X132299369Y-63577714D01*
X132421405Y-63750391D01*
X132425539Y-63754418D01*
X132565727Y-63890983D01*
X132572865Y-63897937D01*
X132577661Y-63901142D01*
X132577664Y-63901144D01*
X132680216Y-63969667D01*
X132748677Y-64015411D01*
X132753985Y-64017692D01*
X132753986Y-64017692D01*
X132937650Y-64096600D01*
X132937653Y-64096601D01*
X132942953Y-64098878D01*
X132948582Y-64100152D01*
X132948583Y-64100152D01*
X133143550Y-64144269D01*
X133143553Y-64144269D01*
X133149186Y-64145544D01*
X133154957Y-64145771D01*
X133154959Y-64145771D01*
X133216989Y-64148208D01*
X133360470Y-64153846D01*
X133366179Y-64153018D01*
X133366183Y-64153018D01*
X133564015Y-64124333D01*
X133564019Y-64124332D01*
X133569730Y-64123504D01*
X133643378Y-64098504D01*
X133764483Y-64057395D01*
X133764488Y-64057393D01*
X133769955Y-64055537D01*
X133774998Y-64052713D01*
X133949395Y-63955046D01*
X133949399Y-63955043D01*
X133954442Y-63952219D01*
X134117012Y-63817012D01*
X134252219Y-63654442D01*
X134255043Y-63649399D01*
X134255046Y-63649395D01*
X134352713Y-63474998D01*
X134352714Y-63474996D01*
X134355537Y-63469955D01*
X134357393Y-63464488D01*
X134357395Y-63464483D01*
X134421647Y-63275200D01*
X134423504Y-63269730D01*
X134424333Y-63264015D01*
X134445090Y-63120860D01*
X134474660Y-63056315D01*
X134534432Y-63018003D01*
X134605429Y-63018087D01*
X134665109Y-63056542D01*
X134694525Y-63121158D01*
X134695515Y-63130695D01*
X134698796Y-63180749D01*
X134700217Y-63186345D01*
X134700218Y-63186350D01*
X134733632Y-63317915D01*
X134750845Y-63385690D01*
X134753262Y-63390933D01*
X134801659Y-63495915D01*
X134839369Y-63577714D01*
X134961405Y-63750391D01*
X134965539Y-63754418D01*
X135105727Y-63890983D01*
X135112865Y-63897937D01*
X135117661Y-63901142D01*
X135117664Y-63901144D01*
X135220216Y-63969667D01*
X135288677Y-64015411D01*
X135293985Y-64017692D01*
X135293986Y-64017692D01*
X135477650Y-64096600D01*
X135477653Y-64096601D01*
X135482953Y-64098878D01*
X135488582Y-64100152D01*
X135488583Y-64100152D01*
X135683550Y-64144269D01*
X135683553Y-64144269D01*
X135689186Y-64145544D01*
X135694957Y-64145771D01*
X135694959Y-64145771D01*
X135756989Y-64148208D01*
X135900470Y-64153846D01*
X135906179Y-64153018D01*
X135906183Y-64153018D01*
X136104015Y-64124333D01*
X136104019Y-64124332D01*
X136109730Y-64123504D01*
X136183378Y-64098504D01*
X136304483Y-64057395D01*
X136304488Y-64057393D01*
X136309955Y-64055537D01*
X136314998Y-64052713D01*
X136489395Y-63955046D01*
X136489399Y-63955043D01*
X136494442Y-63952219D01*
X136657012Y-63817012D01*
X136792219Y-63654442D01*
X136888931Y-63481751D01*
X136939667Y-63432091D01*
X137009198Y-63417744D01*
X137075449Y-63443265D01*
X137115607Y-63495915D01*
X137161770Y-63609603D01*
X137166413Y-63618794D01*
X137277694Y-63800388D01*
X137283777Y-63808699D01*
X137423213Y-63969667D01*
X137430580Y-63976883D01*
X137594434Y-64112916D01*
X137602881Y-64118831D01*
X137786756Y-64226279D01*
X137796042Y-64230729D01*
X137995001Y-64306703D01*
X138004899Y-64309579D01*
X138108250Y-64330606D01*
X138122299Y-64329410D01*
X138126000Y-64319065D01*
X138126000Y-64318517D01*
X138634000Y-64318517D01*
X138638064Y-64332359D01*
X138651478Y-64334393D01*
X138658184Y-64333534D01*
X138668262Y-64331392D01*
X138872255Y-64270191D01*
X138881842Y-64266433D01*
X139073095Y-64172739D01*
X139081945Y-64167464D01*
X139255328Y-64043792D01*
X139263200Y-64037139D01*
X139414052Y-63886812D01*
X139420730Y-63878965D01*
X139545003Y-63706020D01*
X139550313Y-63697183D01*
X139644670Y-63506267D01*
X139648019Y-63497809D01*
X139691693Y-63441836D01*
X139758696Y-63418359D01*
X139827755Y-63434835D01*
X139879597Y-63491442D01*
X139889949Y-63513897D01*
X139919369Y-63577714D01*
X140041405Y-63750391D01*
X140045539Y-63754418D01*
X140185727Y-63890983D01*
X140192865Y-63897937D01*
X140197661Y-63901142D01*
X140197664Y-63901144D01*
X140300216Y-63969667D01*
X140368677Y-64015411D01*
X140373985Y-64017692D01*
X140373986Y-64017692D01*
X140557650Y-64096600D01*
X140557653Y-64096601D01*
X140562953Y-64098878D01*
X140568582Y-64100152D01*
X140568583Y-64100152D01*
X140763550Y-64144269D01*
X140763553Y-64144269D01*
X140769186Y-64145544D01*
X140774957Y-64145771D01*
X140774959Y-64145771D01*
X140836989Y-64148208D01*
X140980470Y-64153846D01*
X140986179Y-64153018D01*
X140986183Y-64153018D01*
X141184015Y-64124333D01*
X141184019Y-64124332D01*
X141189730Y-64123504D01*
X141263378Y-64098504D01*
X141384483Y-64057395D01*
X141384488Y-64057393D01*
X141389955Y-64055537D01*
X141394998Y-64052713D01*
X141569395Y-63955046D01*
X141569399Y-63955043D01*
X141574442Y-63952219D01*
X141737012Y-63817012D01*
X141872219Y-63654442D01*
X141875043Y-63649399D01*
X141875046Y-63649395D01*
X141972713Y-63474998D01*
X141972714Y-63474996D01*
X141975537Y-63469955D01*
X141977393Y-63464488D01*
X141977395Y-63464483D01*
X142041647Y-63275200D01*
X142043504Y-63269730D01*
X142044333Y-63264015D01*
X142065090Y-63120860D01*
X142094660Y-63056315D01*
X142154432Y-63018003D01*
X142225429Y-63018087D01*
X142285109Y-63056542D01*
X142314525Y-63121158D01*
X142315515Y-63130695D01*
X142318796Y-63180749D01*
X142320217Y-63186345D01*
X142320218Y-63186350D01*
X142353632Y-63317915D01*
X142370845Y-63385690D01*
X142373262Y-63390933D01*
X142421659Y-63495915D01*
X142459369Y-63577714D01*
X142581405Y-63750391D01*
X142585539Y-63754418D01*
X142725727Y-63890983D01*
X142732865Y-63897937D01*
X142737661Y-63901142D01*
X142737664Y-63901144D01*
X142840216Y-63969667D01*
X142908677Y-64015411D01*
X142913985Y-64017692D01*
X142913986Y-64017692D01*
X143097650Y-64096600D01*
X143097653Y-64096601D01*
X143102953Y-64098878D01*
X143108582Y-64100152D01*
X143108583Y-64100152D01*
X143303550Y-64144269D01*
X143303553Y-64144269D01*
X143309186Y-64145544D01*
X143314957Y-64145771D01*
X143314959Y-64145771D01*
X143376989Y-64148208D01*
X143520470Y-64153846D01*
X143526179Y-64153018D01*
X143526183Y-64153018D01*
X143724015Y-64124333D01*
X143724019Y-64124332D01*
X143729730Y-64123504D01*
X143803378Y-64098504D01*
X143924483Y-64057395D01*
X143924488Y-64057393D01*
X143929955Y-64055537D01*
X143934998Y-64052713D01*
X144109395Y-63955046D01*
X144109399Y-63955043D01*
X144114442Y-63952219D01*
X144277012Y-63817012D01*
X144412219Y-63654442D01*
X144415043Y-63649399D01*
X144415046Y-63649395D01*
X144512713Y-63474998D01*
X144512714Y-63474996D01*
X144515537Y-63469955D01*
X144517393Y-63464488D01*
X144517395Y-63464483D01*
X144581647Y-63275200D01*
X144583504Y-63269730D01*
X144584333Y-63264015D01*
X144605090Y-63120860D01*
X144634660Y-63056315D01*
X144694432Y-63018003D01*
X144765429Y-63018087D01*
X144825109Y-63056542D01*
X144854525Y-63121158D01*
X144855515Y-63130695D01*
X144858796Y-63180749D01*
X144860217Y-63186345D01*
X144860218Y-63186350D01*
X144893632Y-63317915D01*
X144910845Y-63385690D01*
X144913262Y-63390933D01*
X144961659Y-63495915D01*
X144999369Y-63577714D01*
X145121405Y-63750391D01*
X145125539Y-63754418D01*
X145265727Y-63890983D01*
X145272865Y-63897937D01*
X145277661Y-63901142D01*
X145277664Y-63901144D01*
X145380216Y-63969667D01*
X145448677Y-64015411D01*
X145453985Y-64017692D01*
X145453986Y-64017692D01*
X145637650Y-64096600D01*
X145637653Y-64096601D01*
X145642953Y-64098878D01*
X145648582Y-64100152D01*
X145648583Y-64100152D01*
X145843550Y-64144269D01*
X145843553Y-64144269D01*
X145849186Y-64145544D01*
X145854957Y-64145771D01*
X145854959Y-64145771D01*
X145916989Y-64148208D01*
X146060470Y-64153846D01*
X146066179Y-64153018D01*
X146066183Y-64153018D01*
X146264015Y-64124333D01*
X146264019Y-64124332D01*
X146269730Y-64123504D01*
X146343378Y-64098504D01*
X146464483Y-64057395D01*
X146464488Y-64057393D01*
X146469955Y-64055537D01*
X146474998Y-64052713D01*
X146649395Y-63955046D01*
X146649399Y-63955043D01*
X146654442Y-63952219D01*
X146817012Y-63817012D01*
X146952219Y-63654442D01*
X146955043Y-63649399D01*
X146955046Y-63649395D01*
X147052713Y-63474998D01*
X147052714Y-63474996D01*
X147055537Y-63469955D01*
X147057393Y-63464488D01*
X147057395Y-63464483D01*
X147121647Y-63275200D01*
X147123504Y-63269730D01*
X147124333Y-63264015D01*
X147145090Y-63120860D01*
X147174660Y-63056315D01*
X147234432Y-63018003D01*
X147305429Y-63018087D01*
X147365109Y-63056542D01*
X147394525Y-63121158D01*
X147395515Y-63130695D01*
X147398796Y-63180749D01*
X147400217Y-63186345D01*
X147400218Y-63186350D01*
X147433632Y-63317915D01*
X147450845Y-63385690D01*
X147453262Y-63390933D01*
X147501659Y-63495915D01*
X147539369Y-63577714D01*
X147661405Y-63750391D01*
X147665539Y-63754418D01*
X147805727Y-63890983D01*
X147812865Y-63897937D01*
X147817661Y-63901142D01*
X147817664Y-63901144D01*
X147920216Y-63969667D01*
X147988677Y-64015411D01*
X147993985Y-64017692D01*
X147993986Y-64017692D01*
X148177650Y-64096600D01*
X148177653Y-64096601D01*
X148182953Y-64098878D01*
X148188582Y-64100152D01*
X148188583Y-64100152D01*
X148383550Y-64144269D01*
X148383553Y-64144269D01*
X148389186Y-64145544D01*
X148394957Y-64145771D01*
X148394959Y-64145771D01*
X148456989Y-64148208D01*
X148600470Y-64153846D01*
X148606179Y-64153018D01*
X148606183Y-64153018D01*
X148804015Y-64124333D01*
X148804019Y-64124332D01*
X148809730Y-64123504D01*
X148883378Y-64098504D01*
X149004483Y-64057395D01*
X149004488Y-64057393D01*
X149009955Y-64055537D01*
X149014998Y-64052713D01*
X149189395Y-63955046D01*
X149189399Y-63955043D01*
X149194442Y-63952219D01*
X149357012Y-63817012D01*
X149492219Y-63654442D01*
X149588931Y-63481751D01*
X149639667Y-63432091D01*
X149709198Y-63417744D01*
X149775449Y-63443265D01*
X149815607Y-63495915D01*
X149861770Y-63609603D01*
X149866413Y-63618794D01*
X149977694Y-63800388D01*
X149983777Y-63808699D01*
X150123213Y-63969667D01*
X150130580Y-63976883D01*
X150294434Y-64112916D01*
X150302881Y-64118831D01*
X150486756Y-64226279D01*
X150496042Y-64230729D01*
X150695001Y-64306703D01*
X150704899Y-64309579D01*
X150808250Y-64330606D01*
X150822299Y-64329410D01*
X150826000Y-64319065D01*
X150826000Y-64318517D01*
X151334000Y-64318517D01*
X151338064Y-64332359D01*
X151351478Y-64334393D01*
X151358184Y-64333534D01*
X151368262Y-64331392D01*
X151572255Y-64270191D01*
X151581842Y-64266433D01*
X151773095Y-64172739D01*
X151781945Y-64167464D01*
X151955328Y-64043792D01*
X151963200Y-64037139D01*
X152114052Y-63886812D01*
X152120730Y-63878965D01*
X152245003Y-63706020D01*
X152250313Y-63697183D01*
X152344670Y-63506267D01*
X152348469Y-63496672D01*
X152410377Y-63292910D01*
X152412555Y-63282837D01*
X152413986Y-63271962D01*
X152411775Y-63257778D01*
X152398617Y-63254000D01*
X151352115Y-63254000D01*
X151336876Y-63258475D01*
X151335671Y-63259865D01*
X151334000Y-63267548D01*
X151334000Y-64318517D01*
X150826000Y-64318517D01*
X150826000Y-62727885D01*
X151334000Y-62727885D01*
X151338475Y-62743124D01*
X151339865Y-62744329D01*
X151347548Y-62746000D01*
X152398344Y-62746000D01*
X152411875Y-62742027D01*
X152413180Y-62732947D01*
X152371214Y-62565875D01*
X152367894Y-62556124D01*
X152282972Y-62360814D01*
X152278105Y-62351739D01*
X152162426Y-62172926D01*
X152156136Y-62164757D01*
X152012806Y-62007240D01*
X152005273Y-62000215D01*
X151838139Y-61868222D01*
X151829552Y-61862517D01*
X151643117Y-61759599D01*
X151633705Y-61755369D01*
X151432959Y-61684280D01*
X151422988Y-61681646D01*
X151351837Y-61668972D01*
X151338540Y-61670432D01*
X151334000Y-61684989D01*
X151334000Y-62727885D01*
X150826000Y-62727885D01*
X150826000Y-61683102D01*
X150822082Y-61669758D01*
X150807806Y-61667771D01*
X150769324Y-61673660D01*
X150759288Y-61676051D01*
X150556868Y-61742212D01*
X150547359Y-61746209D01*
X150358463Y-61844542D01*
X150349738Y-61850036D01*
X150179433Y-61977905D01*
X150171726Y-61984748D01*
X150024590Y-62138717D01*
X150018104Y-62146727D01*
X149898098Y-62322649D01*
X149893000Y-62331623D01*
X149810033Y-62510360D01*
X149763209Y-62563727D01*
X149694965Y-62583308D01*
X149626970Y-62562884D01*
X149582739Y-62513038D01*
X149527721Y-62401473D01*
X149527719Y-62401469D01*
X149525165Y-62396290D01*
X149398651Y-62226867D01*
X149271236Y-62109086D01*
X149247622Y-62087257D01*
X149247620Y-62087255D01*
X149243381Y-62083337D01*
X149111641Y-62000215D01*
X149069434Y-61973584D01*
X149069433Y-61973584D01*
X149064554Y-61970505D01*
X148868160Y-61892152D01*
X148862503Y-61891027D01*
X148862497Y-61891025D01*
X148666442Y-61852028D01*
X148666440Y-61852028D01*
X148660775Y-61850901D01*
X148655000Y-61850825D01*
X148654996Y-61850825D01*
X148548976Y-61849437D01*
X148449346Y-61848133D01*
X148443649Y-61849112D01*
X148443648Y-61849112D01*
X148246650Y-61882962D01*
X148246649Y-61882962D01*
X148240953Y-61883941D01*
X148042575Y-61957127D01*
X148037614Y-61960079D01*
X148037613Y-61960079D01*
X147865867Y-62062257D01*
X147860856Y-62065238D01*
X147701881Y-62204655D01*
X147570976Y-62370708D01*
X147568287Y-62375819D01*
X147568285Y-62375822D01*
X147518400Y-62470638D01*
X147472523Y-62557836D01*
X147409820Y-62759773D01*
X147409141Y-62765510D01*
X147395088Y-62884239D01*
X147367217Y-62949537D01*
X147308469Y-62989401D01*
X147237494Y-62991174D01*
X147176828Y-62954295D01*
X147145730Y-62890471D01*
X147144490Y-62880958D01*
X147142495Y-62859239D01*
X147136081Y-62789440D01*
X147123359Y-62744329D01*
X147118690Y-62727775D01*
X147078686Y-62585931D01*
X147069692Y-62567692D01*
X146987719Y-62401469D01*
X146985165Y-62396290D01*
X146858651Y-62226867D01*
X146731236Y-62109086D01*
X146707622Y-62087257D01*
X146707620Y-62087255D01*
X146703381Y-62083337D01*
X146571641Y-62000215D01*
X146529434Y-61973584D01*
X146529433Y-61973584D01*
X146524554Y-61970505D01*
X146328160Y-61892152D01*
X146322503Y-61891027D01*
X146322497Y-61891025D01*
X146126442Y-61852028D01*
X146126440Y-61852028D01*
X146120775Y-61850901D01*
X146115000Y-61850825D01*
X146114996Y-61850825D01*
X146008976Y-61849437D01*
X145909346Y-61848133D01*
X145903649Y-61849112D01*
X145903648Y-61849112D01*
X145706650Y-61882962D01*
X145706649Y-61882962D01*
X145700953Y-61883941D01*
X145502575Y-61957127D01*
X145497614Y-61960079D01*
X145497613Y-61960079D01*
X145325867Y-62062257D01*
X145320856Y-62065238D01*
X145161881Y-62204655D01*
X145030976Y-62370708D01*
X145028287Y-62375819D01*
X145028285Y-62375822D01*
X144978400Y-62470638D01*
X144932523Y-62557836D01*
X144869820Y-62759773D01*
X144869141Y-62765510D01*
X144855088Y-62884239D01*
X144827217Y-62949537D01*
X144768469Y-62989401D01*
X144697494Y-62991174D01*
X144636828Y-62954295D01*
X144605730Y-62890471D01*
X144604490Y-62880958D01*
X144602495Y-62859239D01*
X144596081Y-62789440D01*
X144583359Y-62744329D01*
X144578690Y-62727775D01*
X144538686Y-62585931D01*
X144529692Y-62567692D01*
X144447719Y-62401469D01*
X144445165Y-62396290D01*
X144318651Y-62226867D01*
X144191236Y-62109086D01*
X144167622Y-62087257D01*
X144167620Y-62087255D01*
X144163381Y-62083337D01*
X144031641Y-62000215D01*
X143989434Y-61973584D01*
X143989433Y-61973584D01*
X143984554Y-61970505D01*
X143788160Y-61892152D01*
X143782503Y-61891027D01*
X143782497Y-61891025D01*
X143586442Y-61852028D01*
X143586440Y-61852028D01*
X143580775Y-61850901D01*
X143575000Y-61850825D01*
X143574996Y-61850825D01*
X143468976Y-61849437D01*
X143369346Y-61848133D01*
X143363649Y-61849112D01*
X143363648Y-61849112D01*
X143166650Y-61882962D01*
X143166649Y-61882962D01*
X143160953Y-61883941D01*
X142962575Y-61957127D01*
X142957614Y-61960079D01*
X142957613Y-61960079D01*
X142785867Y-62062257D01*
X142780856Y-62065238D01*
X142621881Y-62204655D01*
X142490976Y-62370708D01*
X142488287Y-62375819D01*
X142488285Y-62375822D01*
X142438400Y-62470638D01*
X142392523Y-62557836D01*
X142329820Y-62759773D01*
X142329141Y-62765510D01*
X142315088Y-62884239D01*
X142287217Y-62949537D01*
X142228469Y-62989401D01*
X142157494Y-62991174D01*
X142096828Y-62954295D01*
X142065730Y-62890471D01*
X142064490Y-62880958D01*
X142062495Y-62859239D01*
X142056081Y-62789440D01*
X142043359Y-62744329D01*
X142038690Y-62727775D01*
X141998686Y-62585931D01*
X141989692Y-62567692D01*
X141907719Y-62401469D01*
X141905165Y-62396290D01*
X141778651Y-62226867D01*
X141651236Y-62109086D01*
X141627622Y-62087257D01*
X141627620Y-62087255D01*
X141623381Y-62083337D01*
X141491641Y-62000215D01*
X141449434Y-61973584D01*
X141449433Y-61973584D01*
X141444554Y-61970505D01*
X141248160Y-61892152D01*
X141242503Y-61891027D01*
X141242497Y-61891025D01*
X141046442Y-61852028D01*
X141046440Y-61852028D01*
X141040775Y-61850901D01*
X141035000Y-61850825D01*
X141034996Y-61850825D01*
X140928976Y-61849437D01*
X140829346Y-61848133D01*
X140823649Y-61849112D01*
X140823648Y-61849112D01*
X140626650Y-61882962D01*
X140626649Y-61882962D01*
X140620953Y-61883941D01*
X140422575Y-61957127D01*
X140417614Y-61960079D01*
X140417613Y-61960079D01*
X140245867Y-62062257D01*
X140240856Y-62065238D01*
X140081881Y-62204655D01*
X139950976Y-62370708D01*
X139948287Y-62375819D01*
X139948285Y-62375822D01*
X139874155Y-62516720D01*
X139824736Y-62567692D01*
X139755603Y-62583855D01*
X139688707Y-62560076D01*
X139647097Y-62508294D01*
X139582971Y-62360814D01*
X139578105Y-62351739D01*
X139462426Y-62172926D01*
X139456136Y-62164757D01*
X139312806Y-62007240D01*
X139305273Y-62000215D01*
X139138139Y-61868222D01*
X139129552Y-61862517D01*
X138943117Y-61759599D01*
X138933705Y-61755369D01*
X138732959Y-61684280D01*
X138722988Y-61681646D01*
X138651837Y-61668972D01*
X138638540Y-61670432D01*
X138634000Y-61684989D01*
X138634000Y-64318517D01*
X138126000Y-64318517D01*
X138126000Y-61683102D01*
X138122082Y-61669758D01*
X138107806Y-61667771D01*
X138069324Y-61673660D01*
X138059288Y-61676051D01*
X137856868Y-61742212D01*
X137847359Y-61746209D01*
X137658463Y-61844542D01*
X137649738Y-61850036D01*
X137479433Y-61977905D01*
X137471726Y-61984748D01*
X137324590Y-62138717D01*
X137318104Y-62146727D01*
X137198098Y-62322649D01*
X137193000Y-62331623D01*
X137110033Y-62510360D01*
X137063209Y-62563727D01*
X136994965Y-62583308D01*
X136926970Y-62562884D01*
X136882739Y-62513038D01*
X136827721Y-62401473D01*
X136827719Y-62401469D01*
X136825165Y-62396290D01*
X136698651Y-62226867D01*
X136571236Y-62109086D01*
X136547622Y-62087257D01*
X136547620Y-62087255D01*
X136543381Y-62083337D01*
X136411641Y-62000215D01*
X136369434Y-61973584D01*
X136369433Y-61973584D01*
X136364554Y-61970505D01*
X136168160Y-61892152D01*
X136162503Y-61891027D01*
X136162497Y-61891025D01*
X135966442Y-61852028D01*
X135966440Y-61852028D01*
X135960775Y-61850901D01*
X135955000Y-61850825D01*
X135954996Y-61850825D01*
X135848976Y-61849437D01*
X135749346Y-61848133D01*
X135743649Y-61849112D01*
X135743648Y-61849112D01*
X135546650Y-61882962D01*
X135546649Y-61882962D01*
X135540953Y-61883941D01*
X135342575Y-61957127D01*
X135337614Y-61960079D01*
X135337613Y-61960079D01*
X135165867Y-62062257D01*
X135160856Y-62065238D01*
X135001881Y-62204655D01*
X134870976Y-62370708D01*
X134868287Y-62375819D01*
X134868285Y-62375822D01*
X134818400Y-62470638D01*
X134772523Y-62557836D01*
X134709820Y-62759773D01*
X134709141Y-62765510D01*
X134695088Y-62884239D01*
X134667217Y-62949537D01*
X134608469Y-62989401D01*
X134537494Y-62991174D01*
X134476828Y-62954295D01*
X134445730Y-62890471D01*
X134444490Y-62880958D01*
X134442495Y-62859239D01*
X134436081Y-62789440D01*
X134423359Y-62744329D01*
X134418690Y-62727775D01*
X134378686Y-62585931D01*
X134369692Y-62567692D01*
X134287719Y-62401469D01*
X134285165Y-62396290D01*
X134158651Y-62226867D01*
X134031236Y-62109086D01*
X134007622Y-62087257D01*
X134007620Y-62087255D01*
X134003381Y-62083337D01*
X133871641Y-62000215D01*
X133829434Y-61973584D01*
X133829433Y-61973584D01*
X133824554Y-61970505D01*
X133628160Y-61892152D01*
X133622503Y-61891027D01*
X133622497Y-61891025D01*
X133426442Y-61852028D01*
X133426440Y-61852028D01*
X133420775Y-61850901D01*
X133415000Y-61850825D01*
X133414996Y-61850825D01*
X133308976Y-61849437D01*
X133209346Y-61848133D01*
X133203649Y-61849112D01*
X133203648Y-61849112D01*
X133006650Y-61882962D01*
X133006649Y-61882962D01*
X133000953Y-61883941D01*
X132802575Y-61957127D01*
X132797614Y-61960079D01*
X132797613Y-61960079D01*
X132625867Y-62062257D01*
X132620856Y-62065238D01*
X132461881Y-62204655D01*
X132330976Y-62370708D01*
X132328287Y-62375819D01*
X132328285Y-62375822D01*
X132278400Y-62470638D01*
X132232523Y-62557836D01*
X132169820Y-62759773D01*
X132169141Y-62765510D01*
X132161627Y-62828995D01*
X132133756Y-62894292D01*
X132075008Y-62934156D01*
X132004034Y-62935930D01*
X131943367Y-62899051D01*
X131912269Y-62835227D01*
X131910500Y-62814185D01*
X131910500Y-62105354D01*
X131907382Y-62079154D01*
X131901364Y-62065604D01*
X131866663Y-61987482D01*
X131861939Y-61976847D01*
X131853444Y-61968366D01*
X131790945Y-61905977D01*
X131782713Y-61897759D01*
X131772076Y-61893056D01*
X131772074Y-61893055D01*
X131702998Y-61862517D01*
X131680327Y-61852494D01*
X131654646Y-61849500D01*
X129865354Y-61849500D01*
X129861650Y-61849941D01*
X129861647Y-61849941D01*
X129854254Y-61850821D01*
X129839154Y-61852618D01*
X129830514Y-61856456D01*
X129830513Y-61856456D01*
X129764131Y-61885942D01*
X129736847Y-61898061D01*
X129657759Y-61977287D01*
X129653056Y-61987924D01*
X129653055Y-61987926D01*
X129631234Y-62037284D01*
X129612494Y-62079673D01*
X129609500Y-62105354D01*
X129609500Y-63894646D01*
X125338493Y-63894646D01*
X125352904Y-63850296D01*
X125415096Y-63658888D01*
X125426731Y-63623079D01*
X125485688Y-63314015D01*
X125505444Y-63000000D01*
X125485688Y-62685985D01*
X125426731Y-62376921D01*
X125351936Y-62146727D01*
X125330729Y-62081458D01*
X125330729Y-62081457D01*
X125329503Y-62077685D01*
X125318949Y-62055256D01*
X125197225Y-61796579D01*
X125197221Y-61796572D01*
X125195537Y-61792993D01*
X125026947Y-61527337D01*
X124872971Y-61341213D01*
X124828915Y-61287958D01*
X124828914Y-61287957D01*
X124826390Y-61284906D01*
X124597030Y-61069522D01*
X124580281Y-61057353D01*
X124345693Y-60886915D01*
X124345688Y-60886912D01*
X124342484Y-60884584D01*
X124066766Y-60733006D01*
X123907363Y-60669894D01*
X123777908Y-60618639D01*
X123777905Y-60618638D01*
X123774225Y-60617181D01*
X123770391Y-60616197D01*
X123770383Y-60616194D01*
X123506890Y-60548541D01*
X123445884Y-60512227D01*
X123414195Y-60448695D01*
X123421885Y-60378116D01*
X123466512Y-60322898D01*
X123538225Y-60300500D01*
X159976389Y-60300500D01*
X160044510Y-60320502D01*
G37*
%TD.AperFunction*%
%TA.AperFunction,Conductor*%
G36*
X165671621Y-62020502D02*
G01*
X165718114Y-62074158D01*
X165729500Y-62126500D01*
X165729500Y-63378785D01*
X165709498Y-63446906D01*
X165692595Y-63467880D01*
X159621358Y-69539118D01*
X159617549Y-69542771D01*
X159571844Y-69584799D01*
X159548901Y-69621802D01*
X159542200Y-69631552D01*
X159515888Y-69666217D01*
X159510354Y-69680195D01*
X159500293Y-69700199D01*
X159492365Y-69712986D01*
X159489968Y-69721237D01*
X159489967Y-69721239D01*
X159480225Y-69754772D01*
X159476380Y-69766002D01*
X159460364Y-69806453D01*
X159459466Y-69814994D01*
X159459466Y-69814995D01*
X159458792Y-69821408D01*
X159454480Y-69843383D01*
X159450285Y-69857825D01*
X159449500Y-69868515D01*
X159449500Y-69903217D01*
X159448810Y-69916387D01*
X159444599Y-69956454D01*
X159446031Y-69964919D01*
X159446031Y-69964928D01*
X159447735Y-69975000D01*
X159449500Y-69996013D01*
X159449500Y-72245022D01*
X159429498Y-72313143D01*
X159375842Y-72359636D01*
X159305568Y-72369740D01*
X159265260Y-72354896D01*
X159264590Y-72356211D01*
X159259436Y-72353585D01*
X159254554Y-72350505D01*
X159058160Y-72272152D01*
X159052503Y-72271027D01*
X159052497Y-72271025D01*
X158856442Y-72232028D01*
X158856440Y-72232028D01*
X158850775Y-72230901D01*
X158845000Y-72230825D01*
X158844996Y-72230825D01*
X158738976Y-72229437D01*
X158639346Y-72228133D01*
X158633649Y-72229112D01*
X158633648Y-72229112D01*
X158436650Y-72262962D01*
X158436649Y-72262962D01*
X158430953Y-72263941D01*
X158232575Y-72337127D01*
X158227614Y-72340079D01*
X158227613Y-72340079D01*
X158156547Y-72382359D01*
X158050856Y-72445238D01*
X157891881Y-72584655D01*
X157760976Y-72750708D01*
X157758287Y-72755819D01*
X157758285Y-72755822D01*
X157744792Y-72781469D01*
X157662523Y-72937836D01*
X157599820Y-73139773D01*
X157599141Y-73145510D01*
X157585088Y-73264239D01*
X157557217Y-73329537D01*
X157498469Y-73369401D01*
X157427494Y-73371174D01*
X157366828Y-73334295D01*
X157335730Y-73270471D01*
X157334490Y-73260958D01*
X157332956Y-73244257D01*
X157326081Y-73169440D01*
X157319954Y-73147713D01*
X157308528Y-73107201D01*
X157268686Y-72965931D01*
X157259692Y-72947692D01*
X157177719Y-72781469D01*
X157175165Y-72776290D01*
X157065223Y-72629059D01*
X157052104Y-72611491D01*
X157052103Y-72611490D01*
X157048651Y-72606867D01*
X156929500Y-72496725D01*
X156897622Y-72467257D01*
X156897620Y-72467255D01*
X156893381Y-72463337D01*
X156751154Y-72373598D01*
X156719434Y-72353584D01*
X156719433Y-72353584D01*
X156714554Y-72350505D01*
X156518160Y-72272152D01*
X156512503Y-72271027D01*
X156512497Y-72271025D01*
X156316442Y-72232028D01*
X156316440Y-72232028D01*
X156310775Y-72230901D01*
X156305000Y-72230825D01*
X156304996Y-72230825D01*
X156198976Y-72229437D01*
X156099346Y-72228133D01*
X156093649Y-72229112D01*
X156093648Y-72229112D01*
X155896650Y-72262962D01*
X155896649Y-72262962D01*
X155890953Y-72263941D01*
X155692575Y-72337127D01*
X155687614Y-72340079D01*
X155687613Y-72340079D01*
X155616547Y-72382359D01*
X155510856Y-72445238D01*
X155351881Y-72584655D01*
X155220976Y-72750708D01*
X155218287Y-72755819D01*
X155218285Y-72755822D01*
X155204792Y-72781469D01*
X155122523Y-72937836D01*
X155059820Y-73139773D01*
X155059141Y-73145510D01*
X155045088Y-73264239D01*
X155017217Y-73329537D01*
X154958469Y-73369401D01*
X154887494Y-73371174D01*
X154826828Y-73334295D01*
X154795730Y-73270471D01*
X154794490Y-73260958D01*
X154792956Y-73244257D01*
X154786081Y-73169440D01*
X154779954Y-73147713D01*
X154768528Y-73107201D01*
X154728686Y-72965931D01*
X154719692Y-72947692D01*
X154637719Y-72781469D01*
X154635165Y-72776290D01*
X154525223Y-72629059D01*
X154512104Y-72611491D01*
X154512103Y-72611490D01*
X154508651Y-72606867D01*
X154389500Y-72496725D01*
X154357622Y-72467257D01*
X154357620Y-72467255D01*
X154353381Y-72463337D01*
X154211154Y-72373598D01*
X154179434Y-72353584D01*
X154179433Y-72353584D01*
X154174554Y-72350505D01*
X153978160Y-72272152D01*
X153972503Y-72271027D01*
X153972497Y-72271025D01*
X153776442Y-72232028D01*
X153776440Y-72232028D01*
X153770775Y-72230901D01*
X153765000Y-72230825D01*
X153764996Y-72230825D01*
X153658976Y-72229437D01*
X153559346Y-72228133D01*
X153553649Y-72229112D01*
X153553648Y-72229112D01*
X153356650Y-72262962D01*
X153356649Y-72262962D01*
X153350953Y-72263941D01*
X153152575Y-72337127D01*
X153147614Y-72340079D01*
X153147613Y-72340079D01*
X153076547Y-72382359D01*
X152970856Y-72445238D01*
X152811881Y-72584655D01*
X152680976Y-72750708D01*
X152678287Y-72755819D01*
X152678285Y-72755822D01*
X152664792Y-72781469D01*
X152582523Y-72937836D01*
X152519820Y-73139773D01*
X152519141Y-73145510D01*
X152505088Y-73264239D01*
X152477217Y-73329537D01*
X152418469Y-73369401D01*
X152347494Y-73371174D01*
X152286828Y-73334295D01*
X152255730Y-73270471D01*
X152254490Y-73260958D01*
X152252956Y-73244257D01*
X152246081Y-73169440D01*
X152239954Y-73147713D01*
X152228528Y-73107201D01*
X152188686Y-72965931D01*
X152179692Y-72947692D01*
X152097719Y-72781469D01*
X152095165Y-72776290D01*
X151985223Y-72629059D01*
X151972104Y-72611491D01*
X151972103Y-72611490D01*
X151968651Y-72606867D01*
X151849500Y-72496725D01*
X151817622Y-72467257D01*
X151817620Y-72467255D01*
X151813381Y-72463337D01*
X151671154Y-72373598D01*
X151639434Y-72353584D01*
X151639433Y-72353584D01*
X151634554Y-72350505D01*
X151438160Y-72272152D01*
X151432503Y-72271027D01*
X151432497Y-72271025D01*
X151236442Y-72232028D01*
X151236440Y-72232028D01*
X151230775Y-72230901D01*
X151225000Y-72230825D01*
X151224996Y-72230825D01*
X151118976Y-72229437D01*
X151019346Y-72228133D01*
X151013649Y-72229112D01*
X151013648Y-72229112D01*
X150816650Y-72262962D01*
X150816649Y-72262962D01*
X150810953Y-72263941D01*
X150612575Y-72337127D01*
X150607614Y-72340079D01*
X150607613Y-72340079D01*
X150536547Y-72382359D01*
X150430856Y-72445238D01*
X150271881Y-72584655D01*
X150140976Y-72750708D01*
X150138287Y-72755819D01*
X150138285Y-72755822D01*
X150124792Y-72781469D01*
X150042523Y-72937836D01*
X149979820Y-73139773D01*
X149979141Y-73145510D01*
X149965088Y-73264239D01*
X149937217Y-73329537D01*
X149878469Y-73369401D01*
X149807494Y-73371174D01*
X149746828Y-73334295D01*
X149715730Y-73270471D01*
X149714490Y-73260958D01*
X149712956Y-73244257D01*
X149706081Y-73169440D01*
X149699954Y-73147713D01*
X149688528Y-73107201D01*
X149648686Y-72965931D01*
X149639692Y-72947692D01*
X149557719Y-72781469D01*
X149555165Y-72776290D01*
X149445223Y-72629059D01*
X149432104Y-72611491D01*
X149432103Y-72611490D01*
X149428651Y-72606867D01*
X149309500Y-72496725D01*
X149277622Y-72467257D01*
X149277620Y-72467255D01*
X149273381Y-72463337D01*
X149131154Y-72373598D01*
X149099434Y-72353584D01*
X149099433Y-72353584D01*
X149094554Y-72350505D01*
X148898160Y-72272152D01*
X148892503Y-72271027D01*
X148892497Y-72271025D01*
X148696442Y-72232028D01*
X148696440Y-72232028D01*
X148690775Y-72230901D01*
X148685000Y-72230825D01*
X148684996Y-72230825D01*
X148578976Y-72229437D01*
X148479346Y-72228133D01*
X148473649Y-72229112D01*
X148473648Y-72229112D01*
X148276650Y-72262962D01*
X148276649Y-72262962D01*
X148270953Y-72263941D01*
X148072575Y-72337127D01*
X148067614Y-72340079D01*
X148067613Y-72340079D01*
X147996547Y-72382359D01*
X147890856Y-72445238D01*
X147731881Y-72584655D01*
X147600976Y-72750708D01*
X147598287Y-72755819D01*
X147598285Y-72755822D01*
X147584792Y-72781469D01*
X147502523Y-72937836D01*
X147439820Y-73139773D01*
X147439141Y-73145510D01*
X147425088Y-73264239D01*
X147397217Y-73329537D01*
X147338469Y-73369401D01*
X147267494Y-73371174D01*
X147206828Y-73334295D01*
X147175730Y-73270471D01*
X147174490Y-73260958D01*
X147172956Y-73244257D01*
X147166081Y-73169440D01*
X147159954Y-73147713D01*
X147148528Y-73107201D01*
X147108686Y-72965931D01*
X147099692Y-72947692D01*
X147017719Y-72781469D01*
X147015165Y-72776290D01*
X146905223Y-72629059D01*
X146892104Y-72611491D01*
X146892103Y-72611490D01*
X146888651Y-72606867D01*
X146769500Y-72496725D01*
X146737622Y-72467257D01*
X146737620Y-72467255D01*
X146733381Y-72463337D01*
X146591154Y-72373598D01*
X146559434Y-72353584D01*
X146559433Y-72353584D01*
X146554554Y-72350505D01*
X146358160Y-72272152D01*
X146352503Y-72271027D01*
X146352497Y-72271025D01*
X146156442Y-72232028D01*
X146156440Y-72232028D01*
X146150775Y-72230901D01*
X146145000Y-72230825D01*
X146144996Y-72230825D01*
X146038976Y-72229437D01*
X145939346Y-72228133D01*
X145933649Y-72229112D01*
X145933648Y-72229112D01*
X145736650Y-72262962D01*
X145736649Y-72262962D01*
X145730953Y-72263941D01*
X145532575Y-72337127D01*
X145527614Y-72340079D01*
X145527613Y-72340079D01*
X145456547Y-72382359D01*
X145350856Y-72445238D01*
X145191881Y-72584655D01*
X145060976Y-72750708D01*
X145058287Y-72755819D01*
X145058285Y-72755822D01*
X145044792Y-72781469D01*
X144962523Y-72937836D01*
X144899820Y-73139773D01*
X144899141Y-73145510D01*
X144885088Y-73264239D01*
X144857217Y-73329537D01*
X144798469Y-73369401D01*
X144727494Y-73371174D01*
X144666828Y-73334295D01*
X144635730Y-73270471D01*
X144634490Y-73260958D01*
X144632956Y-73244257D01*
X144626081Y-73169440D01*
X144619954Y-73147713D01*
X144608528Y-73107201D01*
X144568686Y-72965931D01*
X144559692Y-72947692D01*
X144477719Y-72781469D01*
X144475165Y-72776290D01*
X144365223Y-72629059D01*
X144352104Y-72611491D01*
X144352103Y-72611490D01*
X144348651Y-72606867D01*
X144229500Y-72496725D01*
X144197622Y-72467257D01*
X144197620Y-72467255D01*
X144193381Y-72463337D01*
X144051154Y-72373598D01*
X144019434Y-72353584D01*
X144019433Y-72353584D01*
X144014554Y-72350505D01*
X143818160Y-72272152D01*
X143812503Y-72271027D01*
X143812497Y-72271025D01*
X143616442Y-72232028D01*
X143616440Y-72232028D01*
X143610775Y-72230901D01*
X143605000Y-72230825D01*
X143604996Y-72230825D01*
X143498976Y-72229437D01*
X143399346Y-72228133D01*
X143393649Y-72229112D01*
X143393648Y-72229112D01*
X143196650Y-72262962D01*
X143196649Y-72262962D01*
X143190953Y-72263941D01*
X142992575Y-72337127D01*
X142987614Y-72340079D01*
X142987613Y-72340079D01*
X142916547Y-72382359D01*
X142810856Y-72445238D01*
X142651881Y-72584655D01*
X142520976Y-72750708D01*
X142518287Y-72755819D01*
X142518285Y-72755822D01*
X142504792Y-72781469D01*
X142422523Y-72937836D01*
X142359820Y-73139773D01*
X142359141Y-73145510D01*
X142345088Y-73264239D01*
X142317217Y-73329537D01*
X142258469Y-73369401D01*
X142187494Y-73371174D01*
X142126828Y-73334295D01*
X142095730Y-73270471D01*
X142094490Y-73260958D01*
X142092956Y-73244257D01*
X142086081Y-73169440D01*
X142079954Y-73147713D01*
X142068528Y-73107201D01*
X142028686Y-72965931D01*
X142019692Y-72947692D01*
X141937719Y-72781469D01*
X141935165Y-72776290D01*
X141825223Y-72629059D01*
X141812104Y-72611491D01*
X141812103Y-72611490D01*
X141808651Y-72606867D01*
X141689500Y-72496725D01*
X141657622Y-72467257D01*
X141657620Y-72467255D01*
X141653381Y-72463337D01*
X141511154Y-72373598D01*
X141479434Y-72353584D01*
X141479433Y-72353584D01*
X141474554Y-72350505D01*
X141278160Y-72272152D01*
X141272503Y-72271027D01*
X141272497Y-72271025D01*
X141076442Y-72232028D01*
X141076440Y-72232028D01*
X141070775Y-72230901D01*
X141065000Y-72230825D01*
X141064996Y-72230825D01*
X140958976Y-72229437D01*
X140859346Y-72228133D01*
X140853649Y-72229112D01*
X140853648Y-72229112D01*
X140656650Y-72262962D01*
X140656649Y-72262962D01*
X140650953Y-72263941D01*
X140452575Y-72337127D01*
X140447614Y-72340079D01*
X140447613Y-72340079D01*
X140376547Y-72382359D01*
X140270856Y-72445238D01*
X140111881Y-72584655D01*
X139980976Y-72750708D01*
X139978287Y-72755819D01*
X139978285Y-72755822D01*
X139904155Y-72896720D01*
X139854736Y-72947692D01*
X139785603Y-72963855D01*
X139718707Y-72940076D01*
X139677097Y-72888294D01*
X139612971Y-72740814D01*
X139608105Y-72731739D01*
X139543063Y-72631197D01*
X139532377Y-72621995D01*
X139522812Y-72626398D01*
X138782022Y-73367188D01*
X138774408Y-73381132D01*
X138774539Y-73382965D01*
X138778790Y-73389580D01*
X139520474Y-74131264D01*
X139532484Y-74137823D01*
X139544223Y-74128855D01*
X139575004Y-74086019D01*
X139580315Y-74077180D01*
X139674670Y-73886267D01*
X139678019Y-73877809D01*
X139721693Y-73821836D01*
X139788696Y-73798359D01*
X139857755Y-73814835D01*
X139909597Y-73871442D01*
X139923455Y-73901503D01*
X139949369Y-73957714D01*
X140071405Y-74130391D01*
X140139793Y-74197012D01*
X140215727Y-74270983D01*
X140222865Y-74277937D01*
X140227661Y-74281142D01*
X140227664Y-74281144D01*
X140356640Y-74367323D01*
X140398677Y-74395411D01*
X140403985Y-74397692D01*
X140403986Y-74397692D01*
X140587650Y-74476600D01*
X140587653Y-74476601D01*
X140592953Y-74478878D01*
X140598582Y-74480152D01*
X140598583Y-74480152D01*
X140793550Y-74524269D01*
X140793553Y-74524269D01*
X140799186Y-74525544D01*
X140804957Y-74525771D01*
X140804959Y-74525771D01*
X140866989Y-74528208D01*
X141010470Y-74533846D01*
X141016179Y-74533018D01*
X141016183Y-74533018D01*
X141214015Y-74504333D01*
X141214019Y-74504332D01*
X141219730Y-74503504D01*
X141306579Y-74474023D01*
X141414483Y-74437395D01*
X141414488Y-74437393D01*
X141419955Y-74435537D01*
X141424998Y-74432713D01*
X141599395Y-74335046D01*
X141599399Y-74335043D01*
X141604442Y-74332219D01*
X141767012Y-74197012D01*
X141902219Y-74034442D01*
X141905043Y-74029399D01*
X141905046Y-74029395D01*
X142002713Y-73854998D01*
X142002714Y-73854996D01*
X142005537Y-73849955D01*
X142007393Y-73844488D01*
X142007395Y-73844483D01*
X142071647Y-73655200D01*
X142073504Y-73649730D01*
X142078481Y-73615408D01*
X142095090Y-73500860D01*
X142124660Y-73436315D01*
X142184432Y-73398003D01*
X142255429Y-73398087D01*
X142315109Y-73436542D01*
X142344525Y-73501158D01*
X142345515Y-73510695D01*
X142348796Y-73560749D01*
X142350217Y-73566345D01*
X142350218Y-73566350D01*
X142372784Y-73655200D01*
X142400845Y-73765690D01*
X142489369Y-73957714D01*
X142611405Y-74130391D01*
X142679793Y-74197012D01*
X142755727Y-74270983D01*
X142762865Y-74277937D01*
X142767661Y-74281142D01*
X142767664Y-74281144D01*
X142896640Y-74367323D01*
X142938677Y-74395411D01*
X142943985Y-74397692D01*
X142943986Y-74397692D01*
X143127650Y-74476600D01*
X143127653Y-74476601D01*
X143132953Y-74478878D01*
X143138582Y-74480152D01*
X143138583Y-74480152D01*
X143333550Y-74524269D01*
X143333553Y-74524269D01*
X143339186Y-74525544D01*
X143344957Y-74525771D01*
X143344959Y-74525771D01*
X143406989Y-74528208D01*
X143550470Y-74533846D01*
X143556179Y-74533018D01*
X143556183Y-74533018D01*
X143754015Y-74504333D01*
X143754019Y-74504332D01*
X143759730Y-74503504D01*
X143846579Y-74474023D01*
X143954483Y-74437395D01*
X143954488Y-74437393D01*
X143959955Y-74435537D01*
X143964998Y-74432713D01*
X144139395Y-74335046D01*
X144139399Y-74335043D01*
X144144442Y-74332219D01*
X144307012Y-74197012D01*
X144442219Y-74034442D01*
X144445043Y-74029399D01*
X144445046Y-74029395D01*
X144542713Y-73854998D01*
X144542714Y-73854996D01*
X144545537Y-73849955D01*
X144547393Y-73844488D01*
X144547395Y-73844483D01*
X144611647Y-73655200D01*
X144613504Y-73649730D01*
X144618481Y-73615408D01*
X144635090Y-73500860D01*
X144664660Y-73436315D01*
X144724432Y-73398003D01*
X144795429Y-73398087D01*
X144855109Y-73436542D01*
X144884525Y-73501158D01*
X144885515Y-73510695D01*
X144888796Y-73560749D01*
X144890217Y-73566345D01*
X144890218Y-73566350D01*
X144912784Y-73655200D01*
X144940845Y-73765690D01*
X145029369Y-73957714D01*
X145151405Y-74130391D01*
X145219793Y-74197012D01*
X145295727Y-74270983D01*
X145302865Y-74277937D01*
X145307661Y-74281142D01*
X145307664Y-74281144D01*
X145436640Y-74367323D01*
X145478677Y-74395411D01*
X145483985Y-74397692D01*
X145483986Y-74397692D01*
X145667650Y-74476600D01*
X145667653Y-74476601D01*
X145672953Y-74478878D01*
X145678582Y-74480152D01*
X145678583Y-74480152D01*
X145873550Y-74524269D01*
X145873553Y-74524269D01*
X145879186Y-74525544D01*
X145884957Y-74525771D01*
X145884959Y-74525771D01*
X145946989Y-74528208D01*
X146090470Y-74533846D01*
X146096179Y-74533018D01*
X146096183Y-74533018D01*
X146294015Y-74504333D01*
X146294019Y-74504332D01*
X146299730Y-74503504D01*
X146386579Y-74474023D01*
X146494483Y-74437395D01*
X146494488Y-74437393D01*
X146499955Y-74435537D01*
X146504998Y-74432713D01*
X146679395Y-74335046D01*
X146679399Y-74335043D01*
X146684442Y-74332219D01*
X146847012Y-74197012D01*
X146982219Y-74034442D01*
X146985043Y-74029399D01*
X146985046Y-74029395D01*
X147082713Y-73854998D01*
X147082714Y-73854996D01*
X147085537Y-73849955D01*
X147087393Y-73844488D01*
X147087395Y-73844483D01*
X147151647Y-73655200D01*
X147153504Y-73649730D01*
X147158481Y-73615408D01*
X147175090Y-73500860D01*
X147204660Y-73436315D01*
X147264432Y-73398003D01*
X147335429Y-73398087D01*
X147395109Y-73436542D01*
X147424525Y-73501158D01*
X147425515Y-73510695D01*
X147428796Y-73560749D01*
X147430217Y-73566345D01*
X147430218Y-73566350D01*
X147452784Y-73655200D01*
X147480845Y-73765690D01*
X147569369Y-73957714D01*
X147691405Y-74130391D01*
X147759793Y-74197012D01*
X147835727Y-74270983D01*
X147842865Y-74277937D01*
X147847661Y-74281142D01*
X147847664Y-74281144D01*
X147976640Y-74367323D01*
X148018677Y-74395411D01*
X148023985Y-74397692D01*
X148023986Y-74397692D01*
X148207650Y-74476600D01*
X148207653Y-74476601D01*
X148212953Y-74478878D01*
X148218582Y-74480152D01*
X148218583Y-74480152D01*
X148413550Y-74524269D01*
X148413553Y-74524269D01*
X148419186Y-74525544D01*
X148424957Y-74525771D01*
X148424959Y-74525771D01*
X148486989Y-74528208D01*
X148630470Y-74533846D01*
X148636179Y-74533018D01*
X148636183Y-74533018D01*
X148834015Y-74504333D01*
X148834019Y-74504332D01*
X148839730Y-74503504D01*
X148926579Y-74474023D01*
X149034483Y-74437395D01*
X149034488Y-74437393D01*
X149039955Y-74435537D01*
X149044998Y-74432713D01*
X149219395Y-74335046D01*
X149219399Y-74335043D01*
X149224442Y-74332219D01*
X149387012Y-74197012D01*
X149522219Y-74034442D01*
X149525043Y-74029399D01*
X149525046Y-74029395D01*
X149622713Y-73854998D01*
X149622714Y-73854996D01*
X149625537Y-73849955D01*
X149627393Y-73844488D01*
X149627395Y-73844483D01*
X149691647Y-73655200D01*
X149693504Y-73649730D01*
X149698481Y-73615408D01*
X149715090Y-73500860D01*
X149744660Y-73436315D01*
X149804432Y-73398003D01*
X149875429Y-73398087D01*
X149935109Y-73436542D01*
X149964525Y-73501158D01*
X149965515Y-73510695D01*
X149968796Y-73560749D01*
X149970217Y-73566345D01*
X149970218Y-73566350D01*
X149992784Y-73655200D01*
X150020845Y-73765690D01*
X150109369Y-73957714D01*
X150231405Y-74130391D01*
X150299793Y-74197012D01*
X150375727Y-74270983D01*
X150382865Y-74277937D01*
X150387661Y-74281142D01*
X150387664Y-74281144D01*
X150516640Y-74367323D01*
X150558677Y-74395411D01*
X150563985Y-74397692D01*
X150563986Y-74397692D01*
X150747650Y-74476600D01*
X150747653Y-74476601D01*
X150752953Y-74478878D01*
X150758582Y-74480152D01*
X150758583Y-74480152D01*
X150953550Y-74524269D01*
X150953553Y-74524269D01*
X150959186Y-74525544D01*
X150964957Y-74525771D01*
X150964959Y-74525771D01*
X151026989Y-74528208D01*
X151170470Y-74533846D01*
X151176179Y-74533018D01*
X151176183Y-74533018D01*
X151374015Y-74504333D01*
X151374019Y-74504332D01*
X151379730Y-74503504D01*
X151466579Y-74474023D01*
X151574483Y-74437395D01*
X151574488Y-74437393D01*
X151579955Y-74435537D01*
X151584998Y-74432713D01*
X151759395Y-74335046D01*
X151759399Y-74335043D01*
X151764442Y-74332219D01*
X151927012Y-74197012D01*
X152062219Y-74034442D01*
X152065043Y-74029399D01*
X152065046Y-74029395D01*
X152162713Y-73854998D01*
X152162714Y-73854996D01*
X152165537Y-73849955D01*
X152167393Y-73844488D01*
X152167395Y-73844483D01*
X152231647Y-73655200D01*
X152233504Y-73649730D01*
X152238481Y-73615408D01*
X152255090Y-73500860D01*
X152284660Y-73436315D01*
X152344432Y-73398003D01*
X152415429Y-73398087D01*
X152475109Y-73436542D01*
X152504525Y-73501158D01*
X152505515Y-73510695D01*
X152508796Y-73560749D01*
X152510217Y-73566345D01*
X152510218Y-73566350D01*
X152532784Y-73655200D01*
X152560845Y-73765690D01*
X152649369Y-73957714D01*
X152771405Y-74130391D01*
X152839793Y-74197012D01*
X152915727Y-74270983D01*
X152922865Y-74277937D01*
X152927661Y-74281142D01*
X152927664Y-74281144D01*
X153056640Y-74367323D01*
X153098677Y-74395411D01*
X153103985Y-74397692D01*
X153103986Y-74397692D01*
X153287650Y-74476600D01*
X153287653Y-74476601D01*
X153292953Y-74478878D01*
X153298582Y-74480152D01*
X153298583Y-74480152D01*
X153493550Y-74524269D01*
X153493553Y-74524269D01*
X153499186Y-74525544D01*
X153504957Y-74525771D01*
X153504959Y-74525771D01*
X153566989Y-74528208D01*
X153710470Y-74533846D01*
X153716179Y-74533018D01*
X153716183Y-74533018D01*
X153914015Y-74504333D01*
X153914019Y-74504332D01*
X153919730Y-74503504D01*
X154006579Y-74474023D01*
X154114483Y-74437395D01*
X154114488Y-74437393D01*
X154119955Y-74435537D01*
X154124998Y-74432713D01*
X154299395Y-74335046D01*
X154299399Y-74335043D01*
X154304442Y-74332219D01*
X154467012Y-74197012D01*
X154602219Y-74034442D01*
X154605043Y-74029399D01*
X154605046Y-74029395D01*
X154702713Y-73854998D01*
X154702714Y-73854996D01*
X154705537Y-73849955D01*
X154707393Y-73844488D01*
X154707395Y-73844483D01*
X154771647Y-73655200D01*
X154773504Y-73649730D01*
X154778481Y-73615408D01*
X154795090Y-73500860D01*
X154824660Y-73436315D01*
X154884432Y-73398003D01*
X154955429Y-73398087D01*
X155015109Y-73436542D01*
X155044525Y-73501158D01*
X155045515Y-73510695D01*
X155048796Y-73560749D01*
X155050217Y-73566345D01*
X155050218Y-73566350D01*
X155072784Y-73655200D01*
X155100845Y-73765690D01*
X155189369Y-73957714D01*
X155311405Y-74130391D01*
X155379793Y-74197012D01*
X155455727Y-74270983D01*
X155462865Y-74277937D01*
X155467661Y-74281142D01*
X155467664Y-74281144D01*
X155596640Y-74367323D01*
X155638677Y-74395411D01*
X155643985Y-74397692D01*
X155643986Y-74397692D01*
X155827650Y-74476600D01*
X155827653Y-74476601D01*
X155832953Y-74478878D01*
X155838582Y-74480152D01*
X155838583Y-74480152D01*
X156033550Y-74524269D01*
X156033553Y-74524269D01*
X156039186Y-74525544D01*
X156044957Y-74525771D01*
X156044959Y-74525771D01*
X156106989Y-74528208D01*
X156250470Y-74533846D01*
X156256179Y-74533018D01*
X156256183Y-74533018D01*
X156454015Y-74504333D01*
X156454019Y-74504332D01*
X156459730Y-74503504D01*
X156546579Y-74474023D01*
X156654483Y-74437395D01*
X156654488Y-74437393D01*
X156659955Y-74435537D01*
X156664998Y-74432713D01*
X156839395Y-74335046D01*
X156839399Y-74335043D01*
X156844442Y-74332219D01*
X157007012Y-74197012D01*
X157142219Y-74034442D01*
X157145043Y-74029399D01*
X157145046Y-74029395D01*
X157242713Y-73854998D01*
X157242714Y-73854996D01*
X157245537Y-73849955D01*
X157247393Y-73844488D01*
X157247395Y-73844483D01*
X157311647Y-73655200D01*
X157313504Y-73649730D01*
X157318481Y-73615408D01*
X157335090Y-73500860D01*
X157364660Y-73436315D01*
X157424432Y-73398003D01*
X157495429Y-73398087D01*
X157555109Y-73436542D01*
X157584525Y-73501158D01*
X157585515Y-73510695D01*
X157588796Y-73560749D01*
X157590217Y-73566345D01*
X157590218Y-73566350D01*
X157612784Y-73655200D01*
X157640845Y-73765690D01*
X157703456Y-73901505D01*
X157713811Y-73971740D01*
X157684549Y-74036426D01*
X157678126Y-74043349D01*
X156870881Y-74850595D01*
X156808568Y-74884620D01*
X156781785Y-74887500D01*
X138963365Y-74887500D01*
X138895244Y-74867498D01*
X138848751Y-74813842D01*
X138838647Y-74743568D01*
X138868141Y-74678988D01*
X138907932Y-74648349D01*
X139103098Y-74552738D01*
X139111944Y-74547465D01*
X139159247Y-74513723D01*
X139167648Y-74503023D01*
X139160660Y-74489870D01*
X138422812Y-73752022D01*
X138408868Y-73744408D01*
X138407035Y-73744539D01*
X138400420Y-73748790D01*
X137656737Y-74492473D01*
X137649977Y-74504853D01*
X137655258Y-74511907D01*
X137816756Y-74606279D01*
X137826042Y-74610729D01*
X137912622Y-74643790D01*
X137969125Y-74686777D01*
X137993418Y-74753488D01*
X137977788Y-74822743D01*
X137927197Y-74872554D01*
X137867673Y-74887500D01*
X136401062Y-74887500D01*
X136332941Y-74867498D01*
X136286448Y-74813842D01*
X136276344Y-74743568D01*
X136305838Y-74678988D01*
X136347812Y-74647305D01*
X136542843Y-74556361D01*
X136542848Y-74556358D01*
X136547830Y-74554035D01*
X136576987Y-74533619D01*
X136736890Y-74421654D01*
X136736893Y-74421652D01*
X136741401Y-74418495D01*
X136908495Y-74251401D01*
X137034358Y-74071649D01*
X137089814Y-74027322D01*
X137160433Y-74020013D01*
X137223794Y-74052043D01*
X137245003Y-74078086D01*
X137276460Y-74129420D01*
X137286916Y-74138880D01*
X137295694Y-74135096D01*
X138037978Y-73392812D01*
X138045592Y-73378868D01*
X138045461Y-73377035D01*
X138041210Y-73370420D01*
X137299849Y-72629059D01*
X137288313Y-72622759D01*
X137276030Y-72632383D01*
X137240167Y-72684955D01*
X137185256Y-72729957D01*
X137114731Y-72738128D01*
X137050984Y-72706874D01*
X137032870Y-72686225D01*
X137023286Y-72672538D01*
X137000500Y-72600270D01*
X137000500Y-72256427D01*
X137651223Y-72256427D01*
X137657968Y-72268758D01*
X138397188Y-73007978D01*
X138411132Y-73015592D01*
X138412965Y-73015461D01*
X138419580Y-73011210D01*
X139163389Y-72267401D01*
X139170410Y-72254544D01*
X139163611Y-72245213D01*
X139159554Y-72242518D01*
X138973117Y-72139599D01*
X138963705Y-72135369D01*
X138762959Y-72064280D01*
X138752989Y-72061646D01*
X138543327Y-72024301D01*
X138533073Y-72023331D01*
X138320116Y-72020728D01*
X138309832Y-72021448D01*
X138099321Y-72053661D01*
X138089293Y-72056050D01*
X137886868Y-72122212D01*
X137877359Y-72126209D01*
X137688466Y-72224540D01*
X137679734Y-72230039D01*
X137659677Y-72245099D01*
X137651223Y-72256427D01*
X137000500Y-72256427D01*
X137000500Y-67966611D01*
X137020502Y-67898490D01*
X137037405Y-67877516D01*
X137877516Y-67037405D01*
X137939828Y-67003379D01*
X137966611Y-67000500D01*
X155979830Y-67000500D01*
X155983349Y-67000549D01*
X156063271Y-67002782D01*
X156063274Y-67002782D01*
X156069653Y-67002960D01*
X156075938Y-67001852D01*
X156075948Y-67001851D01*
X156129066Y-66992484D01*
X156138208Y-66991215D01*
X156198216Y-66985120D01*
X156225693Y-66976509D01*
X156241479Y-66972662D01*
X156245741Y-66971910D01*
X156263535Y-66968773D01*
X156263541Y-66968771D01*
X156269821Y-66967664D01*
X156325898Y-66945462D01*
X156334601Y-66942380D01*
X156386085Y-66926246D01*
X156386089Y-66926244D01*
X156392172Y-66924338D01*
X156417342Y-66910385D01*
X156432049Y-66903433D01*
X156441579Y-66899660D01*
X156458805Y-66892840D01*
X156509277Y-66859812D01*
X156517181Y-66855044D01*
X156564363Y-66828891D01*
X156564366Y-66828889D01*
X156569944Y-66825797D01*
X156591797Y-66807067D01*
X156604800Y-66797304D01*
X156628882Y-66781545D01*
X156632475Y-66778310D01*
X156632479Y-66778307D01*
X156632604Y-66778194D01*
X156633838Y-66777083D01*
X156672750Y-66738171D01*
X156679848Y-66731598D01*
X156684280Y-66727799D01*
X156724271Y-66693523D01*
X156743182Y-66669143D01*
X156753647Y-66657274D01*
X159034967Y-64375954D01*
X161373515Y-62037405D01*
X161435827Y-62003379D01*
X161462610Y-62000500D01*
X165603500Y-62000500D01*
X165671621Y-62020502D01*
G37*
%TD.AperFunction*%
%TD*%
M02*
