%TF.GenerationSoftware,KiCad,Pcbnew,(6.0.7)*%
%TF.CreationDate,2023-08-27T18:36:20+02:00*%
%TF.ProjectId,libcsp-zephyr-hw,6c696263-7370-42d7-9a65-706879722d68,rev?*%
%TF.SameCoordinates,Original*%
%TF.FileFunction,Soldermask,Bot*%
%TF.FilePolarity,Negative*%
%FSLAX46Y46*%
G04 Gerber Fmt 4.6, Leading zero omitted, Abs format (unit mm)*
G04 Created by KiCad (PCBNEW (6.0.7)) date 2023-08-27 18:36:20*
%MOMM*%
%LPD*%
G01*
G04 APERTURE LIST*
%ADD10R,1.700000X1.700000*%
%ADD11O,1.700000X1.700000*%
%ADD12C,4.400000*%
%ADD13C,0.700000*%
%ADD14C,1.700000*%
G04 APERTURE END LIST*
D10*
%TO.C,J4*%
X166880000Y-62975000D03*
D11*
X169420000Y-62975000D03*
X171960000Y-62975000D03*
X174500000Y-62975000D03*
X177040000Y-62975000D03*
X179580000Y-62975000D03*
%TD*%
D12*
%TO.C,H4*%
X187000000Y-99000000D03*
D13*
X185833274Y-97833274D03*
X188166726Y-100166726D03*
X187000000Y-97350000D03*
X188166726Y-97833274D03*
X188650000Y-99000000D03*
X185833274Y-100166726D03*
X185350000Y-99000000D03*
X187000000Y-100650000D03*
%TD*%
D10*
%TO.C,J2*%
X179525000Y-94850000D03*
D11*
X179525000Y-97390000D03*
X176985000Y-94850000D03*
X176985000Y-97390000D03*
X174445000Y-94850000D03*
X174445000Y-97390000D03*
%TD*%
D13*
%TO.C,H2*%
X124650000Y-99000000D03*
X124166726Y-100166726D03*
X123000000Y-97350000D03*
X121833274Y-97833274D03*
D12*
X123000000Y-99000000D03*
D13*
X124166726Y-97833274D03*
X121833274Y-100166726D03*
X123000000Y-100650000D03*
X121350000Y-99000000D03*
%TD*%
D10*
%TO.C,J1*%
X130760000Y-63000000D03*
D11*
X133300000Y-63000000D03*
X135840000Y-63000000D03*
X138380000Y-63000000D03*
X140920000Y-63000000D03*
X143460000Y-63000000D03*
X146000000Y-63000000D03*
X148540000Y-63000000D03*
X151080000Y-63000000D03*
%TD*%
D13*
%TO.C,H1*%
X124166726Y-64166726D03*
X124166726Y-61833274D03*
X123000000Y-61350000D03*
D12*
X123000000Y-63000000D03*
D13*
X121833274Y-64166726D03*
X121833274Y-61833274D03*
X121350000Y-63000000D03*
X123000000Y-64650000D03*
X124650000Y-63000000D03*
%TD*%
D10*
%TO.C,U1*%
X184130000Y-73380000D03*
D14*
X181590000Y-73380000D03*
X179050000Y-73380000D03*
X176510000Y-73380000D03*
X173970000Y-73380000D03*
X171430000Y-73380000D03*
X168890000Y-73380000D03*
X166350000Y-73380000D03*
X163810000Y-73380000D03*
X161270000Y-73380000D03*
X158730000Y-73380000D03*
X156190000Y-73380000D03*
X153650000Y-73380000D03*
X151110000Y-73380000D03*
X148570000Y-73380000D03*
X146030000Y-73380000D03*
X143490000Y-73380000D03*
X140950000Y-73380000D03*
X138410000Y-73380000D03*
X135870000Y-73380000D03*
X135870000Y-88620000D03*
X138410000Y-88620000D03*
X140950000Y-88620000D03*
X143490000Y-88620000D03*
X146030000Y-88620000D03*
X148570000Y-88620000D03*
X151110000Y-88620000D03*
X153650000Y-88620000D03*
X156190000Y-88620000D03*
X158730000Y-88620000D03*
X161270000Y-88620000D03*
X163810000Y-88620000D03*
X166350000Y-88620000D03*
X168890000Y-88620000D03*
X171430000Y-88620000D03*
X173970000Y-88620000D03*
X176510000Y-88620000D03*
X179050000Y-88620000D03*
X181590000Y-88620000D03*
X184130000Y-88620000D03*
X139681000Y-84812000D03*
X139681000Y-82272000D03*
X139681000Y-79732000D03*
X139681000Y-77192000D03*
%TD*%
D13*
%TO.C,H3*%
X185833274Y-61833274D03*
X188166726Y-64166726D03*
X185350000Y-63000000D03*
X187000000Y-61350000D03*
X187000000Y-64650000D03*
D12*
X187000000Y-63000000D03*
D13*
X185833274Y-64166726D03*
X188166726Y-61833274D03*
X188650000Y-63000000D03*
%TD*%
D10*
%TO.C,J3*%
X131375000Y-89875000D03*
D11*
X131375000Y-87335000D03*
X131375000Y-84795000D03*
X131375000Y-82255000D03*
X131375000Y-79715000D03*
X131375000Y-77175000D03*
X131375000Y-74635000D03*
X131375000Y-72095000D03*
%TD*%
M02*
